<svg width="72" height="72" viewBox="0 0 72 72" fill="none" xmlns="http://www.w3.org/2000/svg">
<path d="M72 0H0V72H72V0Z" fill="black"/>
<path d="M20.0869 52.3687H51.9244V54H20.0869V52.3687ZM21.3413 49.2188H50.7184V51.4688H21.3413V49.2188ZM21.1545 23.4922H50.3753V26.6423H21.1545V23.4922ZM21.3413 22.5506H50.175L51.0525 21.5775L35.775 18L20.475 21.5775L21.3413 22.5506ZM25.3688 36.5681L25.2428 31.9556L25.0223 27.6019C25.0167 27.4894 24.9627 27.45 24.8592 27.4264C24.0088 27.2419 23.1288 27.2419 22.2784 27.4264C22.1749 27.4489 22.1209 27.4759 22.1153 27.6019L21.8948 31.9556L21.7688 36.5681L21.78 39.8464L21.8757 43.4824L22.0815 47.3805L22.14 48.1196C22.6071 48.2449 23.0876 48.3129 23.571 48.3221C24.0458 48.3165 24.5217 48.2434 25.002 48.1196L25.0605 47.3805L25.2664 43.4824L25.362 39.8464L25.3733 36.5681H25.3688ZM33.3248 36.5681L33.1988 31.9556L32.9783 27.6019C32.9727 27.4894 32.9187 27.45 32.8152 27.4264C31.9648 27.2419 31.0848 27.2419 30.2344 27.4264C30.1309 27.4489 30.0769 27.4759 30.0713 27.6019L29.8508 31.9556L29.7248 36.5681L29.736 39.8464L29.8317 43.4824L30.0375 47.3805L30.096 48.1196C30.5632 48.2445 31.0436 48.3125 31.527 48.3221C32.0018 48.3165 32.4777 48.2434 32.958 48.1196L33.0165 47.3805L33.2213 43.4824L33.3169 39.8464L33.3282 36.5681H33.3248ZM42.552 36.5681L42.426 31.9556L42.2055 27.6019C42.1999 27.4894 42.1459 27.45 42.0424 27.4264C41.6149 27.333 41.184 27.2891 40.752 27.288C40.3182 27.288 39.8856 27.3344 39.4617 27.4264C39.3582 27.4489 39.3042 27.4759 39.2985 27.6019L39.078 31.9556L38.952 36.5681L38.9633 39.8464L39.0589 43.4824L39.2648 47.3805L39.3233 48.1196C39.7904 48.2445 40.2709 48.3125 40.7543 48.3221C41.229 48.3165 41.7049 48.2434 42.1853 48.1196L42.2438 47.3805L42.4497 43.4824L42.5453 39.8464L42.5565 36.5681H42.552ZM50.3213 36.5681L50.1953 31.9556L49.9748 27.6019C49.9692 27.4894 49.9152 27.45 49.8117 27.4264C49.3842 27.333 48.9533 27.2891 48.5213 27.288C48.0875 27.288 47.6549 27.3344 47.2309 27.4264C47.1274 27.4489 47.0734 27.4759 47.0678 27.6019L46.8473 31.9556L46.7213 36.5681L46.7325 39.8464L46.8282 43.4824L47.0329 47.3805L47.0914 48.1196C47.5585 48.2445 48.039 48.3125 48.5224 48.3221C49.0059 48.3129 49.4864 48.2449 49.9534 48.1196L50.0119 47.3805L50.2178 43.4824L50.3134 39.8464L50.3247 36.5681H50.3213Z" fill="white"/>
</svg>
