<svg width="72" height="72" viewBox="0 0 72 72" fill="none" xmlns="http://www.w3.org/2000/svg">
<path d="M72 0H0V72H72V0Z" fill="#333333"/>
<g clip-path="url(#clip0)">
<path d="M30 54.0001C33.312 54.0001 36 51.3121 36 48.0001V42H30C26.688 42 24 44.688 24 48.0001C24 51.3121 26.688 54.0001 30 54.0001Z" fill="#0ACF83"/>
<path d="M24 36C24 32.688 26.688 30 30 30H36V42H30C26.688 42 24 39.312 24 36Z" fill="#A259FF"/>
<path d="M24.001 24C24.001 20.688 26.689 18 30.001 18H36.0009V30H30.001C26.689 30 24.001 27.312 24.001 24Z" fill="#F24E1E"/>
<path d="M36 18H42C45.312 18 48 20.688 48 24C48 27.312 45.312 30 42 30H36V18Z" fill="#FF7262"/>
<path d="M48 36C48 39.312 45.312 42 42 42C38.688 42 36 39.312 36 36C36 32.688 38.688 30 42 30C45.312 30 48 32.688 48 36Z" fill="#1ABCFE"/>
</g>
<defs>
<clipPath id="clip0">
<rect width="24.0048" height="36" fill="white" transform="translate(23.9976 18)"/>
</clipPath>
</defs>
</svg>
