<svg version="1.1" id="Layer_1" xmlns="http://www.w3.org/2000/svg" x="0" y="0" viewBox="0 0 72 72" xml:space="preserve"><style>.st1{fill:#fff}</style><path fill="#c00" d="M0 0h72v72H0z"/><path class="st1" d="M34.73 34.56c-2.74-5.7-2.66-10.4 7.07-13.72 1.39-.5 3.82-.8 6.68-2.88-1.37 4.02-2.62 4.2-2.98 5.12.74-.09 1.13-.46 1.92-.85-.2.73-.45 1.45-.74 2.16a12.9 12.9 0 01-1.58 2.12.81.81 0 00.63 0c.29-.11.54-.28.75-.5 0 1-1.07 3.6-3.65 4.73-3.38 1.49-7.68.7-8.08 3.81M30.1 42.38a.57.57 0 00-.39.22.55.55 0 00-.1.43l.57 3.7h.09l.06.03.08.03.35.11c.1.04.2.06.32.09-.01-.54-.28-3.57-.35-4.12a.55.55 0 00-.21-.39.57.57 0 00-.43-.12M39.6 42.38a.57.57 0 00-.59.27.55.55 0 00-.07.22c-.07.51-.33 3.56-.38 4.17.11 0 .22-.05.32-.08.12-.03.24-.07.35-.12l.07-.03.06-.03h.03l.12-.04.56-3.7a.55.55 0 00-.27-.57.57.57 0 00-.2-.07"/><path class="st1" d="M38.78 46.88h-.2l-.17.04h-.25l-.17.03H31.74l-.17-.03h-.25l-.12-.03a.57.57 0 01-.33-.04l.05.48.08.85c.28.19.6.32.93.39.96.23 1.94.34 2.93.31.38 0 .73 0 1.07-.03a8.98 8.98 0 001.88-.28c.33-.07.64-.2.93-.4l.11-1.31h-.05"/><path class="st1" d="M37.72 48.52c-.61.13-1.24.21-1.87.24l.06-.02c-.33 0-.67.03-1.06.03-1 .02-1.98-.07-2.95-.27v.37l.05.4.1.94.4 3.79h4.7l.57-5.48zM36.4 47.3h.69l.16-.03h.16c.09-.91.34-3.48.4-3.96.04-.48-.48-.63-.57-.64a.63.63 0 00-.62.29.6.6 0 00-.08.22c-.06.56-.18 3.81-.2 4.25h.06M33.27 47.33V44.86 44.38v-.8-.4c-.03-.52-.57-.55-.68-.55a.8.8 0 00-.5.23V43.17c0 .49.17 3.25.21 4.06h1.13l-.16.1zM35.35 42.87l-.05-.05h-.03l-.09-.05a.9.9 0 00-.3-.06c-.11 0-.22.02-.31.06l-.08.05h-.03l-.05.05c-.1.1-.16.24-.15.39V47.4h1.26v-.1V45v-1.75a.55.55 0 00-.16-.4M23.52 36.45v1.04c3.66.28 5.63 2 5.97 3.64v.35h.12l.33.28h.08l.3.08h.08c.16.04.35.06.56.1H39.03l.2-.04h.14l.3-.08h.26v-.35c.32-1.66 2.31-3.36 5.96-3.64v-1.38H23.52z"/></svg>