<svg width="72" height="72" viewBox="0 0 72 72" fill="none" xmlns="http://www.w3.org/2000/svg">
<path d="M72 0H0V72H72V0Z" fill="#1D4FC4"/>
<path d="M36 18C34.011 18 32.4 19.611 32.4 21.6V34.2C32.4 36.1868 34.011 37.8 36 37.8C37.989 37.8 39.6 36.1868 39.6 34.2V25.8165C43.794 27.3015 46.8 31.2975 46.8 36C46.8 41.9625 41.9625 46.8 36 46.8C30.0375 46.8 25.2 41.9625 25.2 36C25.2 33.0165 26.4082 30.3165 28.3635 28.3635C29.7697 26.9572 29.7697 24.678 28.3635 23.2717C26.9572 21.8655 24.678 21.8655 23.2717 23.2717C20.016 26.5275 18 31.0275 18 36C18 45.9405 26.0595 54 36 54C45.9405 54 54 45.9405 54 36C54 26.0595 45.9405 18 36 18Z" fill="white"/>
</svg>
