<?xml version="1.0" encoding="utf-8"?>
<!-- Generator: Adobe Illustrator 23.0.4, SVG Export Plug-In . SVG Version: 6.00 Build 0)  -->
<svg version="1.1" id="Layer_1" xmlns="http://www.w3.org/2000/svg" xmlns:xlink="http://www.w3.org/1999/xlink" x="0px" y="0px"
	 viewBox="0 0 72 72" style="enable-background:new 0 0 72 72;" xml:space="preserve">
<style type="text/css">
	.st0{fill:#54AADB;}
	.st1{fill:#FFFFFF;}
	.st2{fill:#FF5F5F;}
</style>
<g id="Twitter">
	<rect class="st0" width="72" height="72"/>
</g>
<g id="Guides">
</g>
<g id="layer1" transform="translate(-37.579964,-135.49927)">
	<g id="g40" transform="matrix(1.1421528,0,0,-1.1421528,265.93398,460.73095)">
		<g id="g4184">
			<path id="path38" class="st1" d="M-159.2,252c-1.2-0.2-2.2,0-2.2,0v7.5h2.3c0,0,2.6-0.7,2.6-3.5
				C-156.5,253.5-157.8,252.5-159.2,252 M-152.8,257.2c-1,5.4-6.4,6-6.4,6h-24c-0.8,0-0.9-1-0.9-1s-0.1-9.6,0-15.5
				c0.2-3.2,3.4-3.5,3.4-3.5s10.9,0,15.7,0.1c3.2,0.6,3.5,3.4,3.5,4.9C-155.8,247.8-151.8,251.9-152.8,257.2"/>
			<path id="path42" class="st2" d="M-173,247.4c0.2-0.1,0.4,0,0.4,0s3.6,3.3,5.3,5.2c1.5,1.7,1.6,4.6-0.9,5.7s-4.6-1.3-4.6-1.3
				c-1.8,2-4.5,1.9-5.7,0.5c-1.2-1.3-0.8-3.6,0.1-4.9C-177.5,251.4-173.7,248-173,247.4C-173.1,247.5-173.1,247.4-173,247.4"/>
		</g>
	</g>
</g>
</svg>
