<?xml version="1.0" encoding="utf-8"?>
<!-- Generator: Adobe Illustrator 23.0.3, SVG Export Plug-In . SVG Version: 6.00 Build 0)  -->
<svg version="1.1" id="Layer_1" xmlns="http://www.w3.org/2000/svg" xmlns:xlink="http://www.w3.org/1999/xlink" x="0px" y="0px"
	 viewBox="0 0 72 72" style="enable-background:new 0 0 72 72;" xml:space="preserve">
<style type="text/css">
	.st0{fill:#34526F;}
	.st1{fill:#FFFFFF;}
</style>
<g id="Twitter">
	<rect class="st0" width="72" height="72"/>
</g>
<g id="Guides">
</g>
<g>
	<path id="Tumblr" class="st1" d="M39.2,47.4c-0.6-0.4-1.2-1-1.4-1.6c-0.2-0.6-0.2-1.8-0.2-3.9v-9.2H46v-6.4h-8.4V18h-5.2
		c-0.2,1.9-0.7,3.4-1.3,4.6c-0.6,1.2-1.4,2.2-2.4,3.1c-1,0.9-2.7,1.5-4.1,2v5.1h4.9v12.6c0,1.6,0.2,2.9,0.5,3.8
		c0.3,0.9,1,1.7,1.9,2.5c0.9,0.8,2,1.4,3.3,1.8c1.3,0.4,2.3,0.6,3.9,0.6c1.5,0,2.8-0.1,4.1-0.4c1.3-0.3,2.7-0.8,4.2-1.5v-5.7
		c-1.8,1.2-3.6,1.8-5.5,1.8C40.9,48.1,40,47.9,39.2,47.4z"/>
</g>
</svg>
