<?xml version="1.0" encoding="utf-8"?>
<!-- Generator: Adobe Illustrator 23.0.3, SVG Export Plug-In . SVG Version: 6.00 Build 0)  -->
<svg version="1.1" id="Layer_1" xmlns="http://www.w3.org/2000/svg" xmlns:xlink="http://www.w3.org/1999/xlink" x="0px" y="0px"
	 viewBox="0 0 72 72" style="enable-background:new 0 0 72 72;" xml:space="preserve">
<style type="text/css">
	.st0{fill:#053EFF;}
	.st1{fill:#FFFFFF;}
</style>
<g id="Twitter">
	<rect class="st0" width="72" height="72"/>
</g>
<g id="Guides">
</g>
<g>
	<path id="Behance" class="st1" d="M50.5,28h-9v-2.2h9L50.5,28C50.5,28,50.5,28,50.5,28z M35.5,37.1c0.6,0.9,0.9,2,0.9,3.3
		c0,1.3-0.3,2.5-1,3.6c-0.4,0.7-1,1.3-1.6,1.8c-0.7,0.5-1.6,0.9-2.5,1.1c-1,0.2-2,0.3-3.2,0.3H18V24.8h10.8c2.7,0,4.7,0.8,5.8,2.4
		c0.7,1,1,2.1,1,3.4c0,1.4-0.3,2.5-1,3.3c-0.4,0.5-1,0.9-1.7,1.3C34,35.6,34.9,36.2,35.5,37.1z M23.2,33.6h4.7c1,0,1.8-0.2,2.4-0.6
		c0.6-0.4,0.9-1,0.9-2c0-1-0.4-1.7-1.2-2.1c-0.7-0.2-1.6-0.4-2.6-0.4h-4.2V33.6z M31.6,40.1c0-1.2-0.5-2-1.4-2.4
		c-0.5-0.2-1.3-0.4-2.2-0.4h-4.8v6h4.7c1,0,1.7-0.1,2.3-0.4C31.1,42.4,31.6,41.5,31.6,40.1z M53.9,36.5c0.1,0.7,0.2,1.8,0.1,3.2
		H42.3c0.1,1.6,0.6,2.7,1.7,3.4c0.6,0.4,1.4,0.6,2.3,0.6c1,0,1.7-0.2,2.3-0.7c0.3-0.3,0.6-0.6,0.9-1.1h4.3c-0.1,1-0.6,1.9-1.6,2.9
		c-1.4,1.6-3.4,2.3-6,2.3c-2.1,0-4-0.7-5.7-2c-1.6-1.3-2.4-3.5-2.4-6.4c0-2.8,0.7-4.9,2.2-6.4c1.5-1.5,3.4-2.2,5.7-2.2
		c1.4,0,2.7,0.2,3.8,0.8c1.1,0.5,2,1.3,2.8,2.4C53.2,34.1,53.7,35.2,53.9,36.5z M49.6,36.9c-0.1-1.1-0.5-2-1.1-2.5
		c-0.7-0.6-1.5-0.9-2.5-0.9c-1.1,0-1.9,0.3-2.5,0.9c-0.6,0.6-1,1.4-1.1,2.5L49.6,36.9L49.6,36.9z"/>
</g>
</svg>
