<svg version="1.1" id="Layer_1" xmlns="http://www.w3.org/2000/svg" x="0" y="0" viewBox="0 0 72 72" xml:space="preserve"><style>.st1{fill:#626365}.st7{fill:#ce9738}.st10{fill:#cd9537}.st14{fill:#cb8f31}.st15{fill:#d29c3b}.st18{fill:#d19b3b}.st22{fill:#daa63f}.st23{fill:#c08125}.st24{fill:#cc8920}.st28{fill:#c17d1f}.st29{fill:#cb8d2d}.st30{fill:#cd963b}.st31{fill:#cb8c28}.st34{fill:#bb7c27}.st37{fill:#d09836}.st41{fill:#bf8128}.st48{fill:#e5b547}.st49{fill:#e2b145}.st50{fill:#e1b044}.st51{fill:#e0ad42}.st53{fill:#d6a13b}.st56{fill:#ddaa40}.st59{fill:#d5982e}.st60{fill:#cc902c}.st63{fill:#dba538}.st64{fill:#d19732}.st65{fill:#e1af44}.st67{fill:#dfa531}.st72{fill:#e7b849}.st74{fill:#d89c30}.st75{fill:#f1c652}.st77{fill:#f5cb55}.st78{fill:#efc350}.st79{fill:#f2c753}.st82{fill:#e3b244}.st83{fill:#e9bb4b}.st84{fill:#eabc4c}.st87{fill:#e7b748}.st89{fill:#dfa332}.st90{fill:#dea232}.st91{fill:#dc9e2c}.st95{fill:#ebbd4c}.st96{fill:#e9b340}.st97{fill:#e2a635}.st98{fill:#e6ac38}.st102{fill:#e8af33}.st104{fill:#e3a533}.st105{fill:#eec250}.st107{fill:#f0c551}.st108{fill:#edbf4c}.st110{fill:#e4aa35}.st111{fill:#e3a733}.st112{fill:#f3c954}.st113{fill:#f5cc56}.st115{fill:#fad35a}.st117{fill:#f3c853}.st120{fill:#f3c852}.st121{fill:#f6cd56}.st124{fill:#f2c650}.st125{fill:#f4bf45}.st127{fill:#e6af39}.st134{fill:#f2bd42}.st135{fill:#f0bd42}.st136{fill:#eeb93d}.st145{fill:#fdd75d}.st147{fill:#fcd559}.st149{fill:#f7cf57}.st150{fill:#f3c44b}.st158{fill:#edb53c}.st162{fill:#f4c346}.st164{fill:#f6c445}.st171{fill:#f9cd51}.st172{fill:#f5c84f}.st174{fill:#f5c74c}.st180{fill:#fdd960}.st184{fill:#fdda62}.st186{fill:#fbd75e}.st188{fill:#fad155}.st189{fill:#fad256}.st192{fill:#f3be41}.st193{fill:#facf52}.st194{fill:#f9cb4d}.st197{fill:#efb93f}.st199{fill:#f0bb42}.st202{fill:#f8c749}.st205{fill:#f2bf43}.st208{fill:#fcd155}.st209{fill:#fdde69}.st213{fill:#f9cf55}.st218{fill:#f8c94b}.st229{fill:#f4c54a}.st230{fill:#fde06d}</style><path fill="#f2efe4" d="M0 0h72v72H0z" id="Twitter"/><path class="st1" d="M38.6 18c.77.42 1.54.83 2.22 1.42a12.54 12.54 0 013.86 6.67c.05.2-.01.29-.2.3-.18 0-.38.15-.46-.19a13.3 13.3 0 00-1.55-3.76 9.07 9.07 0 00-3.97-3.72c-.22-.1-.25-.2-.15-.4.06-.1.13-.2.1-.32h.14z"/><path d="M53.12 27.7l-.08.13-.08.27a.5.5 0 01-.03.06c-.48.84-.78 1.76-1.13 2.65-.02.04-.02.1-.02.15-.2-.02-.16-.17-.14-.28.02-.15.02-.3.07-.44.21-.37.35-.76.43-1.18a.5.5 0 01.1-.2c.23-.42.48-.83.56-1.3.1-.56-.1-1-.58-1.32-.07-.04-.17-.1-.13-.2.03-.07.1-.04.17-.02.35.22.75.39.87.85l.04.08v.45" fill="#ba761d"/><path class="st1" d="M17.3 41.79c.25-.03.24.16.28.27.56 1.4 1.32 2.7 2.32 3.84a8.71 8.71 0 004.1 2.78c.36.1.2.28.18.48-.05.28-.22.2-.4.15a9.84 9.84 0 01-4.87-3.54 13.83 13.83 0 01-1.94-3.45c-.14-.36-.03-.52.34-.53zM20.3 40.74c.27-.06.24.14.28.27a7.58 7.58 0 002.19 3.57 6.02 6.02 0 002.64 1.41c.37.1.24.28.21.5-.04.29-.21.2-.38.15-2.84-.84-4.47-2.83-5.32-5.57-.13-.43.27-.23.37-.33zM41.21 27.08c-.33.09-.3-.17-.33-.35a7.33 7.33 0 00-2.12-4.22 5.8 5.8 0 00-2-1.3c-.38-.14-.2-.33-.14-.53.08-.3.25-.16.4-.1 2.52 1.12 3.87 3.13 4.45 5.74l.07.37c.07.29 0 .45-.33.39z"/><path d="M34.19 37.47c-1.74-2.03-3.49-4.05-5.21-6.1-1.83-2.15-3.68-4.29-5.36-6.56-.76-1.03-.65-2.04.3-2.76.46-.35 1-.51 1.59-.35-.02.1.23.04.12.2-.14.08-.3.04-.44.03a1.6 1.6 0 00-1.6.89c-.24.45-.2.95.07 1.4l.28.54c.28.5.7.9 1.04 1.34 1.25 1.63 2.6 3.18 3.92 4.75.6.72 1.17 1.48 1.86 2.13.12.3.38.5.58.73.67.75 1.3 1.54 1.98 2.27.3.32.53.7.83 1.02.11.12.22.28.14.48-.03.02-.07.02-.1 0z" fill="#cd9637"/><path d="M23.9 24.82c-.22-.37-.48-.7-.54-1.15-.16-1.14 1-2.02 1.97-1.81.1.02.2 0 .3 0 .35 0 .61.2.87.4.75.56 1.28 1.3 1.89 2a40.56 40.56 0 011.37 1.65l.23.25c.06.11.15.2.24.3l.17.18c.86 1 1.73 2 2.57 3.01.7.85 1.42 1.66 2.11 2.5.47.58.92 1.18 1.56 1.59.13.09.06-.01.06-.06.23.05.4-.09.6-.17.05.01.09.05.12.1v.11a.39.39 0 01-.28.26c-.49.1-.87-.06-1.2-.43a54.96 54.96 0 01-2.56-2.94c-.28-.35-.6-.65-.89-.98-.44-.65-1.01-1.18-1.5-1.8-.54-.7-1.18-1.32-1.72-2.04-.39-.52-.85-.98-1.27-1.49-.52-.6-.98-1.24-1.61-1.74-.57-.45-1.66-.68-2.28-.13a1.1 1.1 0 00-.33.4c-.21.38-.24.78-.07 1.18l.16.4c.04.12.15.21.21.33.02.06.01.1-.02.16-.09.04-.12-.03-.17-.08z" fill="#d9a53e"/><path d="M22.65 33.01l-.28-.3a.15.15 0 01-.01-.15c.22-.09.3.13.42.23.11.09.21.2.31.31.19.29.44.52.68.76l.19.18c.37.48.83.9 1.25 1.33l.1.12c.36.47.8.84 1.2 1.26l2.9 2.89c.61.78 1.43 1.39 2.02 2.19.2.25.4.54.18.89-.2-.04-.02-.26-.16-.32-.42-.71-1.08-1.22-1.64-1.81-1.58-1.68-3.2-3.32-4.8-4.99-.7-.72-1.35-1.47-2.03-2.2-.08-.16-.2-.28-.33-.39z" fill="#cf9839"/><path d="M37.35 32.94c-.68-.86-1.36-1.7-2.03-2.57-1.65-2.12-3.3-4.25-4.9-6.42-.26-.37-.56-.72-.7-1.16-.03-.06-.05-.12.02-.16.1-.05.16.04.2.1.16.26.3.52.49.75.1.15.2.32.34.45l.1.13c.75 1.07 1.58 2.09 2.37 3.13 1.34 1.76 2.72 3.5 4.06 5.26.11.14.28.28.15.5-.04.02-.07.01-.1-.01z" fill="#ce9638"/><path class="st7" d="M36.7 33.68l.23.17a1.12 1.12 0 01-.74-.33c-.63-.63-1.18-1.33-1.75-2-.5-.61-1.02-1.21-1.53-1.81-.72-.84-1.44-1.67-2.15-2.52-.15-.18-.39-.29-.43-.55.15-.07.18.16.32.12l3.1 3.6 2.48 2.9c.14.16.28.32.47.42z"/><path d="M24.28 37.24c.69.2 1.22.65 1.74 1.12l3.9 3.62c.28.25.53.54.8.8.01.04 0 .07-.02.1-.12.04-.2-.02-.28-.08-.42-.34-.86-.65-1.2-1.1-.36-.5-.96-.75-1.36-1.22-.7-.62-1.38-1.23-2.05-1.87-.1-.1-.2-.17-.27-.27-.26-.24-.5-.52-.82-.69a1.76 1.76 0 00-1.48-.12.36.36 0 01-.17 0c-.06-.03-.1-.06-.09-.13.13-.1.27-.18.43-.16.3-.05.58-.06.87 0z" fill="#cb9337"/><path d="M52.09 43.94l-.3 1.4a9.93 9.93 0 01-3 5.28c-.08.07-.15.15-.26.14a.14.14 0 01-.06-.1c.1-.32.36-.55.58-.77a10.83 10.83 0 002.51-4.48c.06-.17.04-.35.1-.52.22-1.26.38-2.53.32-3.82 0-.1 0-.22.06-.32.04-.04.08-.05.13-.03a21.5 21.5 0 01-.01 2.58c-.11.2.01.44-.07.64z" fill="#b77825"/><path class="st10" d="M31.68 19.97c1.09.2 1.76.94 2.38 1.76l2.83 3.68c.2.26.32.57.56.8.07.08.02.13-.06.16-.18 0-.25-.14-.35-.26l-1.08-1.4c-.86-1.08-1.7-2.18-2.52-3.3-.58-.68-1.25-1.21-2.2-1.27-.12-.01-.3.03-.31-.18.25-.04.5-.05.75.01z"/><path d="M27.53 31.79c1.83 1.89 3.6 3.83 5.36 5.78.18.2.31.45.55.6.12.06.26-.01.38.04.02.04.02.07 0 .1-.3.17-.58.04-.83-.14-.13-.1-.24-.22-.35-.35-.59-.72-1.27-1.35-1.85-2.08-.05-.05-.1-.11-.13-.18-.15-.35-.48-.54-.71-.82a.76.76 0 01-.07-.08c-.55-.62-1.1-1.24-1.7-1.82-.1-.12-.23-.23-.32-.36-.1-.16-.26-.28-.37-.43-.09-.12-.08-.12.04-.26z" fill="#cc9436"/><path d="M51.78 30.2c.09.25-.19.5 0 .76-.39 1.83-.4 3.69-.23 5.54.04.43.1.85.15 1.27-.06.14.04.28-.02.41a.15.15 0 01-.08.07.11.11 0 01-.09-.04c-.07-.13-.03-.27-.08-.4a.75.75 0 01-.03-.1c-.03-.16-.01-.32-.07-.48a.76.76 0 01-.02-.1c-.02-.2 0-.39-.06-.57a.94.94 0 01-.03-.19c-.02-.29.04-.59-.05-.88a34.31 34.31 0 01.05-3.25c.05-.7.2-1.4.42-2.06a.17.17 0 01.1-.07c.05.01.06.04.04.09z" fill="#c78929"/><path d="M43.67 53.53c-1.9.62-3.8.65-5.7-.05 0-.17.12-.16.23-.18.94.3 1.91.4 2.9.36a9.38 9.38 0 003.17-.73c.31-.13.6-.31.95-.36.06 0 .11.03.13.1-.02.15-.16.18-.27.23-.47.23-.96.43-1.47.57-.08.03-.08.03 0 .03.03 0 .05.01.06.03z" fill="#c08127"/><path class="st10" d="M30.65 26.76c-.17.14-.2-.12-.32-.12a.26.26 0 01-.15-.15c-.07-.11-.15-.2-.23-.3a.48.48 0 01-.22-.23c-.09-.15-.22-.25-.3-.38-.42-.34-.7-.79-1.04-1.18-.65-.74-1.23-1.55-2.03-2.15-.22-.16-.48-.26-.72-.38-.04-.06-.1-.08-.16-.08-.03 0-.05-.03-.07-.05l.1-.04c.7.08 1.22.47 1.65.96.95 1.09 1.92 2.16 2.8 3.31.2.28.46.53.69.79z"/><path class="st14" d="M28.96 46.36a82.47 82.47 0 01-4.98-4.83c-.07-.07-.12-.16-.17-.24a.14.14 0 01-.01-.11c.05-.04.1-.05.16-.03.41.42.82.85 1.25 1.26l.1.11 1.26 1.26c.08.07.16.12.25.18.7.65 1.35 1.33 2.09 1.93.11.09.24.19.23.36-.04.08-.1.1-.18.1z"/><path class="st15" d="M21.1 29.74c.21-.76.79-1.1 1.5-1.28 1.45-.13 2.42.7 3.32 1.66.14.16.3.31.43.48.08.1.22.19.14.35-.2.07-.28-.09-.38-.19-.41-.39-.76-.84-1.2-1.2-.54-.43-1.08-.8-1.83-.8-.5.02-.9.2-1.26.51-.48.43-.54 1.2-.17 1.85.08.14.2.26.17.45a.14.14 0 01-.07.09c-.18-.02-.24-.17-.32-.3a2.67 2.67 0 01-.34-1.62z"/><path d="M46.16 32.76c.55-.68.7-1.48.6-2.33a3.83 3.83 0 01.92-3.04c.23-.01.28-.35.55-.3a.2.2 0 01.03.1c-.26.42-.62.79-.84 1.25-.22.28-.28.63-.36.97-.05.32-.06.63.02.95.1.67-.04 1.32-.28 1.94-.11.3-.27.61-.64.7-.06-.08-.04-.16 0-.24z" fill="#cd902e"/><path d="M46.16 32.76V33c.05.22-.15.27-.27.36-.63.5-1.3.8-2.14.57-.2-.05-.4-.15-.57-.27a5.7 5.7 0 01-1.77-2.03c.02-.08.02-.17.14-.15.4.48.8.96 1.23 1.42.92 1.02 2.1 1.06 3.1.11.1-.08.2-.16.28-.25z" fill="#cb8a2b"/><path class="st18" d="M30.93 19.96c.07.1.17.08.27.09.97 0 1.64.58 2.27 1.22.03.03.03.1.05.14a.11.11 0 01-.11.01c-.42-.35-.84-.71-1.33-.98-.9-.49-1.93-.1-2.27.87-.16.47.03.89.21 1.3.12.3.39.53.42.88l-.03.04c-.27-.18-.38-.48-.53-.75-.05-.1-.12-.2-.16.01-.6-1.11-.26-2.25.81-2.73.13-.06.25-.12.4-.1z"/><path class="st7" d="M26.47 30.96c-.1-.38-.44-.58-.68-.84a4.96 4.96 0 00-2.23-1.54c-.32-.1-.65.06-.95-.12l.12-.01c.26-.04.53-.06.8 0 1.05.17 1.78.85 2.45 1.6.52.59 1.1 1.1 1.55 1.74-.15.13.02.19.08.26.1.14.29.22.3.42l-.05.02c-.23-.07-.35-.27-.51-.42-.3-.27-.51-.61-.8-.88-.06-.06-.13-.13-.08-.23z"/><path d="M34.2 50.96c-1.54-1.3-3.1-2.6-4.56-3.99a.08.08 0 01-.02-.06v-.04c.14-.1.25-.02.34.07.75.72 1.62 1.3 2.36 2.04.23.23.48.45.76.61.49.22.7.71 1.1 1.02.06.07.13.13.16.21.03.12.03.22-.14.14z" fill="#c88527"/><path d="M37.38 26.33c.05-.02.07-.07.07-.13 1.07 1.31 2.1 2.64 3.1 4-.02.06 0 .15-.1.17-.34-.1-.46-.45-.69-.67a3.82 3.82 0 01-.7-.93c-.36-.56-.83-1.02-1.2-1.56-.14-.19-.29-.35-.41-.54-.07-.1-.17-.2-.07-.34z" fill="#cd9638"/><path d="M43.67 53.53h-.22c.65-.25 1.25-.57 1.89-.83.05-.15.2-.2.32-.26a15.54 15.54 0 002.47-1.64c.12-.1.2-.25.39-.15v.1c-.07.17-.2.29-.33.4-1.2.92-2.47 1.73-3.93 2.17-.2.06-.38.19-.59.21z" fill="#b97924"/><path class="st22" d="M33.82 38.3v-.07c0-.04.05-.05.07-.07l.2-.17c.23-.11.09-.36.18-.52a.88.88 0 00-.22-.47c-.57-.63-1.1-1.3-1.67-1.94-.52-.57-1.02-1.17-1.54-1.75-.07-.08-.09-.2-.13-.3-.02-.03-.03-.05-.02-.07 0-.02.02-.03.02-.03.14 0 .2.1.26.19.4.47.86.9 1.25 1.39.67.73 1.3 1.5 1.93 2.25.24.28.41.61.36 1-.04.32-.18.57-.54.64a.2.2 0 01-.15-.08z"/><path class="st23" d="M51.62 38.23c.03-.15-.06-.32.08-.46.02.02.02.04 0 .06.08.13-.01.28.07.4.05.12-.03.26.09.36.08.12-.03.28.07.4-.02.15.05.28.08.42.05.13.02.27.03.4.05.3.05.61.04.92 0 .9.05 1.81-.09 2.7-.08.52-.12 1.04-.29 1.54l-.05-.05c-.08-.17-.04-.34-.01-.52.13-.92.28-1.84.24-2.77-.04-.95-.06-1.9-.26-2.85-.04-.18-.1-.37 0-.55z"/><path class="st24" d="M49.28 26.19c.35-.22.75-.26 1.13-.39.45.03.89-.03 1.33.15 1.08.45 1.44 1.32.8 2.36-.05.02-.09 0-.12-.03-.07-.11-.05-.24-.02-.36.25-1-.24-1.65-1.28-1.8-.57-.08-1.08.09-1.62.21-.1 0-.22.01-.22-.14z"/><path d="M33.06 49.67c-.33-.14-.57-.4-.82-.64-.77-.76-1.67-1.36-2.45-2.12-.03-.03-.1-.03-.14-.04-.19.02-.24-.19-.39-.23a.88.88 0 01-.3-.28c.03-.08.1-.1.16-.1.37 0 .5.35.79.49.95.83 1.98 1.58 2.89 2.49.09.14.3.2.26.43z" fill="#d08f28"/><path d="M27.9 40.43c.5.5 1.13.85 1.58 1.43.32.41.75.75 1.23 1 .17.06.34.16.53.07a.05.05 0 01.05-.01c.06-.03.11-.04.17-.02.12.25-.08.28-.23.32a.88.88 0 01-.74-.17 6.02 6.02 0 01-1.25-1.08c-.28-.35-.67-.6-.99-.92-.1-.14-.22-.26-.33-.4a.33.33 0 01-.05-.08c-.01-.06 0-.1.04-.14z" fill="#d7a23d"/><path d="M23.82 41.18l-.01.1c-.6-.68-1.26-1.32-1.59-2.2a1.81 1.81 0 010-.73c.07-.46.43-.7.76-.95l.08.07c.04.2-.13.29-.23.4-.47.49-.53.9-.2 1.5.26.45.63.82.93 1.25.07.2.33.3.26.56z" fill="#cc9235"/><path class="st28" d="M52.46 28.3c.56-.8.41-1.8-.64-2.22a2.38 2.38 0 00-1.02-.2c-.13 0-.28.05-.39-.08a3.77 3.77 0 011.09-.01c.24.12.54.04.76.23-.05.02-.2.02-.05.1.89.52.86 1.42.43 2.17-.12.2-.14.46-.33.62-.13-.25-.03-.44.15-.6z"/><path class="st29" d="M34.2 50.96c.09-.07.09-.07-.08-.3.15-.1.24 0 .33.09.64.6 1.33 1.14 2.02 1.68.02.04.03.07.02.1-.03.08-.1.1-.18.1-.77-.47-1.42-1.1-2.1-1.67z"/><path class="st30" d="M21.1 29.74c.13.15.05.34.06.5.03.55.23 1.01.61 1.4.24.27.58.49.6.9v.17c-.48-.54-1-1.07-1.23-1.79a.91.91 0 01-.06-.32 2.26 2.26 0 01.01-.86z"/><path class="st31" d="M49.28 26.19c.05.08.14.07.22.07.02.04.02.09-.01.1-.45.2-.8.59-1.28.73l-.4.36c-.09.08-.12.04-.13-.06.43-.54.93-.98 1.6-1.2z"/><path d="M40.49 30.35l.06-.15c.35.42.74.8 1 1.28-.06.04-.08.1-.08.16-.24.02-.27-.26-.45-.32-.2-.16-.35-.38-.48-.6-.06-.1-.16-.23-.05-.37z" fill="#ce9435"/><path d="M36.31 52.64c.03-.07.1-.09.16-.1.09-.07.17-.02.25.03.2.16.44.26.67.37l.37.16c.12.06.25.1.38.14.03 0 .06.03.08.05.02.03.02.06 0 .1-.1 0-.2-.02-.24.09a7.08 7.08 0 01-1.67-.84z" fill="#c6892c"/><path class="st34" d="M52.16 43.25v-2.53a8.9 8.9 0 010 2.53z"/><path d="M37.35 32.94l.1-.01c.22.03.16.2.17.34-.02.16-.07.3-.24.34l-.09-.1c.08-.18.13-.37.06-.57z" fill="#ce973b"/><path class="st34" d="M52.08 40.73c-.11-.3-.07-.6-.08-.91.03-.04.05-.03.08 0 .01.02.02.04 0 .06.1.2-.03.42.08.62v.22h-.08z"/><path class="st31" d="M51.5 25.8h-1.03c.34-.11.69-.12 1.03 0z"/><path d="M31.47 42.93l-.18-.01c.19-.13.22-.31.16-.52.15.05.05.24.17.3.08.1.03.17-.05.24a.09.09 0 01-.1-.01z" fill="#d6a346"/><path class="st37" d="M24.28 37.24h-.87c.3-.11.58-.11.87 0z"/><path d="M31.24 42.93c-.2.12-.38.14-.53-.08a4 4 0 010-.06c.18.04.34.15.53.14z" fill="#d29e42"/><path class="st18" d="M31.68 19.97h-.75c.25-.1.5-.11.75 0z"/><path class="st15" d="M21.08 29.8v.8c-.1-.27-.1-.54 0-.8zM23.52 28.45h-.79c.26-.1.53-.1.8 0z"/><path d="M22.22 38.35v.72a.81.81 0 010-.72z" fill="#cd953a"/><path d="M34.27 37.47c-.03.18.11.43-.18.52a.7.7 0 00.1-.52h.08z" fill="#d6a344"/><path class="st41" d="M52.16 40.5c-.16-.2-.05-.41-.08-.62.09.2.08.41.08.62z"/><path class="st14" d="M29.26 46.64c.19-.02.25.17.4.23l-.02.1-.38-.33z"/><path class="st34" d="M52.09 43.94c.02-.21-.1-.44.07-.64 0 .22.01.44-.07.64z"/><path class="st30" d="M22.65 33.01c.18.06.31.17.33.38l-.33-.38z"/><path d="M33.9 38.16l-.08.07c-.13-.01-.27.05-.38-.07h.45z" fill="#d4a34c"/><path class="st41" d="M52.08 39.82H52l.01-.4c.09.12.07.26.07.4zM51.93 38.99c-.13-.11-.06-.26-.07-.4.07.12.08.26.07.4zM51.77 38.23c-.12-.11-.05-.26-.07-.4.07.13.08.26.07.4z"/><path class="st24" d="M52.46 28.3l-.15.61c-.07.03-.08.09-.08.15-.11.34-.26.66-.35 1-.01.06-.05.08-.1.06-.03-.03-.07-.06-.07-.1.03-.62.28-1.17.6-1.69.03-.04.1-.04.15-.03z"/><path class="st28" d="M51.78 30.12c.19-.33.2-.74.45-1.06-.09.4-.14.83-.45 1.14v-.08z"/><path d="M30.71 32.93V33c-.46-.33-.81-.79-1.16-1.23-.67-.86-1.4-1.67-2.1-2.5-.97-1.18-1.97-2.34-2.88-3.56-.23-.3-.55-.52-.68-.9l.16.08c.21-.03.26.16.35.28.26.38.61.68.84 1.08.78.83 1.45 1.76 2.2 2.63l2.87 3.44c.1.1.18.21.29.3.09.07.22.15.11.3z" fill="#d8a33d"/><path d="M28.06 24.29c.43.47.88.93 1.27 1.43.34.42.7.83 1.05 1.23l2.13 2.53c.02.03.01.08.02.11-.22.04-.29-.17-.44-.25-.9-.92-1.65-1.96-2.55-2.88-.1-.1-.17-.22-.24-.34-.23-.47-.7-.75-.98-1.18-.15-.24-.45-.38-.43-.72.09-.06.13.01.17.07z" fill="#e4b447"/><path d="M32.15 29.29l.38.3c.3.25.57.53.81.84.82 1.03 1.71 2 2.59 2.99.34.38.72.57 1.22.49-.15.32-.44.13-.67.17a1.76 1.76 0 01-.92-.62c-.92-1.05-1.84-2.1-2.7-3.18-.18-.22-.38-.4-.57-.61-.1-.1-.24-.2-.14-.38z" fill="#e4b446"/><path d="M36.4 33.99c.25-.04.51.08.75-.08.1-.05.18-.12.23-.23.33-.31.28-.66.1-1.03a3.8 3.8 0 00-.61-.9c-.46-.5-.81-1.1-1.24-1.62l-.52-.6c-.12-.13-.25-.26-.17-.46.2-.06.29.1.38.21.35.43.72.83 1.04 1.27.43.64 1 1.18 1.38 1.85.04.08.07.17.09.26.04.26.03.51.01.76l-.03.12c-.12.25-.3.45-.54.58a.63.63 0 01-.19.04c-.23-.06-.52.15-.69-.17z" fill="#eabd4c"/><path d="M28.06 24.29l-.15-.08c-.22.04-.31-.14-.42-.27-.35-.41-.71-.81-1.1-1.2-.25-.31-.64-.4-1-.51a.98.98 0 00-.57 0c-.28.02-.48.26-.77.26l-.03-.06.02-.04c.5-.58 1.68-.46 2.35.05.66.48 1.1 1.16 1.65 1.74.02.02.01.07.02.1z" fill="#e2b045"/><path class="st48" d="M24.35 25.2c-.11-.1-.16-.25-.3-.3v-.16l-.23-.3c-.1-.1-.12-.25-.15-.38-.05-.05-.04-.1-.02-.16a.16.16 0 01.1-.03c.32.37.5.82.8 1.2.1.12.26.22.2.41-.24.06-.28-.17-.4-.28z"/><path class="st49" d="M23.67 23.91v.15c-.25-.38-.22-.86.07-1.29l.04.04c.06.17-.03.33-.05.49a.8.8 0 00-.01.46c0 .06-.01.1-.05.15z"/><path class="st50" d="M37.53 32.62c.27.42.22.83-.15 1.06v-.07c.04-.1.16-.17.15-.3.13-.25-.05-.46-.1-.68.04-.03.07-.03.1 0z"/><path class="st49" d="M24.04 22.4v.07c.01.21-.09.31-.3.3.02-.19.16-.28.3-.38z"/><path class="st7" d="M29.42 25.58c.15.09.29.18.3.38-.13-.1-.28-.2-.3-.38z"/><path class="st49" d="M23.82 24.44c.12.07.22.15.22.3-.12-.06-.22-.15-.22-.3z"/><path class="st7" d="M29.95 26.18c.13.07.23.15.23.3-.12-.06-.22-.14-.23-.3z"/><path class="st51" d="M29.35 39.67c-1-.93-1.95-1.89-2.88-2.88-.36-.47-.85-.82-1.21-1.29l-.08-.07c-.04-.05-.04-.1 0-.15.26-.02.41.17.56.33.76.76 1.43 1.58 2.18 2.35l1.2 1.25c.11.1.24.2.27.36 0 .04-.02.07-.04.1z"/><path class="st50" d="M29.35 39.67v-.08c.09-.05.17 0 .26.02.47.36.8.84 1.22 1.25.1.1.17.21.27.3.28.31.56.6.7 1.01.08.21.09.42 0 .62-.05.1-.1.22-.25.14l.07-.23c.04-.53-.27-.9-.6-1.25-.57-.58-1.2-1.11-1.67-1.78z"/><path d="M22.38 32.55c-.14-.35-.5-.55-.6-.91v-.08c.12-.05.18.05.26.11l.1.12c.23.31.4.66.74.89.11.08.2.22.22.38 0 .03-.02.07-.04.1l-.68-.61z" fill="#d59f3a"/><path class="st53" d="M25.18 35.27v.16a7.5 7.5 0 01-1.29-1.37c.04-.04.1-.05.15-.04l.09.05c.34.4.71.75 1.04 1.15l.01.05zM25.26 35.5c.43.4.9.76 1.21 1.29-.43-.4-.91-.76-1.21-1.29zM23.06 33.15v-.07c.4.05.5.42.72.68.01.05 0 .1-.04.15-.26-.22-.53-.43-.68-.76z"/><path class="st51" d="M23.74 33.91v-.15a.12.12 0 01.1-.02c.11.08.24.15.2.32h-.15l-.15-.15z"/><path d="M37.46 32.62c.1.22.25.43.07.68-.02-.12.05-.27-.07-.37-.09-.4-.4-.65-.61-.94-.81-1.07-1.64-2.12-2.47-3.17l-2.1-2.7-1.43-1.89c-.03-.04-.04-.11-.06-.17.24-.03.32.17.43.3.49.62.95 1.25 1.4 1.88.3.4.67.73.94 1.13.3.55.76.98 1.12 1.48.86 1.17 1.78 2.3 2.65 3.48.06.08.16.16.13.3z" fill="#d7a23c"/><path d="M33.52 27.4a13.7 13.7 0 01-1.33-1.58c-.45-.6-.83-1.25-1.4-1.76L30.7 24a1.04 1.04 0 01-.14-.29c-.14-.45-.52-.77-.63-1.23a.15.15 0 01.1-.04c.23.08.29.32.4.5l.23.34.1.2c.05.16.14.31.26.45.73.87 1.33 1.83 2.06 2.7.17.22.4.39.47.68 0 .03-.02.07-.04.1z" fill="#e0ae43"/><path class="st18" d="M30.64 23.68l.07.3a.77.77 0 01-.3-.45c.14-.05.16.1.23.15z"/><path class="st56" d="M27.9 40.43v.15c-.3-.03-.47-.29-.69-.46-.14-.12-.26-.27-.44-.33a1.05 1.05 0 01-.31-.31 6.85 6.85 0 00-1.65-1.43c-.4-.26-.85-.43-1.35-.2-.1.04-.24.11-.34-.04.24-.35.68-.47 1.17-.31l.48.18c.35.12.54.47.87.63.64.57 1.2 1.23 1.9 1.74.15.1.28.22.37.38z"/><path d="M23.51 40.65c-.44-.56-1-1.03-1.15-1.8a.99.99 0 01.3-.94l.4-.44h.15c.07-.05.14-.04.22-.02.06.1-.03.12-.1.15-.23.1-.4.3-.55.5-.24.3-.3.65-.12 1.02.2.4.46.76.74 1.1.1.12.23.23.2.42-.02.03-.05.04-.09.01z" fill="#d39932"/><path class="st37" d="M23.44 37.47h-.23c.7-.32 1.32-.12 1.87.34.2.15.43.27.56.5-.36-.06-.5-.45-.84-.54a1.63 1.63 0 00-1.15-.26c-.07 0-.15.02-.21-.04z"/><path class="st23" d="M48.52 50.65c-.5.37-1 .75-1.52 1.1-.4.26-.8.6-1.29.72-.03-.19.13-.22.24-.3.63-.44 1.32-.79 1.88-1.32a.47.47 0 01.12-.1.77.77 0 00.37-.34 9.33 9.33 0 001.78-2.1c.53-.94 1.03-1.9 1.33-2.94.05-.16.02-.38.27-.4.03.66-.27 1.24-.52 1.8-.39.89-.83 1.77-1.46 2.53-.39.47-.84.87-1.2 1.35z"/><path class="st22" d="M37.38 26.33c.38.7.9 1.3 1.4 1.9.14.16.32.3.34.53a.12.12 0 01-.1.02c-.46-.3-.7-.8-1.06-1.2-.08-.1-.15-.2-.25-.27a38.72 38.72 0 00-2.47-3.15c-.12-.22-.28-.4-.41-.61-.29-.5-.71-.88-1.05-1.33-.13-.18-.26-.34-.33-.55-.02-.09-.06-.17-.01-.26h.08c.91 1.1 1.73 2.3 2.65 3.4.4.5.79 1.03 1.2 1.52z"/><path d="M33.82 38.3h.15c0 .18-.14.16-.24.17-.38.05-.71-.05-1-.32l-.6-.61c-.36-.53-.9-.9-1.28-1.43-.06-.09-.15-.16-.2-.27-.2-.36-.52-.6-.81-.87a.92.92 0 01-.32-.33c-.04-.11-.1-.2-.18-.3a.27.27 0 01-.04-.09c0-.05.01-.1.06-.13.27.1.42.34.6.55.2.31.54.52.75.83.72.8 1.44 1.6 2.14 2.41.26.3.58.43.97.4z" fill="#deac42"/><path class="st7" d="M29.95 34.67l-.6-.53c-.14-.02-.22-.12-.3-.22-.3-.39-.66-.72-1-1.07-.1-.1-.25-.2-.14-.38.74.61 1.32 1.39 2 2.06.03.03.03.1.04.14zM30.71 35.5c-.28-.25-.6-.46-.76-.83.28.25.61.46.76.83z"/><path class="st59" d="M51.24 35.35v.15c.1.3-.03.61.08.91v.15c.1.2-.03.42.08.6v.08c.1.17-.03.37.07.53.1.14-.02.32.08.46.18.6.25 1.23.29 1.85.03.61.12 1.23.08 1.84-.09 1.6-.23 3.2-.93 4.69-.17.37-.3.8-.6 1.1-.09 0-.1-.06-.12-.12 0-.31.17-.56.3-.82a.9.9 0 00.13-.38c.07-.34.22-.65.34-.98.1-.26.18-.51.2-.78.12-.48.24-.95.32-1.42.05-.14.03-.27.04-.41 0-.32-.03-.65.02-.97a.83.83 0 000-.56c.04-1.51-.4-2.96-.53-4.45-.07-.75-.13-1.5-.1-2.26.02-.62-.02-1.23.01-1.85.09-.22.05-.46.1-.69a.2.2 0 01.08-.1c.05 0 .08.01.1.06v.27c-.09.9-.08 1.82-.07 2.73 0 .13-.04.25.03.37z"/><path class="st60" d="M50.34 47.7c.54-.95.97-1.94 1.2-3.02.26-1.18.33-2.38.3-3.58a19.9 19.9 0 00-.3-2.87h.08c.15.77.28 1.55.3 2.34.03.75.13 1.49.01 2.24-.1.72-.16 1.44-.23 2.16-.26.44-.32.94-.52 1.4a12 12 0 01-1.81 3.13c-.3.36-.64.7-1 1-.15.09-.24.22-.38.3l-.08.08c-.05.04-.1.05-.15.02-.04-.25.16-.35.3-.47a8.48 8.48 0 001.71-1.94c.19-.26.4-.51.57-.79z"/><path d="M51.25 32.17v-.23c-.09-.1-.08-.2-.07-.32.13-.92.38-1.81.67-2.69.15-.38.31-.76.4-1.17a1.18 1.18 0 00-.8-1.4c-.82-.3-1.55-.06-2.26.32-.22.16-.45.28-.67.43-.1.06-.18.15-.3.06v-.08c.38-.34.83-.59 1.28-.83.9-.35 1.76-.43 2.6.16.5.35.65.87.42 1.44-.06.15-.06.3-.06.44a3.8 3.8 0 00-.69 1.82 7.87 7.87 0 00-.45 2.05c-.02.03-.05.03-.07 0z" fill="#d49425"/><path class="st60" d="M51.25 32.17h.07c-.06 1.06-.1 2.12-.08 3.18-.12-.11-.07-.26-.07-.4 0-.92-.03-1.85.08-2.78zM51.32 36.41c-.16-.3-.04-.6-.07-.9.15.28.03.6.07.9zM51.4 37.17c-.15-.19-.05-.4-.08-.6.15.18.04.4.08.6zM51.47 37.77c-.14-.16-.04-.35-.07-.53.14.16.04.36.07.53z"/><path class="st60" d="M51.55 38.23c-.14-.13-.05-.3-.08-.46.14.14.05.3.08.46z"/><path class="st29" d="M47.76 50.88h.15c-.43.46-.98.76-1.5 1.1-.24.15-.5.28-.7.5-.14.06-.3.1-.45.14-.66.24-1.28.57-1.96.76-1.2.34-2.4.48-3.63.33-.5-.07-1-.12-1.46-.33v-.07c.12-.12.26-.08.4-.04a7.27 7.27 0 003.4.16c.94-.18 1.84-.5 2.75-.87 1-.4 1.8-1.1 2.73-1.6.08-.04.16-.12.27-.08z"/><path class="st23" d="M45.26 52.62a.72.72 0 01.45-.15c-.1.12-.25.15-.37.23l-.08-.08z"/><path d="M29.88 46.8c-.31-.1-.47-.42-.76-.54-.24-.36-.62-.57-.92-.87-.47-.47-1-.88-1.43-1.4.04-.05.1-.06.15-.06.32.12.53.38.76.6.6.57 1.23 1.13 1.86 1.68.14.22.45.3.49.6-.06.03-.1.02-.15-.02z" fill="#daa136"/><path class="st63" d="M26.92 43.99h-.15a.23.23 0 01-.23-.15c-.4-.47-.82-.9-1.28-1.3l-.08-.07c-.23-.31-.53-.55-.8-.83-.11-.13-.27-.25-.25-.46.15-.08.24.02.33.1.25.26.52.48.73.77.15.21.35.36.54.52.43.36.78.8 1.14 1.21.05.06.1.12.05.2z"/><path class="st64" d="M25.26 42.55c.52.33.95.76 1.28 1.29-.45-.4-.88-.83-1.28-1.3zM24.12 41.18c.2.37.53.63.81.93.1.1.25.19.25.36-.44-.4-.89-.78-1.21-1.29l.03-.03h.09l.03.03zM23.51 40.65h.08c.3.06.38.26.38.53h-.15c-.05-.2-.28-.3-.3-.53z"/><path class="st65" d="M27.9 32.47c.01.16.14.24.23.34a13 13 0 011.22 1.33v.15c-.19.04-.27-.1-.37-.21-.87-.92-1.74-1.84-2.58-2.79-.18-.2-.39-.4-.58-.59-.5-.5-.93-1.08-1.6-1.38-.73-.51-1.4-.5-2.11 0l-.2.13c-.44.3-.37.74-.3 1.18a1.3 1.3 0 00.22.54c.05.1.1.21.17.31l.04.1c.01.05 0 .1-.04.13l-.23-.15c-.1-.32-.33-.57-.4-.92a1.6 1.6 0 011.48-1.97c.87-.06 1.52.32 2.15.84.53.44.92 1.03 1.47 1.45.48.5.89 1.07 1.44 1.51z"/><path d="M41.1 31.26c.18.06.2.3.37.38.38.58.82 1.1 1.32 1.6.96.93 2 .83 2.99.1.14-.1.26-.22.39-.34.66-.57.77-1.36.83-2.16v-.5a2.8 2.8 0 010-.98c.05-.35.09-.72.38-.98.12.24-.06.44-.1.67-.18.5-.07 1.01-.1 1.52v.63c-.02.31-.13.6-.15.91a1.13 1.13 0 01-.13.5.94.94 0 01-.26.29c-.46.38-.87.83-1.44 1.07-.09.04-.17.08-.27.1-.35.03-.7.02-1.05 0-.48 0-.84-.3-1.19-.6-.33-.27-.6-.63-.87-.98-.12-.15-.2-.34-.4-.43a.2.2 0 01-.07-.08c-.02-.16-.11-.27-.19-.4-.06-.1-.17-.19-.07-.32z" fill="#d89a31"/><path class="st67" d="M47.23 28.99l.15-.61c.19-.47.51-.84.83-1.21l.91-.53c.2-.13.43-.2.66-.26.08 0 .14.04.2.1 0 .04 0 .07-.02.1-.53.25-1.1.43-1.54.86-.43.36-.78.78-.96 1.33-.03.1-.07.19-.18.23l-.05-.01z"/><path d="M47 29.36v.99a1.36 1.36 0 010-.99z" fill="#d09334"/><path class="st56" d="M33.44 21.4l.08.24c-.19.04-.27-.11-.38-.2a7.25 7.25 0 00-.86-.69c-.47-.32-1-.39-1.55-.24-.66.28-.95.86-.8 1.6.02.12.09.23.02.36l.69 1.21-.23-.15c-.2-.52-.56-.97-.72-1.53-.3-1.08 1-2.1 1.87-1.84.76.22 1.37.66 1.88 1.25z"/><path d="M36.47 52.47c-.5-.28-.94-.64-1.37-1.02-.31-.28-.6-.6-.98-.8-.42-.25-.6-.77-1.06-.98l-.3-.38c.04-.04.1-.05.15-.04.36.18.63.47.93.73.23.2.42.46.69.63.6.6 1.3 1.08 1.92 1.66.03.06.06.13.02.2z" fill="#d69a2f"/><path d="M41.1 31.26c0 .27.37.37.3.68-.21.03-.25-.16-.35-.27-.11-.12-.19-.26-.32-.36-.5-.75-1.06-1.48-1.67-2.16a.34.34 0 01-.08-.24.2.2 0 01.07-.15h.07c.43.56.86 1.1 1.37 1.59.1.37.32.66.6.9z" fill="#deaa41"/><path d="M30.71 32.93c-.12-.3-.4-.46-.6-.7-.96-1.2-1.92-2.4-2.94-3.53-.62-.7-1.11-1.53-1.82-2.16-.08-.07-.17-.15-.17-.28-.04-.05-.04-.1-.02-.16.2-.05.27.1.36.21.85.93 1.57 1.97 2.43 2.88.35.57.84 1.03 1.27 1.54.98 1.17 1.93 2.36 2.97 3.47.03.05.04.1.04.17a.2.2 0 01-.08.15l-1.44-1.6z" fill="#e4b346"/><path class="st72" d="M32.15 34.52v-.16c.13-.05.19.05.26.11.09.08.17.17.24.26.06.1.14.19.22.27.06.06.12.12.16.19.08.14.2.22.34.3.4.47.8.94 1.13 1.45.3.47.23 1.05-.13 1.42-.82.57-1.7.2-2.27-.72 0-.06 0-.12.05-.17l.65.61c.35.32.74.4 1.17.23.4-.19.57-.53.42-.95a1.9 1.9 0 00-.35-.62l-1.89-2.22z"/><path d="M32.9 49.3h-.14c-.93-.88-1.97-1.62-2.88-2.5l.15-.01c.34-.03.5.25.72.43.4.33.81.67 1.2 1.02.19.19.36.4.59.54l.12.1c.09.13.29.2.25.41z" fill="#dd9f31"/><path class="st72" d="M26.77 39.74c.44.06.59.5.94.68.07.03.13.1.2.16.1.15.22.28.38.38.74.6 1.32 1.39 2.12 1.93.22.15.44.3.72.26.15-.01.3-.03.34-.22h.08c.31-.27.3-.73-.04-1.14l-.5-.6c.1-.08.2-.04.28.03.3.3.58.63.65 1.08.12.8-.43 1.24-1.16 1.08a3.8 3.8 0 01-1.45-1.04c-.44-.45-.9-.87-1.38-1.27-.2-.17-.4-.35-.55-.57-.16-.28-.55-.37-.65-.7l.02-.06z"/><path class="st56" d="M28.29 40.96a.45.45 0 01-.38-.38c.15.1.28.22.38.38z"/><path class="st74" d="M36.47 52.47l-.07-.15c.26-.17.42.15.65.14.04 0 .07.02.1.03l.63.3c.13.07.29.08.38.22a.1.1 0 01-.04.1c-.21.12-.37-.05-.55-.1-.15-.04-.26-.15-.42-.16-.16-.05-.3-.15-.45-.23l-.23-.07v-.08z"/><path class="st59" d="M37.15 52.78c.35.02.61.34.99.3.38.03.74.2 1.12.23.13.05.26.05.4.06l.12.03c.8.06 1.6.06 2.39-.13.68-.16 1.37-.3 2.01-.6.16-.08.32-.14.47-.24a.8.8 0 01.27-.12c.38-.07.7-.28 1.02-.49.94-.6 1.85-1.25 2.63-2.06.56-.58 1.02-1.22 1.45-1.9.08-.12.1-.3.32-.31v.15c-.1.52-.52.84-.78 1.26-.48.75-1.17 1.31-1.8 1.92-.84.53-1.6 1.18-2.5 1.58a11.46 11.46 0 01-4.27 1.17c-.85.04-1.64-.12-2.44-.27-.11-.03-.23-.04-.34-.05-.14-.07-.31-.07-.45-.16-.13-.03-.27-.04-.38-.15-.06-.09-.25-.05-.23-.22z"/><path class="st29" d="M37.15 52.78l.23.22c-.25-.08-.5-.16-.68-.38.18-.04.28.15.45.16zM37.76 53.15c.16.01.32.04.45.16-.17 0-.33 0-.45-.16z"/><path class="st49" d="M25.18 26.1v.16c-.27-.36-.63-.65-.83-1.06l.38.3c.3 0 .36.27.49.45.01.06 0 .11-.04.16z"/><path class="st75" d="M36.4 33.99c.23.15.5.04.75.07.02.12-.07.13-.15.16-.14.03-.28.02-.42.02a1.69 1.69 0 01-1.3-.78.6.6 0 00-.24-.32c-.56-.63-1.2-1.18-1.63-1.91a.89.89 0 00-.26-.31c-.4-.35-.72-.78-1.05-1.19-.78-.92-1.54-1.87-2.35-2.75-.27-.3-.47-.63-.74-.91-.06-.07-.1-.15-.06-.24.26-.09.29.15.4.28.99 1.01 1.83 2.15 2.8 3.18 0 .17.15.25.25.36.88.94 1.64 1.97 2.5 2.92.46.5.84 1.1 1.5 1.42z"/><path d="M29.35 26.1l-.38-.3-.05-.02c-.35-.33-.63-.71-.98-1.04-.14-.1-.23-.25-.31-.4a.48.48 0 00-.18-.23 3.68 3.68 0 00-.72-.73c-.16-.1-.3-.24-.4-.4a.48.48 0 00-.3-.22.86.86 0 01-.1-.04c-.46-.22-.91-.32-1.4-.03-.4.24-.57.55-.5 1.05.13.62.55 1.07.9 1.56.1.13.2.25.28.4.02.03.03.07.03.1 0 .06-.01.12-.06.16-.19-.12-.24-.37-.45-.46-.08-.27-.33-.43-.45-.67-.17-.31-.36-.61-.54-.92-.16-.52-.07-.98.35-1.33.43-.35.91-.54 1.47-.33.32.12.64.23.9.45.55.45.9 1.07 1.45 1.51.31.56.75 1.01 1.2 1.46.11.12.27.23.24.44z" fill="#eec14f"/><path class="st77" d="M37.76 32.62c-.1-.05-.07-.14-.08-.22-.17-.39-.43-.71-.7-1.02a11.6 11.6 0 01-.67-.86l-.14-.22c-.16-.34-.44-.6-.7-.86a.67.67 0 01-.05-.09c-.2-.26-.36-.54-.62-.76-.51-.45-.87-1.03-1.3-1.56-.38-.48-.76-.96-1.12-1.46-.54-.76-1.17-1.47-1.65-2.28a.9.9 0 01-.12-.35c-.12-.33-.26-.64-.24-1 .04-.71.26-.98.96-1.06.26-.02.5.03.74.1.13.03.23.1.25.25-.02.06-.08.09-.14.1-.3.05-.59-.1-.9 0-.3.08-.45.24-.48.57-.04.52.15.96.42 1.38.26.4.55.78.88 1.12.26.52.66.93 1 1.37l2.32 2.99 2.06 2.65c.42.53.68 1.15.6 1.86-.03.21-.03.46-.34.48a.22.22 0 01.02-.22c.08-.3.12-.6 0-.9zM26.4 22.92c.1.16.22.29.37.38.2.29.5.48.68.76.1.06.17.14.23.23.1.12.15.3.3.38.28.42.67.75.99 1.13.2.4.5.72.78 1.04.84.94 1.66 1.9 2.45 2.9.31.4.67.76 1.01 1.14l.23.3c.5.68 1.1 1.28 1.67 1.9.06.1.15.2.22.3.3.42.69.7 1.22.76.15.06.3.06.45 0 .06 0 .12-.02.15-.08h.15c.05-.04.1-.05.16-.01.03.21-.14.25-.28.28-.32.08-.66.11-.97-.03-.43-.2-.87-.4-1.16-.8-.36-.5-.85-.87-1.2-1.35-.51-.68-1.11-1.27-1.63-1.94-.33-.43-.71-.8-1.05-1.23-.43-.54-.86-1.08-1.34-1.58-.56-.6-1.03-1.27-1.58-1.86a8 8 0 00-1.37-1.61c-.1-.1-.2-.18-.25-.32-.03-.1-.06-.19-.15-.25a.56.56 0 01-.07-.06.42.42 0 00-.22-.16.5.5 0 01-.08-.05.77.77 0 00-.4-.19.66.66 0 01-.1-.04c-.2-.15-.5.06-.67-.21.17-.22.4-.08.6-.1.17 0 .32.1.47.15.13.08.27.13.38.22z"/><path class="st78" d="M36.24 30.27a2014.32 2014.32 0 00.08.3c-.33-.37-.66-.73-.97-1.12-.12-.14-.23-.29-.4-.39-.38-.21-.54-.64-.84-.94a2.08 2.08 0 01-.55-.8c-.15-.38-.46-.65-.7-.96-.7-.87-1.3-1.8-2.01-2.64-.07-.08-.08-.18-.14-.26-.06-.04-.07-.1-.07-.16-.24-.4-.53-.8-.62-1.27-.12-.61.18-1.04.62-1.4a.5.5 0 01.11-.06c.37-.15.75-.09 1.13 0 .74.31 1.35.78 1.76 1.5 0 .03-.01.07-.03.1-.22.05-.3-.14-.42-.24a2.83 2.83 0 00-1.5-1.07c-.74-.19-1.43.36-1.34 1.17.04.36.23.65.36.97.2.56.6.98.95 1.44.65.87 1.28 1.76 1.96 2.6.4.5.73 1.08 1.26 1.5.17.3.4.55.6.82.26.3.53.6.76.91z"/><path class="st49" d="M33.6 27.32l1.36 1.74c.01.15.07.27.17.37.65.63 1.1 1.42 1.68 2.11.28.34.59.65.72 1.08h-.07l-2.22-2.88c-.53-.7-1.1-1.35-1.62-2.07-.05-.08-.07-.18-.1-.27v-.08c.02-.04.05-.04.07 0z"/><path class="st79" d="M36.32 30.58v-.08c.46.53.93 1.05 1.3 1.64.05.07.04.17.06.26-.44-.62-.98-1.16-1.36-1.82zM37.46 34.06h-.16l.46-.53v.23c.06.26-.04.37-.3.3zM37.76 32.62c.23.3.16.6 0 .91v-.9z"/><path class="st72" d="M26.47 22.7l-.73-.3c-1.06-.44-2 .18-2 1.32v.19h-.07v-.15a.62.62 0 010-.46l.07-.53a.78.78 0 00.3-.3c.25-.12.47-.31.76-.3.2-.06.4-.06.6 0 .41.07.8.19 1.07.53z"/><path class="st48" d="M25.4 22.17h-.6c.2-.12.4-.12.6 0zM23.67 23.3v.46c-.12-.15-.12-.3 0-.46z"/><path d="M24.04 34.06l-.22-.3c-.08-.06-.15-.12-.1-.23.2-.06.28.1.38.2.5.48.95 1 1.44 1.49.82.82 1.57 1.72 2.41 2.53.38.5.88.9 1.3 1.36.15.16.35.3.33.56l-.23-.08c-.06-.07-.1-.14-.17-.2-.82-.85-1.66-1.67-2.45-2.55-.5-.54-.92-1.15-1.55-1.57-.38-.4-.7-.85-1.14-1.2z" fill="#e8b849"/><path class="st78" d="M29.58 39.67c-.38-.6-.96-1.02-1.42-1.54-.1-.1-.25-.18-.25-.36a.16.16 0 01.1-.04c.15.03.23.14.33.24l2.43 2.43c.29.43.71.74 1.02 1.15.1.16.2.32.24.5.04.22.08.42.07.64a.9.9 0 01-1.4.68l.01-.06h.15c.38.03.76-.01.92-.42.17-.4.09-.81-.19-1.16-.16-.2-.26-.49-.57-.55L29.93 40c-.11-.12-.2-.25-.35-.33z"/><path d="M23.74 33.53l.08.23h-.08c-.27-.18-.38-.53-.68-.68-.23-.42-.7-.65-.9-1.09l-.09-.2c.08-.04.14 0 .2.04.48.51.96 1.02 1.4 1.56.04.04.07.09.07.14z" fill="#e3b144"/><path class="st82" d="M22.23 31.86l-.16-.07-.07-.08v-.15c.21 0 .3.09.23.3z"/><path class="st51" d="M24.05 34.06c.2.02.33.19.42.33.21.32.57.51.71.88-.44-.34-.8-.77-1.13-1.2z"/><path class="st83" d="M33.6 27.32h-.05-.03l-2.6-3.4c-.12-.14-.22-.27-.2-.46.97 1.12 1.75 2.39 2.72 3.52.08.1.14.2.15.34z"/><path class="st84" d="M30.71 20.65c-.05.07-.1.15-.16.2-.67.52-.48 1.27-.21 1.8.1.22.25.41.3.65-.33-.19-.33-.6-.6-.83-.22-.38-.19-.79-.12-1.2.14-.17.26-.36.44-.5.1-.1.2-.22.35-.12z"/><path class="st65" d="M30.03 21.26c-.17.4-.06.8 0 1.21h-.08c-.37-.94-.06-1.77.76-2.05.04.12-.05.14-.12.2-.22.18-.46.35-.56.64z"/><path d="M26.92 43.99c-.47-.54-.92-1.09-1.48-1.55-.37-.3-.66-.69-.98-1.03-.1-.1-.18-.23-.34-.23-.48-.66-1.07-1.25-1.44-1.99a.8.8 0 01-.1-.28c-.05-.46.15-.79.5-1.05l.06-.01c.81-.38 1.49-.11 2.14.42.45.36.9.71 1.27 1.17a.14.14 0 01-.1.04c-.35-.13-.53-.47-.83-.67-.2-.14-.39-.31-.58-.47a2.6 2.6 0 00-.73-.39 1 1 0 00-1.18.34c-.23.33-.18.7.04 1.03.42.62.78 1.29 1.35 1.8.5.56 1.03 1.1 1.57 1.64 1.07 1.06 2.14 2.13 3.3 3.1.13.1.32.2.26.42-.05.03-.1.02-.15-.02-.54-.4-1.03-.87-1.52-1.33-.34-.32-.7-.63-1.06-.94z" fill="#e4b141"/><path class="st63" d="M22.68 38.91c.1.61.58 1 .9 1.48.19.26.4.5.54.8h-.15c-.1-.2-.2-.4-.38-.54-.26-.44-.65-.8-.9-1.25-.42-.82-.21-1.43.62-1.85l.13-.08c.35-.06.7-.05 1.04.08.12.05.26.08.32.22-.34-.06-.64-.28-1.01-.23-.26.03-.49.1-.65.31-.35.27-.62.57-.46 1.06z"/><path class="st72" d="M26.47 39.44h.08l.22.3c-.26.07-.36-.03-.3-.3z"/><path class="st29" d="M47.99 50.8c.1-.14.18-.28.38-.3-.1.14-.2.29-.38.3z"/><path class="st83" d="M39.05 28.91c.19.4.54.67.8 1.01.33.44.63.9.94 1.34.11.2.33.34.32.6-.07.05-.14.01-.2-.03-.37-.36-.55-.86-.9-1.24-.17-.18-.3-.4-.47-.59-.12-.21-.33-.36-.47-.56-.31-.55-.78-.98-1.15-1.48-.47-.65-.96-1.28-1.46-1.9-.1-.14-.24-.28-.16-.48.13-.06.17.05.23.13.4.47.75.99 1.15 1.46l.08.07c.32.45.64.9 1.03 1.3.1.1.17.24.26.37z"/><path d="M30.03 21.26c0-.33.29-.44.47-.64.06-.07.17-.1.21-.2.76-.23 1.4.03 1.98.5l.83.72c.25.53.7.93 1.05 1.39.12.16.27.3.31.5l-.05.02c-.06 0-.13-.03-.16-.08-.34-.48-.78-.87-1.08-1.38-.4-.65-.99-1.1-1.67-1.44-.4-.12-.8-.2-1.2 0-.33.1-.47.4-.69.6z" fill="#e8b94a"/><path class="st87" d="M37.68 27.17c-.52-.38-.78-.98-1.2-1.44l-.16-.15c-.07.02-.1-.02-.14-.06-.27-.48-.7-.84-.94-1.33l.02-.05c.38.12.5.49.73.76l1.58 2.04c.06.07.11.13.11.23z"/><path d="M39.05 28.91c-.48-.52-.99-1.01-1.3-1.67l1.3 1.52v.15z" fill="#e3b245"/><path class="st87" d="M34.88 23.53c.17.18.38.33.38.6-.32-.08-.44-.28-.38-.6z"/><path class="st84" d="M32.15 37.47v.15c-.12.05-.19-.04-.25-.11-.44-.57-.98-1.05-1.44-1.6-.5-.6-1.08-1.13-1.6-1.72-.95-1.07-1.96-2.1-2.93-3.16a.43.43 0 01-.12-.23c0-.05 0-.1.05-.15.58.46.99 1.07 1.51 1.58.69.66 1.24 1.45 1.98 2.06l.23.3c.07.13.17.23.3.3.24.34.6.58.83.91.37.48.79.92 1.22 1.34.1.1.22.17.22.33z"/><path class="st65" d="M30.71 35.8c-.3-.28-.66-.5-.83-.9.3.28.66.5.83.9zM29.58 34.6c-.13-.07-.23-.16-.23-.31.12.07.22.15.23.3z"/><path class="st89" d="M51.62 43.23c-.03.47-.16.92-.3 1.36a.1.1 0 01-.11-.05c-.08-.15-.03-.3 0-.44.15-.62.23-1.25.23-1.9 0-.38-.02-.77.07-1.16a.75.75 0 00-.05-.4c-.15-1.21-.32-2.42-.48-3.62-.18-1.43-.13-2.87-.15-4.3a.44.44 0 01-.02-.13c.01-.1.04-.2.07-.3.06-.48.04-.96.22-1.4.07-.09.1-.21.24-.14 0 .4-.12.8-.17 1.2-.1.2.02.45-.08.67V35c0 1.3.18 2.6.41 3.87.14.82.25 1.64.2 2.47.06.15.06.3 0 .45v1.06c-.1.11.01.27-.08.38z"/><path class="st74" d="M50.34 47.55c-.37.58-.74 1.15-1.18 1.68-.59.7-1.25 1.32-2 1.85-.63.45-1.26.9-1.95 1.26a.52.52 0 01-.25.06c.03-.26.28-.28.44-.4.8-.6 1.72-1.04 2.42-1.76.08-.1.17-.2.27-.27.5-.41.95-.88 1.26-1.46.07-.18.18-.34.33-.46a.45.45 0 00.2-.32.5.5 0 01.1-.18c.25-.23.3-.57.48-.84.08-.13.11-.32.33-.3.05.33-.27.5-.32.8-.03.11-.09.22-.13.34z"/><path class="st90" d="M50.79 46.41c-.2.14-.3.37-.37.59-.1.23-.21.44-.39.62-.12-.14-.02-.27.04-.4.08-.18.18-.35.18-.55a.44.44 0 01.07-.2c.13-.14.2-.32.26-.5a.52.52 0 01.05-.08c.23-.4.36-.85.57-1.26l.04-.04h.08c.05.5-.23.89-.36 1.33l-.17.5z"/><path class="st91" d="M51.17 31.94c-.07-.42.11-.8.15-1.21-.08-.09-.05-.19-.03-.28.12-.47.22-.94.4-1.39.06-.07.1-.18.24-.15-.17.76-.46 1.48-.56 2.25l-.13.78h-.07z"/><path class="st91" d="M51.1 32.62c.03-.22-.08-.47.07-.68-.03.23.07.47-.08.68zM51.7 41.79v-.45c.11.15.11.3 0 .45zM51.62 43.23c.02-.13-.05-.27.08-.38-.02.13.05.27-.08.38z"/><path d="M51.93 28.91l-.15.15c-.14-.15-.08-.31-.01-.46.17-.39.2-.79.18-1.2-.02-.41-.25-.77-.64-.9-.36-.11-.72-.2-1.1-.1-.13.05-.27.08-.4.01l-.69.23c.86-.6 2.17-.76 2.9-.02.42.43.5 1.06.15 1.75-.09.18-.05.41-.24.54z" fill="#dd9f28"/><path d="M29.5 46.26h.15c.06 0 .1.03.15.06 1.38 1.04 2.76 2.07 3.98 3.3.14.2.41.3.43.58a.17.17 0 01-.1.04c-.42-.32-.8-.7-1.2-1.06-.1-.09-.18-.2-.3-.27l-.08-.07c-.23-.15-.37-.4-.6-.53-.52-.43-1.03-.84-1.53-1.28-.12-.1-.26-.14-.37-.24-.19-.17-.4-.3-.53-.53z" fill="#e7ab37"/><path d="M22.23 31.86c0-.15-.1-.23-.23-.3-.1-.12-.13-.26-.23-.38-.32-.62-.43-1.23.08-1.82.34-.17.59-.5 1.02-.5.52-.02 1 .04 1.4.43a.21.21 0 01-.15.07c-.05 0-.1 0-.16-.02l-.5-.21a1.82 1.82 0 00-.79-.02l-.24.1c-.1.06-.18.15-.27.23-.5.52-.43 1.05-.1 1.7.36.7.89 1.27 1.44 1.82.1.15.32.26.17.5-.5-.51-1-1.04-1.44-1.6z" fill="#eabc4b"/><path class="st95" d="M24.12 29.29h.15c.38.1.65.35.91.62.24.24.46.5.68.74v.15c-.33-.02-.44-.3-.63-.5-.14-.14-.23-.33-.44-.39a.42.42 0 01-.17-.1c-.08-.08-.15-.17-.25-.22a1.2 1.2 0 01-.08-.05c-.08-.07-.22-.1-.17-.25z"/><path class="st82" d="M21.85 29.36c-.43.6-.33 1.2-.08 1.82-.45-.51-.4-1.4.08-1.82zM21.77 31.18c.15.08.2.23.23.38-.15-.08-.2-.22-.23-.38z"/><path class="st96" d="M41.1 31.86c-.03-.23-.28-.36-.31-.6.28.16.35.5.6.68v.07c.36.24.54.62.81.93.25.28.48.57.8.77.12.11.26.18.38.28 0 .04 0 .07-.03.1-.19.1-.34 0-.5-.08-.34-.21-.6-.51-.88-.81-.2-.4-.53-.67-.79-1.01a.56.56 0 01-.06-.09c-.03-.07-.08-.15-.03-.24z"/><path class="st97" d="M43.36 34.06V34a1.41 1.41 0 01-.37-.23c-.45-.2-.68-.6-.98-.95-.22-.25-.41-.53-.61-.8.18-.09.23.07.3.17.46.57.87 1.16 1.5 1.56.38.24.75.25 1.15.25h.6c.03.04.02.08-.02.1a.36.36 0 01-.12.06c-.38.03-.77.01-1.15.01a.52.52 0 01-.25-.05l-.05-.05z"/><path class="st96" d="M46.85 32.62l.08-.38c.13-.15.14-.34.15-.53 0-.08 0-.15.03-.22.06-.1.03-.22.06-.33.06-.24.04-.47-.01-.7 0-.37-.05-.73.03-1.1.05-.2.12-.4.3-.54.13.05.12.16.13.27l-.02.12c-.06.19-.14.37-.11.58v.43c.01.63-.01 1.26-.17 1.88-.13.2-.09.51-.42.55-.02 0-.03-.02-.05-.03zM46.62 32.85a.49.49 0 01.23-.23.3.3 0 01.08.27c-.21.4-.51.7-.92.91a.15.15 0 01-.09-.05c.04-.32.4-.41.49-.69.05-.1.13-.15.21-.21z"/><path class="st98" d="M46.47 33.08c-.06.31-.4.42-.53.68-.29.23-.57.47-.98.3V34l.22-.08c.38-.15.72-.35 1-.65.08-.08.13-.22.3-.18z"/><path class="st97" d="M46.47 33.08c-.3.2-.5.52-.83.68-.15.07-.28.17-.46.15.55-.27.94-.74 1.44-1.06l-.15.23z"/><path class="st67" d="M47.08 31.26v-1.72c0-.2.02-.4.15-.55.15.2-.05.38-.04.57.02.37-.02.73.03 1.1.03.18.03.37-.03.56-.02.05-.06.06-.11.04z"/><path class="st97" d="M47.08 31.26h.07c.05.07.06.15 0 .23v.22c-.1.14.03.4-.22.46l.15-.91z"/><path class="st98" d="M46.93 32.17l.22-.46c0 .2.06.45-.22.53v-.07z"/><path d="M51.17 30.88l-.23 1.44c-.11-.1-.1-.25-.1-.38-.04-.4.04-.78.07-1.17 0-.84.18-1.65.4-2.45.1-.44.09-.85-.08-1.26a.55.55 0 00-.35-.29.75.75 0 01-.1-.04c-.24-.21-.57-.02-.82-.17v-.07a1.4 1.4 0 011.66.29c.2.19.24.43.26.68.06.75-.16 1.45-.35 2.15-.11.43-.19.86-.36 1.27z" fill="#e8ab2f"/><path d="M51.17 30.88c.03-.41.14-.81.26-1.2.2-.66.28-1.32.36-2 .1-.91-.85-1.44-1.58-1.24l-.25.05c-.07 0-.12-.02-.15-.08.43-.14.86-.19 1.32-.08.6.15.85.56.93 1.17.07.58-.28 1.03-.28 1.56l-.46 1.67-.15.15z" fill="#e2a52c"/><path d="M47.15 31.49v-.23c.02-.76-.05-1.52.08-2.27.09-.07.12-.16.15-.26.18-.55.52-1 .99-1.34l.04.1c-.1.3-.4.44-.53.71-.06.12-.16.23-.2.36-.04.1-.06.2-.15.27-.38.5-.3 1.1-.3 1.67.06.23.06.46 0 .68-.01.1.03.23-.08.3z" fill="#e2ab39"/><path class="st102" d="M48.37 27.47v-.08c.44-.44.97-.7 1.59-.83.3 0 .65-.18.9.15-.16.16-.36.09-.55.1-.34-.01-.64.18-.97.23-.19 0-.31.12-.46.21-.15.1-.29.28-.51.22z"/><path d="M34.12 50.2h.08c.23-.04.31.17.45.28.34.28.66.59.98.88.33.38.76.62 1.18.88.12.07.3.1.27.3-.27.06-.42-.25-.68-.22L35 51.16c-.19-.15-.37-.3-.5-.5-.14-.14-.36-.22-.38-.46z" fill="#e2a836"/><path class="st104" d="M34.12 50.2l.38.45c-.16 0-.24-.12-.33-.22-.39-.42-.83-.77-1.26-1.14l-.3-.38c.37.18.63.5.94.76.2.17.38.35.57.53z"/><path class="st105" d="M32.6 34.74a.48.48 0 01-.22-.22c-.07-.11-.16-.2-.23-.3-.62-.5-1.06-1.14-1.57-1.72a51.96 51.96 0 01-1.86-2.22c-.27-.36-.7-.6-.81-1.07a.16.16 0 01.1-.04c.45.3.77.72 1.1 1.12 1 1.25 2.05 2.44 3.08 3.66.3.38.73.67.92 1.14 0 .04-.01.08-.03.1-.03.03-.06.03-.1 0a.26.26 0 01-.15-.14c-.06-.11-.15-.2-.22-.3z"/><path d="M27.98 29.21h-.07c-.52-.5-1-1.03-1.43-1.62-.38-.53-.82-1.02-1.3-1.48v-.15-.16c.22-.03.3.15.41.27.78.84 1.38 1.82 2.19 2.63.12.13.3.27.2.51z" fill="#eec350"/><path class="st105" d="M32.15 34.21c.12.07.22.15.23.3-.08-.04-.15-.1-.23-.15v-.15z"/><path class="st107" d="M24.8 29.82c.25.05.35.26.5.43.16.2.34.4.56.55.32.36.62.73.96 1.07 1.1 1.1 2.08 2.3 3.17 3.42.41.42.75.9 1.17 1.3.34.34.66.7 1 1.03.39.47.78.94 1.49.92.26 0 .45-.2.7-.24.02.03.03.07.03.1-.1.22-.3.27-.48.34-.62.12-1.12-.13-1.55-.53a13.9 13.9 0 01-1.9-2.13c-.78-.74-1.48-1.55-2.2-2.34-.74-.82-1.52-1.6-2.27-2.42l-.94-1.06c-.06-.16-.28-.23-.24-.44z"/><path class="st75" d="M34.35 38.38v-.08c.38-.4.26-1.13-.06-1.53l-1-1.27c-.09-.1-.26-.12-.23-.3v-.08c.17-.04.26.08.35.18.46.5.92 1 1.27 1.59.22.37.19.77.07 1.17-.05.17-.16.35-.4.32z"/><path class="st105" d="M33.06 35.2l.23.3c-.18-.02-.28-.12-.3-.3h.07zM32.6 34.74c.13.07.23.15.23.3-.12-.06-.22-.14-.22-.3z"/><path class="st104" d="M31.92 48.3c.3.09.43.33.61.54-.29-.08-.43-.33-.6-.53z"/><path class="st78" d="M27.45 40.43c.24.29.52.52.82.76.63.51 1.16 1.15 1.8 1.68.2.16.45.25.64.44-.33.15-.56-.07-.76-.25-.3-.26-.62-.5-.9-.8-.38-.38-.75-.76-1.18-1.1-.14-.14-.3-.29-.43-.44-.08-.09-.2-.16-.14-.31.06-.03.1-.02.15.02z"/><path class="st108" d="M27.45 40.43h-.15c-.23.04-.32-.17-.46-.28-.53-.45-1.07-.9-1.57-1.4-.06-.18-.31-.23-.3-.45.04-.04.1-.04.14 0 .5.32.9.76 1.36 1.14.02.18.12.28.3.3.16.3.5.41.68.69z"/><path class="st90" d="M47.91 50.28c-.2.29-.49.52-.78.67-.68.36-1.2.95-1.9 1.24-.1.05-.19.14-.27.2l-.23.08a10.8 10.8 0 01-3.31.98 6.6 6.6 0 01-1.7 0h-.07c-.11-.09-.26.02-.38-.07-.4-.03-.79-.07-1.13-.3V53c.04-.05.1-.07.16-.07.38.04.73.19 1.1.23.14.04.27.05.4.05h.24c1 .07 2-.08 2.94-.4.65-.22 1.3-.49 1.87-.88l.51-.33c.41-.1.68-.48 1.1-.57.39-.1.7-.38 1.03-.6.12-.1.23-.26.42-.15z"/><path d="M37.08 52.55l-1.2-.83a.93.93 0 01-.32-.3c.29-.11.4.2.63.25.44.43 1.02.6 1.58.82l.7.22c.46.2.96.12 1.44.17.08.01.15 0 .22.05.03.06.02.12-.02.18-.37.28-.75.01-1.12 0-.22 0-.43-.11-.66-.15-.12 0-.24.02-.34-.06a8.56 8.56 0 00-.91-.35z" fill="#e5ad38"/><path class="st110" d="M37.15 52.55c.32 0 .58.13.84.3a.18.18 0 01-.23 0 1.47 1.47 0 01-.6-.3z"/><path class="st111" d="M37.76 52.85h.23c.09.05.19.09.3.08.02.01.03.03.02.05l-.02.02h-.15c-.14-.03-.28-.05-.38-.15z"/><path class="st74" d="M39.73 53.46c1.37.08 2.7-.17 3.98-.61.34-.12.64-.36 1.02-.38-.63.43-1.36.63-2.08.81-.87.22-1.75.3-2.64.25-.1 0-.2.02-.28-.07zM39.27 53.38c.13.02.28-.05.38.08-.12-.02-.27.05-.38-.08z"/><path class="st112" d="M33.44 31.18c-.12-.06-.22-.15-.23-.3.12.07.22.15.23.3zM35.33 33.38c-.12-.07-.22-.15-.22-.3.12.06.22.15.22.3zM37 34.14c-.15.11-.3.11-.45 0H37z"/><path class="st113" d="M27.98 29.21c-.04-.2-.17-.36-.31-.5-.79-.78-1.36-1.73-2.11-2.54-.12-.13-.22-.27-.38-.37v-.07c-.3-.5-.7-.94-.96-1.47-.28-.54-.14-1.19.33-1.5.12-.09.25-.19.4-.06.26.05.56-.14.76.15-.1.12-.25.09-.38.1-.62.04-.98.57-.76 1.13.13.35.32.68.57.96.77.98 1.5 1.98 2.32 2.92.57.65 1.04 1.38 1.71 1.95.12.1.22.24.26.4.11.54.58.8.88 1.2.11.16.28.29.41.44l.06.09c.22.5.73.77 1.02 1.22.08.12.18.22.26.32.08.13.2.24.1.4-.66-.68-1.29-1.4-1.88-2.14-.52-.66-1.07-1.3-1.63-1.91-.22-.24-.38-.54-.67-.72z"/><path d="M24.95 22.7c-.78.18-.92.83-.65 1.49.19.47.46.91.82 1.29.06.07.06.16.06.25a7.76 7.76 0 01-1.13-1.57.68.68 0 01-.08-.4.96.96 0 01.4-1.01c.35-.25.75-.38 1.19-.2v.07c-.2.03-.42-.07-.6.08z" fill="#f2c853"/><path class="st75" d="M25.56 22.62a1.17 1.17 0 00-1.6 1.14c-.18-.37-.02-.68.22-.92.46-.47 1.13-.63 1.83-.14l-.45-.08zM28.97 25.8c-.38-.33-.78-.65-.99-1.13.35.36.74.69.99 1.13zM27.45 24.06c-.25-.23-.55-.41-.68-.76.25.23.56.42.68.76zM26.4 22.92c-.16-.02-.3-.07-.39-.22.19-.02.3.07.38.22zM27.68 24.29a.47.47 0 01-.23-.23c.15 0 .23.08.23.23z"/><path class="st115" d="M29.35 30.35c-.12-.4-.48-.6-.73-.88-.22-.24-.45-.47-.61-.75-.22-.39-.6-.63-.87-.98-.62-.8-1.22-1.64-1.91-2.4-.06-.06-.08-.14-.12-.22-.12-.25-.28-.48-.41-.72-.23-.43-.2-.88.08-1.16.29-.3.67-.32 1.16-.1.35.15.57.43.84.68.54.52 1.05 1.08 1.5 1.68.42.4.76.85 1.1 1.3.22.3.51.54.76.82l1.5 1.77 1.45 1.7c.71.84 1.45 1.66 2.16 2.5.43.52 1.37.84 1.97.64.1-.04.2-.06.24-.17.18-.02.28-.12.3-.3.37-.38.28-.86.17-1.28-.17-.62-.59-1.11-.98-1.62-.78-1.03-1.62-2.02-2.38-3.06-.72-1-1.52-1.93-2.29-2.88-.12-.15-.16-.31-.2-.48-.06-.06-.07-.13-.03-.2.23-.09.25.14.34.24.8 1.03 1.52 2.11 2.4 3.07l.07.09a3 3 0 00.57.83c.37.37.65.8.97 1.2l.07.08c.42.6.86 1.18 1.33 1.74l.05.1c.04.23.17.43.26.63.2.4.23.79.19 1.2l-.04.12c-.21.38-.47.71-.86.94a.42.42 0 01-.1.04 2.62 2.62 0 01-1.96-.45.4.4 0 01-.1-.06c-1.32-1.4-2.5-2.92-3.78-4.35-.26-.29-.47-.62-.75-.9a.75.75 0 01-.06-.08c-.46-.51-.84-1.09-1.37-1.52-.6-.45-1-1.08-1.47-1.62-.5-.56-.97-1.13-1.5-1.65-.17-.17-.4-.27-.62-.37-.19-.09-.36-.08-.52.08-.15.15-.17.31-.11.52.16.51.47.93.81 1.35.74.9 1.45 1.81 2.2 2.69.82.95 1.61 1.9 2.4 2.87.61.74 1.33 1.39 1.85 2.2.06.1.13.18.22.26.7.65 1.21 1.47 1.9 2.15.24.24.4.54.57.84.36.7.23 1.37-.08 2.03-.29.61-1.32.93-2 .62a5.65 5.65 0 01-2.26-1.9 7.3 7.3 0 00-.74-.85c-1.37-1.38-2.61-2.87-3.97-4.26-.53-.54-.96-1.17-1.58-1.63a2.84 2.84 0 00-.7-.37c-.27-.1-.52-.06-.72.16-.2.22-.19.46-.07.7.28.6.73 1.06 1.15 1.55.87 1.03 1.9 1.92 2.78 2.94 1.48 1.7 3.12 3.23 4.65 4.87.45.48.88.99.98 1.68l-.06.54a.16.16 0 01-.16.01.37.37 0 01-.13-.18l-.1-.47c0-.16-.03-.33-.17-.45a2.26 2.26 0 00-.63-.68c-.24-.21-.41-.49-.67-.68a7.25 7.25 0 00-1.18-1.2.43.43 0 01-.06-.1.84.84 0 00-.29-.38c-.5-.4-.95-.85-1.35-1.35-.05-.06-.11-.1-.17-.14a.58.58 0 01-.08-.06c-.22-.27-.42-.54-.68-.76a.52.52 0 01-.07-.08 1.29 1.29 0 00-.26-.3c-.85-.9-1.73-1.75-2.56-2.66-.22-.37-.52-.68-.81-1-.27-.28-.5-.6-.66-.95-.35-.72-.08-1.58.93-1.56.77.02 1.36.4 1.87.92.64.66 1.2 1.4 1.86 2.03l.09.07c.1.11.21.22.34.32.64.8 1.39 1.53 2.05 2.32.3.36.7.63.97 1 .4.56.91.98 1.34 1.5.4.47.88.86 1.5 1 .2.05.4.09.6 0 .94-.24 1.11-1.22.7-1.96-.45-.83-1.2-1.42-1.72-2.18-.24-.35-.63-.58-.83-.97-.29-.5-.74-.85-1.12-1.27-.09-.1-.18-.2-.23-.33-.33-.46-.75-.83-1.1-1.27-.1-.12-.21-.24-.26-.4z"/><path d="M32.08 24.21v.23c-.52-.36-.8-.9-1.12-1.42-.18-.29-.27-.6-.26-.96.03-.7.38-1 1.08-.86.13.03.25.06.37.06.73.31 1.17.94 1.63 1.54.98 1.24 1.92 2.52 2.9 3.76.77.97 1.5 1.96 2.26 2.93.07.16.29.26.2.49-.25.06-.34-.14-.45-.28-.48-.6-.96-1.2-1.42-1.82-.85-1.15-1.75-2.28-2.62-3.42-.6-.78-1.19-1.57-1.85-2.3-.28-.3-.6-.53-1-.65-.5-.15-.88.18-.82.7.05.49.34.86.6 1.25.15.26.37.48.5.75z" fill="#f9d159"/><path class="st113" d="M38.9 29.52c-.5-.54-.92-1.15-1.37-1.73-.78-1.03-1.61-2.01-2.37-3.05a65.6 65.6 0 00-1.35-1.76c-.44-.57-.85-1.2-1.51-1.55-.06-.03-.1-.11-.15-.17h.15c.44 0 .67.31.91.6 1.04 1.15 1.93 2.42 2.87 3.65.64.84 1.32 1.67 1.93 2.54.35.5.8.93 1.13 1.46.03.05.03.1 0 .15-.15.07-.17-.08-.24-.14z"/><path class="st117" d="M33.21 21.86c-.28-.23-.55-.47-.9-.6-.45-.43-1.47-.39-1.71.1-.2.41-.22.87.03 1.29.07.11.08.23.08.35-.19-.2-.32-.44-.4-.71-.16-.55-.04-1.03.45-1.39.37-.27.83-.25 1.21-.05.4.2.8.41 1.1.76.07.07.14.14.14.25z"/><path class="st77" d="M36.24 30.27c-.29-.26-.57-.55-.75-.9.32.24.6.52.75.9zM35.49 29.36c-.29-.21-.5-.48-.61-.83.23.26.47.5.6.83z"/><path d="M28.29 25.5c-.58-.59-1.17-1.17-1.73-1.78a2.4 2.4 0 00-.78-.56c-.38-.18-.73-.1-.96.17-.2.24-.23.68-.08 1 .13.26.4.46.37.8-.34-.4-.66-.8-.68-1.33-.03-.6.34-.95.94-.95h.34c.15.09.32.12.46.23.1.07.22.12.3.22.1.06.15.16.23.23.16.4.57.56.81.9.26.35.6.65.78 1.07z" fill="#f8d058"/><path class="st113" d="M26.17 23.08c-.2 0-.36-.06-.46-.23.2-.02.37.03.46.23zM26.47 23.3c-.15 0-.24-.1-.3-.22.16-.01.29.03.3.22zM26.7 23.53c-.15 0-.18-.13-.23-.23.14.01.22.09.23.23z"/><path class="st117" d="M39.12 29.52c-.48-.6-1.01-1.17-1.45-1.8-.3-.46-.68-.88-1.01-1.31-.56-.73-1.1-1.47-1.67-2.18-.41-.52-.77-1.08-1.23-1.57-.22-.23-.41-.5-.55-.8l.38.3c.46.42.83.91 1.17 1.41.46.67 1 1.27 1.48 1.93l.08.08c.17.56.64.92.97 1.37.54.74 1.13 1.45 1.7 2.18.07.09.13.2.13.31.03.02.03.03.03.05l-.03.03z"/><path class="st83" d="M36.24 25.5c-.24-.13-.37-.37-.53-.57l-2.12-2.76v-.08c.38.33.68.73.98 1.13.09.12.17.24.3.31.06.25.2.44.39.6.31.47.74.85.98 1.37z"/><path class="st84" d="M30.71 20.65c.4-.29.81-.19 1.21 0-.4-.06-.8-.12-1.2 0z"/><path d="M23.67 33.46c.04-.21-.16-.3-.23-.46a.16.16 0 01.1-.04c.11.02.19.1.26.18.35.53.9.88 1.31 1.35.86.96 1.74 1.9 2.65 2.83.12.12.34.21.22.45h-.07c-.72-.6-1.3-1.33-1.95-2-.74-.74-1.4-1.56-2.22-2.24l-.07-.07z" fill="#efc450"/><path class="st113" d="M27.98 37.77c0-.03 0-.08-.02-.1-.67-.73-1.34-1.46-2.03-2.16-.26-.27-.56-.5-.78-.82-.3-.44-.74-.74-1.1-1.11a1.3 1.3 0 01-.3-.43c-.03-.02-.04-.04-.03-.06 0-.02.01-.03.02-.03.06-.03.1-.03.15.02.9.84 1.75 1.74 2.58 2.65.06.1.12.22.23.3.26.27.47.59.75.84.42.36.72.83 1.14 1.2.27.23.58.43.76.77.36.4.77.74 1.14 1.13l.07.08c.1.1.24.2.15.38l-2.36-2.33-.37-.33z"/><path class="st120" d="M27.9 41.1c.74.51 1.27 1.23 1.96 1.78.26.2.5.4.85.43.35.22.7.17 1-.08.31-.24.34-.6.26-.96l-.05-.25c.19 0 .17.14.19.25a.9.9 0 00.1.34c.05.58-.16.86-.7.98a1.88 1.88 0 01-1.53-.34c-.41-.29-.8-.61-1.14-.98-.25-.28-.62-.44-.81-.78-.06-.1-.18-.19-.15-.33 0-.02.02-.04.03-.05z"/><path class="st121" d="M32.15 42.62c-.15-.17 0-.46-.23-.6-.13-.5-.56-.78-.88-1.14-.12-.15-.26-.27-.33-.45l-.15-.38c.28.17.46.44.68.68.17.26.43.43.6.68.11.14.15.31.24.46.04.17.1.34.07.53.05.07.06.15 0 .22z"/><path d="M29.73 46.34l-.08-.08c-.3-.42-.76-.65-1.11-1l-3.24-3.17c-.29-.28-.54-.6-.8-.9a.19.19 0 01.1-.06c.18-.01.28.13.39.25.39.44.75.91 1.25 1.24.23.16.37.41.55.62.34.36.72.67 1.08 1 .5.54 1.05 1.04 1.6 1.52.1.1.22.18.32.27.1.09.24.16.15.33-.08.04-.15.03-.21-.02z" fill="#ebba44"/><path d="M24.58 41.18h-.08c-.3-.08-.4-.36-.57-.56-.3-.38-.54-.82-.82-1.22-.26-.37-.33-.78-.09-1.15.32-.47.9-.58 1.42-.35.23.11.5.17.67.4H24.9c-.27-.07-.53-.2-.82-.23-.32-.02-.59.16-.7.48-.12.68.27 1.17.59 1.7.12.2.29.37.45.54.1.1.22.22.16.4z" fill="#ebbb46"/><path class="st56" d="M22.68 38.91c-.18-.49-.03-.84.46-1.06-.24.32-.56.6-.46 1.06z"/><path class="st124" d="M39.58 29.97c.46.42.79.93 1.11 1.45.08.12.2.23.25.37l.23.3c.05.12.16.22.1.36-.24.11-.28-.17-.44-.22-.14-.1-.2-.26-.27-.4a3.45 3.45 0 00-.85-1.34.75.75 0 01-.19-.32.26.26 0 01.02-.16l.04-.04z"/><path class="st124" d="M39.12 29.52v-.08c.19.15.4.27.46.53-.12.06-.18-.04-.27-.08-.08-.06-.17-.11-.19-.22v-.15z"/><path class="st125" d="M41.17 32.1c-.12-.07-.22-.16-.23-.31l.15.08.08.22z"/><path d="M46.47 51.1c-.26.08-.46.26-.67.41a.59.59 0 01-.39.13c-.04-.23.2-.27.27-.43.35-.3.67-.6 1.07-.83.58-.33.98-.86 1.44-1.32.79-.76 1.25-1.72 1.77-2.65.12-.21.24-.42.29-.66.05-.44.35-.76.5-1.16.3-.76.49-1.54.48-2.37.14-.4.08-.85.2-1.26.03-.1.02-.22.12-.3.1.07.08.18.07.27-.14.97 0 1.96-.23 2.93-.05.24-.16.48-.15.73-.2.46-.42.9-.6 1.37-.11.16-.16.35-.23.53-.06.03-.07.09-.07.15-.42.9-1 1.7-1.66 2.42-.68.73-1.33 1.52-2.2 2.05z" fill="#e3a633"/><path class="st127" d="M51.55 40.65c-.07.54-.07 1.08-.23 1.6-.06.06-.08.16-.13.23-.08.07-.1.24-.24.2-.1-.03-.1-.16-.1-.26-.04-.58.2-1.13.26-1.7.06-.61 0-1.2-.1-1.8-.2-1.56-.38-3.13-.33-4.72v-1.23c.01-.13-.03-.3.19-.35.11.1.07.24.07.36v1.59c.03 1.48.17 2.94.43 4.4.1.56.12 1.12.18 1.68z"/><path d="M50.87 32.62c-.17.37-.04.76-.08 1.14v.45c-.28-.1-.13-.35-.18-.53 0-.46-.03-.93-.07-1.4.05-.43.03-.87.11-1.3.1-.13.13-.34.37-.25 0 .4-.13.8-.08 1.21-.1.2.03.41-.07.6v.08z" fill="#ebb136"/><path class="st127" d="M50.87 32.55c.03-.2-.08-.42.07-.6v.37c0 .08.02.17-.07.23z"/><path d="M46.47 51.1c.67-.63 1.37-1.23 1.99-1.91.56-.62 1.07-1.29 1.48-2.02.11-.2.19-.41.4-.53.05.26-.1.47-.21.68-.05.1-.1.19-.1.3-.06.04-.07.1-.07.16-.08.1-.14.2-.23.3l-.3.45c-.37.56-.87 1-1.3 1.52a.48.48 0 00-.22.23c-.42.17-.71.54-1.13.72-.1.05-.19.12-.3.1z" fill="#e0a231"/><path class="st90" d="M48.14 50.05c.1-.46.56-.64.8-1 .14-.18.25-.42.49-.52-.3.62-.78 1.08-1.3 1.52zM49.73 48.08c0-.16.1-.24.23-.3-.03.13-.05.28-.23.3z"/><path class="st89" d="M50.64 45.96c.02-.54.35-.93.6-1.37-.11.5-.29.96-.6 1.37zM50.41 46.49c0-.21.02-.41.23-.53 0 .2-.09.38-.23.53z"/><path d="M29.73 46.34h.22c.34.05.53.34.82.46.46.5 1.07.79 1.6 1.2.44.35.83.75 1.23 1.15.14.14.33.29.3.54-.06.03-.11.02-.16-.02-1-1-2.16-1.83-3.24-2.75-.24-.21-.57-.32-.77-.58z" fill="#eeb53c"/><path d="M33.74 49.67h.15c.15-.06.25.02.34.1.62.62 1.23 1.24 1.92 1.78l.03.06c.01.04 0 .07-.01.1-.26.01-.37-.27-.6-.3L34.2 50.2l-.46-.53z" fill="#ecb53c"/><path d="M23.51 33h-.07a5.25 5.25 0 01-1.7-2.48c-.12-.48.03-.86.41-1.16a.6.6 0 00.23-.22l.23-.08c.3-.06.6-.06.9 0 .15.1.35.08.46.23-.06.07-.13.07-.21.07-.1-.01-.18-.05-.27-.08a.93.93 0 00-.58 0c-.87.34-1.13.99-.72 1.78.25.6.67 1.07 1.13 1.51.12.11.31.2.2.43z" fill="#f0c450"/><path class="st95" d="M23.51 29.06h-.9c.3-.12.6-.12.9 0z"/><path class="st107" d="M23.74 29.29h.38l.23.23c-.27.1-.48.03-.6-.23z"/><path class="st95" d="M22.38 29.14c0 .14-.08.22-.23.22.05-.1.13-.17.23-.22z"/><path d="M23.74 29.29c.2.1.38.23.6.23.11.07.2.16.31.22.03.06.09.08.15.08l.3.38c-.12.1-.21 0-.3-.06a2.61 2.61 0 00-1.88-.6.56.56 0 00-.47.15l-.07.07c-.22.3-.32.6-.2.97a.9.9 0 01.04.1c0 .1.12.22-.07.28-.31-.28-.34-1.14-.03-1.38.25-.2.38-.57.79-.52.2-.06.4-.06.6 0l.23.08z" fill="#f3c953"/><path class="st107" d="M24.65 29.74c-.15 0-.24-.1-.3-.22.15 0 .23.1.3.22z"/><path class="st134" d="M42 33.15c.33.22.53.57.87.77.16.09.31.16.5.14.77.22 1.53.16 2.28-.11.36-.1.65-.3.9-.58.1-.13.22-.34.47-.28.04.07.05.15 0 .21-.34.45-.72.86-1.3 1-.23 0-.44.1-.64.2-1.12.22-2.11 0-2.91-.86-.13-.13-.28-.27-.17-.49z"/><path class="st125" d="M42 33.15c.17.56.65.8 1.1 1.07.64.38 1.33.21 2 .22l.02.06c-.1.2-.32.16-.48.25-.62.18-1.15-.09-1.68-.33-.67-.29-1.03-.88-1.46-1.42-.1-.17-.29-.3-.26-.53l-.07-.38c.3.34.69.6.83 1.06z"/><path class="st98" d="M42.99 33.76c.16.02.26.13.37.23-.18.01-.3-.08-.37-.23z"/><path class="st96" d="M45.71 33.99c-.67.22-1.35.42-2.07.23-.11-.03-.22-.04-.27-.16h.22c.43.1.86.1 1.3 0h.07c.37.04.65-.23.98-.3.04.2-.15.15-.23.23z"/><path class="st98" d="M44.88 34.06c-.43.2-.86.2-1.29 0h1.3z"/><path class="st135" d="M47.38 30.2v-.46c.07-.17.09-.35.15-.53v-.07c.12-.7.57-1.1 1.18-1.35.04 0 .07.01.1.03.07.28-.21.34-.3.52-.12.15-.25.3-.31.48a.54.54 0 01-.07.1 1.9 1.9 0 00-.45 1.58c.05.34.02.68-.05 1.01l-.1.43c-.03.11-.06.27-.25.2.08-.56.18-1.12.14-1.69 0-.09.02-.18-.04-.25z"/><path class="st136" d="M48.74 27.85c-.58.25-.97.7-1.2 1.29v-.3a.51.51 0 01.07-.3c.34-.47.67-.95 1.2-1.22.15-.02.28-.1.43-.04.04.02.05.04.06.08-.05.14-.2.19-.27.3-.08.08-.19.13-.29.19zM47.38 30.2c.17.59.06 1.17-.04 1.75l-.03.22-.04.02-.04-.02c.1-.66.2-1.3.15-1.97zM46.85 32.93v-.3c.3-.02.2-.36.38-.46.12.15.03.3-.02.44-.1.12-.13.34-.36.32z"/><path class="st98" d="M47.23 31.18v-.68c.12.23.12.46 0 .68z"/><path class="st136" d="M47.53 29.21c0 .2-.02.38-.15.53 0-.19.03-.37.15-.53z"/><path class="st135" d="M46.85 32.93l.3-.3c.11.17-.02.29-.1.42-.02 0-.03.02-.05.03-.36.2-.57.59-.94.78-.11.06-.2.15-.35.13l.23-.23c.4-.18.63-.53.91-.83z"/><path d="M51.02 30.73c-.17 0-.17.2-.3.23-.18-.23-.1-.49-.08-.73.08-.8.2-1.57.4-2.34.08-.36.03-.68-.34-.88-.1-.16-.4-.04-.44-.3h.6c.13.08.27.13.38.23.3.4.31.86.2 1.3-.21.82-.42 1.64-.42 2.49z" fill="#edb131"/><path class="st102" d="M51.24 26.94c-.15-.03-.3-.07-.37-.23.18-.02.3.08.37.23z"/><path d="M48.82 27.4c-.5.28-.8.75-1.21 1.13.14-.43.49-.72.76-1.06.33-.12.54-.46.9-.53.02.32-.3.3-.45.45z" fill="#eab43a"/><path d="M48.82 27.4c.09-.22.37-.24.46-.46.34 0 .63-.25.98-.23.11.15.38 0 .45.23.13.19.4.34.2.62-.14 0-.19-.12-.26-.2-.31-.38-.31-.38-.72-.13-.21.05-.44.03-.65.09l-.46.07z" fill="#edb737"/><path class="st121" d="M32.08 33.6c.6.6 1.14 1.25 1.67 1.9.35.44.77.82 1 1.34.33.73.13 1.83-.86 1.92-.01-.02-.02-.03-.01-.05l.01-.03c.15-.11.34-.15.46-.3.38-.3.54-.97.29-1.37a8.1 8.1 0 00-1.58-1.89c-.18-.38-.55-.62-.8-.96-.04-.05-.1-.1-.1-.17L32 33.6c.03-.03.05-.03.08 0z"/><path class="st113" d="M33.9 38.68v.08c-.43.26-.81.01-1.16-.16a2.85 2.85 0 01-1.18-1.06c-.1-.16-.3-.27-.43-.41l-3-3.27c-.27-.3-.5-.62-.75-.93a1.08 1.08 0 00-.3-.3c-.44-.31-.7-.79-1.05-1.17-.05-.06-.08-.13-.02-.2l1.81 1.87.96 1.06c.41.46.83.91 1.26 1.36.78.8 1.44 1.7 2.24 2.48.46.43.97.71 1.61.65z"/><path class="st121" d="M26.01 31.26c.2.4.53.7.8 1.05.08.11.18.21.27.31a.47.47 0 01-.32-.17c-.57-.67-1.13-1.35-1.74-1.98a2.41 2.41 0 00-1.76-.81c-.37 0-.7.12-.84.4-.18.33-.16.73.05 1.1.3.55.74.97 1.14 1.44.12.14.25.28.28.48h-.15c-.41-.52-.95-.93-1.3-1.5-.15-.26-.14-.54-.29-.78-.15-.42 0-.78.23-1.13l.45-.23c.82-.08 1.52.19 2.13.72l.15.04.9 1.06z"/><path class="st120" d="M25.33 38.68l1.97 1.75.6.68c-.24.15-.41.03-.57-.15l-.1-.16c-.76-.72-1.5-1.47-2.46-1.9-.1-.12-.29-.1-.37-.24.01-.25.18-.3.38-.3.24.01.37.2.55.32z"/><path d="M25.33 38.68c-.2 0-.3-.28-.53-.22-.21-.13-.44-.06-.66-.04a.32.32 0 00-.3.32c-.03.44-.05.87.25 1.25.29.37.6.71.86 1.1.05.14.16.24.27.35.06.06.12.12.17.2.16.23.37.42.6.59l.08.06.17.18.07.07.2.2c.11.11.22.2.31.33.13.2.3.36.5.5.12.09.23.2.34.31.1.12.28.2.17.41-.5-.4-.95-.84-1.38-1.32-.4-.45-.9-.8-1.32-1.26-.17-.19-.24-.49-.55-.53-.12-.33-.42-.52-.63-.79-.28-.37-.44-.8-.65-1.2-.11-.21 0-.44-.01-.66.33-.47.61-.55 1.32-.36.11.03.23.08.34.13.13.13.3.21.38.38z" fill="#f1c24a"/><path class="st111" d="M45.71 51.26c-.01.2-.26.2-.3.38-.45.4-1 .64-1.53.91-.81.41-1.68.58-2.57.72-.42.07-.85.02-1.28.04 0-.17.14-.17.24-.17.33-.01.65-.11.98-.1.41.03.76-.2 1.14-.32 1-.3 1.93-.76 2.78-1.36.17-.07.34-.21.54-.1z"/><path class="st110" d="M42.46 52.78c-.63.42-1.37.35-2.08.45-.12.02-.25-.04-.35.08h-.23c-.1-.1-.26.01-.37-.08-.4.01-.76-.16-1.14-.23v-.07c.4.02.77.15 1.16.19.23.02.44.01.66-.04.74-.14 1.49-.3 2.24-.37.04 0 .08.03.1.07z"/><path class="st111" d="M39.43 53.23c.12.02.27-.05.37.08-.12-.02-.27.05-.37-.08z"/><path d="M40.1 52.93c-.56.05-1.12.12-1.66-.15.09-.17.24-.1.37-.1.74-.01 1.49.05 2.22-.16.16-.04.32-.07.46-.17.64-.5 1.45-.7 2.12-1.15.46-.1.77-.45 1.12-.72.38-.3.72-.63 1.16-.84.11-.05.22-.13.35-.06.06.22-.12.32-.26.41-.36.24-.67.53-1 .8-.27.21-.54.41-.85.56-.6.3-1.14.7-1.7 1.06-.63.48-1.37.52-2.11.59a.27.27 0 01-.21-.07z" fill="#ebb037"/><path d="M40.1 52.93c.58-.13 1.18 0 1.73-.29.2-.1.36-.33.63-.32a12.7 12.7 0 002.7-1.7c.19-.15.33-.4.62-.36.08.13-.03.21-.1.29a7.45 7.45 0 01-3.3 2.23c-.53.08-1.06.14-1.58.27a1.6 1.6 0 01-.7.03v-.15z" fill="#e8ac35"/><path d="M43.67 51.26c-.69.5-1.53.73-2.23 1.23-.35.25-.86.26-1.3.28-.57.02-1.14 0-1.7 0-.24-.02-.47-.09-.68-.22.2-.16.41-.1.63-.08 1.09.16 2.13.08 3.14-.45.69-.37 1.43-.62 2.09-1.04.1-.07.2-.1.32-.06.1.27-.16.24-.27.34z" fill="#ecb339"/><path d="M38.44 52.55h-.68c-.59-.17-1.18-.33-1.6-.83v-.08c.3.03.54.2.8.3.46.18.94.25 1.4.4.05.04.08.09.1.15l-.02.06z" fill="#ecb73d"/><path class="st121" d="M32.08 33.6H32l-1.15-1.25c-.09-.1-.15-.2-.14-.33l1.2 1.23c.1.1.19.2.17.36zM29.35 30.35c.41.47.82.95 1.25 1.41.07.08.12.15.11.26-.47-.37-.83-.85-1.21-1.3-.09-.1-.18-.22-.15-.37z"/><path class="st145" d="M32.38 42.02c-.2-.89-.82-1.5-1.42-2.1-.85-.86-1.71-1.72-2.55-2.6-1.37-1.43-2.7-2.9-4.08-4.32a10.07 10.07 0 01-1.45-1.81c-.23-.4-.24-.7 0-.98.23-.28.53-.29.98-.12.81.31 1.3.98 1.83 1.59.5.58 1.04 1.12 1.56 1.68.75.78 1.46 1.6 2.18 2.4.25.29.53.53.8.8.35.34.58.78.93 1.12a5 5 0 001.91 1.4c.73.24 1.75-.08 1.98-1.14.25-1.14-.36-1.82-.98-2.58-.66-.81-1.45-1.52-2.03-2.4-.24-.39-.63-.65-.91-1-.77-.95-1.54-1.88-2.33-2.8-.93-1.1-1.83-2.2-2.72-3.32-.42-.52-.88-.99-1.1-1.64-.1-.27-.08-.48.11-.68.21-.22.43-.2.68-.08.7.31 1.13.9 1.6 1.45.57.65 1.1 1.33 1.67 1.99.08.09.2.14.3.21.33.45.7.85 1.07 1.26.1.1.22.2.3.33.18.28.39.53.6.77.84.95 1.64 1.93 2.45 2.9.48.56.98 1.11 1.5 1.64.42.17.76.5 1.25.54.3.03.58 0 .87-.09.39-.2.66-.51.83-.9.23-.75-.11-1.36-.45-1.98v-.07c-.46-.58-.89-1.18-1.37-1.75-.37-.62-.88-1.14-1.32-1.7l-.27-.42c-.9-1.04-1.69-2.19-2.54-3.27-.38-.48-.75-.95-1.03-1.5a1.74 1.74 0 01-.18-.49c-.1-.53.34-.92.85-.76.26.08.47.24.66.43.52.5.99 1.04 1.43 1.6L36.56 27c.91 1.2 1.89 2.33 2.74 3.57.1.13.18.28.3.38.56.4.57 1 .6 1.6.02.27-.07.55.11.8.08.18.2.32.25.51a2 2 0 00.47 1.43c.23.3.18.49-.07.82a18.9 18.9 0 00-1.49 2.24 1.87 1.87 0 00-.11 1.6 6.5 6.5 0 002.01 2.96c.57.48 1.12.98 1.64 1.52.13.14.27.27.44.35.36.17.64-.01.62-.41 0-.2-.07-.4-.14-.59-.3-.85-.57-1.7-.83-2.55-.13-.44-.05-.9-.14-1.35-.2-.93.03-1.83.24-2.72.07-.28.23-.42.52-.4.32.04.62-.06.91-.18.06 0 .12 0 .17.04.06.11 0 .2-.07.28-.47.3-.45.82-.56 1.26a5.3 5.3 0 000 2.53c.2.94.53 1.84 1.1 2.63.15.22.37.32.63.37.1.04.2.1.28.2.03.27-.23.36-.35.53-.45.59-.88 1.2-1.45 1.67-.5.44-1.07.78-1.7 1-.31.04-.5.2-.57.51-.07.26-.25.47-.4.68-.09.13-.22.21-.39.12-.08-.17.04-.29.14-.4a.8.8 0 00.21-.6c.02-.42-.16-.75-.44-1.06a7.01 7.01 0 00-3.1-2.03 4.7 4.7 0 00-3.56.29l-.03.02c-.73.42-.78.63-.34 1.35.09.18.28.33.18.58-.16.1-.23-.04-.3-.13-.16-.21-.37-.4-.56-.58-.31-.33-.73-.5-1.1-.73-.34-.22-.68-.43-1-.69-.12-.1-.2-.22-.15-.39.06-.15.19-.2.33-.2.2-.02.38-.03.55-.12.3-.15.5-.46.35-.78-.13-.28-.1-.6-.12-.91z"/><path d="M32.23 42.55h.15c.35.79.13 1.2-.72 1.29-.23.03-.48.04-.7.11-.22.07-.45.03-.71.1.15.24.37.37.56.51.7.5 1.4 1 2.18 1.36.6.28 1.11.7 1.55 1.2.1.12.22.24.2.43-.14.1-.24 0-.33-.09a6.46 6.46 0 00-2.94-1.76 4.24 4.24 0 01-1.52-.9c-.86-.7-1.74-1.38-2.51-2.18a28.16 28.16 0 01-1.98-2.24c-.13-.16-.36-.31-.2-.59.23-.12.43.02.61.13.16.1.3.21.47.3.4.31.78.63 1.18.93.4.3.71.74 1.1 1.07.5.43.93.97 1.55 1.24.53.24 1.09.18 1.63.08.2-.04.34-.24.4-.47.04-.17.01-.35.03-.52z" fill="#fbd357"/><path class="st115" d="M40.26 33.38c-.14-.06-.15-.18-.15-.32 0-.39-.02-.77-.06-1.16a1.2 1.2 0 00-.32-.69c-.65-.8-1.26-1.62-1.9-2.42-.9-1.13-1.79-2.3-2.67-3.45-.55-.73-1.13-1.44-1.66-2.19-.35-.5-.81-.92-1.3-1.3-.27-.2-.56-.32-.87-.1-.24.19-.27.6-.09.94.54 1 1.26 1.87 1.96 2.76.55.71 1.07 1.45 1.6 2.17-.03 0-.08 0-.1-.02-.4-.47-.84-.9-1.16-1.42-.27-.42-.61-.78-.88-1.19-.18-.27-.39-.52-.58-.78a4.18 4.18 0 01-1.2-1.95c-.15-.68.5-1.03.96-.85.47.18.83.47 1.17.85 1.03 1.2 1.95 2.47 2.92 3.72.63.8 1.25 1.62 1.86 2.44.4.55.77 1.14 1.33 1.55.57.5 1.14 1 1.24 1.81.02.47-.12.93-.03 1.4a.22.22 0 01-.07.2z"/><path class="st147" d="M34.73 47.55a4.61 4.61 0 00-1.98-1.64 13.11 13.11 0 01-2.52-1.7c-.07-.04-.17-.1-.14-.2.03-.12.16-.1.25-.1.46.03.89-.11 1.33-.16.74-.07.9-.34.72-1.05l-.01-.15c-.13-.18-.04-.36 0-.53.13.37.17.77.28 1.15.08.3-.37.68-.78.74h-.27c-.12 0-.23.01-.27.15-.05.13.03.2.13.28.54.43 1.15.76 1.74 1.12.15.09.3.19.38.35.67.84 1.42 1.6 2.22 2.32.37.33.86.5 1.27.8.1.06.28.04.21.24-.08.06-.18.06-.27.06a3.7 3.7 0 01-1.17-.65c-.19-.16-.4-.25-.6-.4-.22-.17-.48-.31-.52-.63z"/><path d="M32.23 42.55c.22.67-.1 1.14-.79 1.13-.52 0-1.04.08-1.53-.22-.35-.2-.6-.53-.9-.78-.53-.42-1-.92-1.47-1.4-.26-.27-.64-.44-.94-.7-.1-.1-.22-.18-.28-.3-.1-.14-.35-.16-.3-.4.15-.09.26-.02.36.1.29.34.66.6 1 .9.12.2.32.23.53.23.01.23.2.37.33.48.69.6 1.27 1.3 2.09 1.75.46.26.95.25 1.42.1.35-.12.39-.48.4-.82v-.22c.06.03.08.09.08.15z" fill="#f8cf56"/><path class="st115" d="M35.26 33.99c-.4-.14-.55-.54-.81-.81-.58-.63-1.12-1.3-1.67-1.94l-1.93-2.22c-.09-.1-.15-.2-.14-.34.6.58 1.1 1.23 1.64 1.85.74.85 1.4 1.76 2.19 2.56.27.27.56.53.72.9zM34.8 27.62c.53.58 1 1.2 1.46 1.81.07.1.1.21.13.31-.52-.62-1.08-1.22-1.54-1.9-.04-.06-.03-.15-.05-.22z"/><path class="st121" d="M29.35 38.84c-.7-.6-1.36-1.23-1.9-1.97.1 0 .18.04.23.11.43.57.96 1.04 1.5 1.5.11.1.19.2.17.36z"/><path class="st115" d="M37.38 34.44c-.56.42-1.1.15-1.6-.1-.19-.08-.4-.15-.52-.35.23-.06.37.1.53.22.5.35 1.05.2 1.59.23zM36.4 29.74c.54.51 1 1.1 1.36 1.75-.41-.25-.6-.7-.89-1.04-.18-.22-.4-.42-.48-.7zM30.71 28.68c-.5-.38-.86-.9-1.3-1.34-.06-.07-.06-.16-.06-.25.51.48.97 1 1.36 1.6zM37.76 31.56c.47.41.7 1.39.45 1.97.06-.6-.04-1.17-.38-1.68a.46.46 0 01-.07-.29z"/><path class="st121" d="M30.49 39.97c-.43-.33-.89-.63-1.14-1.13a4 4 0 011.14 1.13z"/><path class="st115" d="M38.21 33.53c-.07.42-.45.83-.83.91.32-.26.57-.6.83-.9z"/><path class="st121" d="M27.45 36.87c-.38-.17-.55-.51-.75-.84.35.19.55.51.75.84z"/><path class="st149" d="M31.85 41.41c-.24-.19-.53-.34-.6-.68.26.17.49.37.6.68zM32.08 41.87c-.18-.1-.23-.27-.23-.46.2.1.25.26.23.46z"/><path class="st121" d="M26.7 36.03c-.2 0-.24-.14-.23-.3.12.07.22.15.23.3zM27.08 32.62c.18.02.28.13.3.3a.48.48 0 01-.3-.3zM40.26 31.71c.06-.28-.12-.46-.28-.65l-.86-1.09c.01-.2-.24-.26-.22-.45l.22.15.23.15.23.3c.07.24.27.38.42.56.3.32.5.7.64 1.1-.05.06-.02.14-.08.18-.13 0-.17-.1-.23-.17a1.06 1.06 0 00-.07-.08z"/><path class="st77" d="M22.15 30.8c.26.17.2.49.35.72.3.47.67.86 1.05 1.25.08.09.2.16.2.3v.08L23.5 33c-.08-.31-.37-.46-.57-.68a2.96 2.96 0 01-.79-1.21c.08-.1-.04-.2 0-.3z"/><path class="st150" d="M27.83 44.29c.01-.18-.17-.24-.22-.38.04-.04.1-.06.15-.05.1.02.17.08.22.16.62.67 1.18 1.41 2.07 1.76.05.06.1.11.05.2a.34.34 0 01-.28.05c-.16-.02-.27-.14-.4-.22-.57-.46-1.11-.96-1.59-1.52z"/><path d="M29.42 45.8l.38.16c.41.2.81.4 1.12.76a.2.2 0 01-.04.16c-.06.03-.12.03-.17-.01a4.05 4.05 0 01-.76-.53c-.1-.25-.41-.3-.53-.53z" fill="#f1bd43"/><path class="st108" d="M24.95 38.3c-.17-.02-.35-.02-.51-.08-.46-.16-.83 0-1.15.31.06-.28.44-.61.7-.57.34.05.7.1.96.34z"/><path d="M40.56 31.94c0-.06.02-.12.08-.15.07.12.1.28.23.38.28.34.45.75.66 1.14.44.79.92 1.54 1.85 1.83.65.2 1.3.21 1.93-.12.13-.08.27-.14.42-.17.1-.03.19-.07.24-.16a.23.23 0 01.2-.08c.08.02.14.06.17.13-.02.24-.25.3-.4.42-.3.08-.55.22-.75.46a3.17 3.17 0 01-2.22.07c-.51-.15-.87-.66-1.24-1.07-.42-.47-.56-1.07-.78-1.63-.08-.2-.16-.42-.28-.61-.05-.15-.17-.27-.1-.44z" fill="#facc50"/><path d="M41.47 33.3a4.83 4.83 0 01-.6-1.13c.19.01.2.26.37.3l.3.46c.18.32.41.61.6.93.06.1.18.16.1.29-.34.03-.38-.3-.54-.46-.1-.1-.18-.24-.23-.39z" fill="#f8c84c"/><path class="st117" d="M39.58 30.12c-.12-.06-.22-.15-.23-.3l.23.15v.15z"/><path d="M42.38 52.78c.19-.25.5-.28.75-.4a8.35 8.35 0 002.66-2.1c.05-.27.28-.4.46-.56.93-.78 1.65-1.75 2.4-2.69.53-.65.94-1.4 1.54-2 .08-.08.11-.19.13-.3.04-.2.15-.37.26-.54.22-.32.35-.69.4-1.07.04-.25.09-.5.19-.72a.26.26 0 01.15-.16c.02.99-.21 1.9-.67 2.78-.13.25-.28.5-.31.79-.24.36-.37.8-.8 1-.04.02-.06.06-.07.1-.56 1.03-1.45 1.8-2.23 2.64-.62.68-1.22 1.41-2.06 1.86-.47.46-1.06.7-1.64.97-.35.16-.68.36-1.08.4h-.08z" fill="#e8aa34"/><path d="M45.18 51.41c.38-.38.8-.72 1.18-1.09.53-.51 1.03-1.05 1.52-1.6.2-.22.39-.43.6-.63.25-.26.47-.54.66-.86.17-.28.32-.56.68-.71.25-.12.27-.52.52-.71-.56 1.04-.95 2.18-1.85 3.02-.31.3-.54.68-.87.98-.13.13-.25.28-.41.38-.53.31-1 .7-1.5 1.07l-.53.15z" fill="#e7a732"/><path d="M51.17 42.4c-.01.59-.09 1.2-.4 1.67-.3.44-.46.94-.8 1.37-.94 1.25-1.85 2.52-2.92 3.67-.38.42-.88.73-1.26 1.17-.42.13-.65.53-1 .75-.31.18-.58.43-.92.56-.3.12-.44.5-.81.57-.2.04-.4.13-.6.16.58-.48 1.24-.83 1.9-1.2.39-.21.73-.52 1.06-.83.26-.25.65-.35.82-.7-.04-.2.13-.29.24-.4a19.71 19.71 0 003.57-4.78c.21-.44.52-.84.5-1.36.1-.2.06-.52.4-.58v.16c.1-.06.1-.21.22-.23z" fill="#e9ae37"/><path d="M50.71 33.68c.03.18-.07.37.08.53-.01 1.41.03 2.82.3 4.21.03.19 0 .38 0 .57.16.81.02 1.61-.16 2.4a.63.63 0 01-.16.3c-.15.09-.17-.02-.2-.13 0-.04 0-.08.02-.12.03-.3.18-.57.16-.87.03-1.42-.03-2.83-.2-4.24-.08-.68 0-1.38-.1-2.07.01-.13 0-.26.04-.39.05-.1.08-.2.22-.19z" fill="#edb83f"/><path class="st158" d="M50.71 41.71c.3-.88.4-1.8.38-2.72.16.45.2.91.16 1.38-.08.7-.2 1.4-.3 2.1-.21.15-.23.4-.31.6-.2.7-.62 1.26-.96 1.87-.04.07-.09.16-.2.1-.11-.44.17-.77.36-1.1.31-.6.52-1.22.7-1.85.01-.15.04-.29.17-.38z"/><path d="M50.87 27.55c.13-.25-.18-.39-.16-.61.34.1.5.32.46.67-.05.38-.14.76-.21 1.13-.15.73-.24 1.47-.25 2.22l-.07 1.28c-.2-.02-.21-.21-.3-.34-.06-.58-.14-1.16-.25-1.74-.14-.73.27-1.33.47-1.98.07-.22.1-.47.3-.63z" fill="#f0b534"/><path d="M50.41 31.94c.16.04.12.23.23.3.08.48.08.96.07 1.44l-.15.15c-.28-.24-.32-.57-.33-.9v-.45c.03-.2-.05-.42.18-.54z" fill="#f0b73a"/><path d="M30.71 46.87h.15c.13-.06.22.03.31.1.9.64 1.81 1.25 2.56 2.1a9.05 9.05 0 001.12 1.05c.08.13.14.27.3.32.32.2.54.53.86.72a3.9 3.9 0 003.32.82c.1-.02.18-.09.26-.15.07-.06.13-.14.21-.15.62-.04 1.1-.43 1.65-.62.34-.03.66-.12.95-.29.31-.17.62-.33.94-.46.13-.06.27-.15.42-.03-.04.3-.3.42-.5.51-1.29.53-2.48 1.27-3.84 1.58-.35.08-.7.06-1.06.03-.5-.06-.97-.2-1.43-.38-.27-.1-.54-.19-.76-.38-.71-.47-1.3-1.08-1.88-1.7a1.16 1.16 0 00-.4-.27 9.68 9.68 0 00-2.65-2.34c-.2-.13-.36-.3-.53-.46z" fill="#f1bb3f"/><path class="st107" d="M23.51 29.21h-.6c.2-.11.4-.11.6 0z"/><path class="st77" d="M22.38 29.67c-.12.37-.3.72-.23 1.13a.93.93 0 01.23-1.13zM22.83 29.44c-.13.12-.25.25-.45.23.1-.18.26-.23.45-.23z"/><path class="st162" d="M47.53 31.49c.07-.37.05-.74.03-1.12-.04-.57.04-1.15.58-1.54.15.21-.04.38-.07.56-.05.15-.06.3-.06.46-.21.64.01 1.3-.14 1.94-.1.43-.17.86-.4 1.25a3.77 3.77 0 01-1.45 1.38c-.14.05-.28.13-.44.05-.1-.16.06-.19.13-.26.59-.2 1.04-.56 1.3-1.13.27-.5.5-1.01.52-1.6z"/><path class="st125" d="M45.71 34.21l-.15.23a.17.17 0 01-.08.04c-.13.01-.26.08-.37-.04.15-.21.38-.22.6-.23z"/><path d="M45.49 34.44h.07l.46-.07c.02.03.02.07 0 .11a.52.52 0 01-.27.25c-1.19.5-2.33.5-3.37-.35-.08-.06-.18-.12-.15-.24l-.67-1.01c-.06-.08-.04-.13-.01-.2.45.5.78 1.14 1.46 1.42.52.22 1.04.48 1.64.32.3-.02.55-.2.84-.23z" fill="#f8c548"/><path class="st162" d="M45.49 34.44c-.27.13-.52.28-.84.23.13-.13.36-.05.46-.23h.38z"/><path class="st164" d="M47.99 29.36c0-.18.18-.33.15-.53v-.07c.06-.12.18-.18.3-.22.26-.12.4-.04.47.23.05.18.05.37.04.56a9.66 9.66 0 00.22 3.22c.14.48.38.94.6 1.38.24.45.45.9.63 1.37.16.35.03.74.14 1.1l.01.11c-.06.2 0 .4-.12.58a.13.13 0 01-.11.02c-.21-.14-.25-.35-.22-.57.06-.32-.06-.59-.22-.85a9.52 9.52 0 01-1.37-3.85c-.03-.2-.03-.4.01-.6.1-.25.13-.5.09-.77-.05-.4 0-.8 0-1.2-.01-.08.04-.19-.06-.23-.11-.06-.17.06-.24.13-.1.09-.15.24-.32.2z"/><path d="M50.34 35.35c-.41-.87-.87-1.71-1.2-2.6-.18-.47-.31-.98-.32-1.5 0-.76.03-1.52 0-2.28-.02-.45-.05-.45-.47-.3l-.21.09c.02-.2.2-.3.3-.46.17-.09.29-.24.47-.31.28-.12.44-.03.46.28.03.35-.03.7-.1 1.05-.11.52-.2 1.02-.05 1.56.07.26.02.55.06.82.11.81.34 1.57.86 2.23.22.27.17.65.29.96 0 .1 0 .2.03.3.01.05 0 .1-.03.16-.03.02-.06.02-.1 0z" fill="#f5c241"/><path d="M50.34 34.97c-.13-.44-.2-.89-.49-1.3a4.06 4.06 0 01-.7-2.62c.01-.28-.18-.46-.15-.75.07-.66.28-1.3.27-1.96 0-.35-.07-.4-.4-.24-.14.07-.25.2-.43.2l.38-.45c.47-.27.71-.16.74.36.02.33.06.67-.13.99-.06.1-.04.27-.04.4 0 .44-.02.88.1 1.3.1.61.23 1.21.4 1.8.11.4.4.7.5 1.1.03.17.1.34.13.5l.02.56c-.04.09-.1.14-.2.11z" fill="#f5c040"/><path d="M49.43 30.88a3.6 3.6 0 01-.14-1.36c.03-.46.24-.88.18-1.38-.05-.43-.23-.33-.46-.31l-.19.02h-.08c.05-.1.13-.18.23-.23.13-.08.27-.14.4-.2.19-.08.38-.09.54.04.18.14.19.35.12.52-.16.36-.15.77-.33 1.12-.06.12-.03.24-.04.36 0 .49.05.98-.23 1.42z" fill="#f4bf3d"/><path class="st134" d="M47.53 31.49c.05.6-.1 1.14-.53 1.59l.15-.46.08-.45h.08c.2-.18.12-.46.22-.68z"/><path d="M49.43 30.88c.04-.54.14-1.08.13-1.63 0-.34.15-.77.32-1.13.1-.2.15-.42 0-.56-.15-.17-.39-.13-.58 0-.1.07-.22.06-.33.06.07-.12.15-.22.3-.23.27-.15.53-.17.79 0 .24.17.18.43.13.66-.08.45-.2.89-.32 1.32-.14.53-.04 1.08 0 1.62.06.52.25 1 .47 1.48-.05.48.02.93.22 1.36v.38c-.03.03-.03.07-.07.08-.46-.95-.87-1.91-1.05-2.96-.02-.15-.01-.3-.01-.45z" fill="#f3bc3c"/><path d="M49.8 31.03a4 4 0 01.03-1.83c.15-.48.27-.98.3-1.5.02-.26-.2-.31-.4-.33-.15-.01-.3.02-.45.02v-.07c.17-.28.45-.1.68-.15.17-.12.35-.2.54-.02.2.17.23.35.17.6-.1.42-.34.75-.48 1.15-.2.58-.13 1.2-.27 1.78-.03.12 0 .26-.11.35z" fill="#f2bc39"/><path d="M49.8 31.03c.06-.8.1-1.59.33-2.36.08-.28.3-.5.4-.8.18-.63.06-.8-.57-.7.25-.3.39-.3.64-.02.1.12.2.24.27.4-.18.5-.3 1.04-.54 1.52a2 2 0 00-.1 1.32c.1.51.18 1.02.18 1.55-.1.17-.07.35-.07.53-.39-.4-.5-.9-.53-1.44z" fill="#f2b938"/><path class="st171" d="M24.42 38.68c.15 0 .3-.02.38.16-.06.15-.3.22-.24.45-.05.2.05.35.14.5.14.28.36.5.52.76.07.11.15.22.25.3.6.53 1.08 1.17 1.65 1.7.63.6 1.24 1.22 1.91 1.76.2.23.4.44.63.64.1.08.24.15.15.33-.32.07-.46-.2-.66-.35-.2-.15-.34-.4-.6-.5a30.48 30.48 0 01-3-2.8c-.53-.55-1.06-1.09-1.43-1.76-.2-.36-.27-.7-.02-1.07.08-.12.16-.24.32-.12z"/><path class="st172" d="M24.42 38.68c-.37.13-.5.55-.3.98.27.58.67 1.06 1.11 1.5.77.8 1.54 1.58 2.35 2.33.33.3.66.6 1.01.88.1.08.25.13.17.3-.25.06-.34-.16-.49-.28-.13-.1-.22-.24-.36-.33a.26.26 0 00-.15-.15c-.5-.34-.87-.83-1.31-1.23-.06-.06-.14-.08-.2-.13a.6.6 0 00-.24-.23c-.22-.23-.48-.42-.68-.68a.26.26 0 01-.15-.15.72.72 0 00-.3-.3c-.2-.41-.53-.73-.82-1.07-.33-.39-.36-.84-.34-1.3.02-.54.55-.71 1.08-.36-.19-.03-.32.04-.38.22z"/><path d="M24.5 39.29c-.15-.32.12-.36.3-.45.67.28 1.25.68 1.74 1.23.26.29.66.44.84.81-.4-.13-.63-.48-.93-.74-.13-.1-.22-.27-.44-.24-.15-.02-.27-.1-.4-.18a2.19 2.19 0 00-1.11-.43z" fill="#f8ce55"/><path class="st174" d="M26.47 42.62c.46.4.89.83 1.29 1.3h-.15a.78.78 0 01-.3-.31c-.21-.15-.39-.33-.54-.53a.78.78 0 01-.3-.3c-.04-.06-.05-.1 0-.16z"/><path class="st150" d="M25.33 41.64c.27.2.53.38.68.68-.3-.16-.55-.35-.68-.68zM26.77 43.08c.21.14.39.32.53.53a.8.8 0 01-.53-.53zM24.88 41.18c.22-.02.28.13.3.3a.78.78 0 01-.3-.3zM26.47 42.62v.15a.47.47 0 01-.23-.22c.09 0 .18-.02.23.07z"/><path class="st150" d="M26.01 42.32c.15 0 .23.08.23.23a.47.47 0 01-.23-.23z"/><path d="M49.5 45.05l1.14-1.97c0 .38-.13.71-.31 1.06-.4.76-.88 1.46-1.3 2.2-.3.49-.72.9-1.07 1.35-.52.68-1.15 1.26-1.72 1.9-.57.19-.99.6-1.45.96-.35.27-.64.65-1.12.71l.3-.3c.08-.26.31-.35.5-.5 1.3-.95 2.53-2 3.47-3.32.46-.66.97-1.27 1.37-1.96.04-.07.08-.16.2-.13z" fill="#ecb23a"/><path class="st158" d="M47.99 47.17a5.4 5.4 0 01-1.38 1.62c-.57.51-1.09 1.08-1.72 1.52-.3.21-.64.39-.92.65-.46.1-.81.43-1.23.62-.68.3-1.35.67-2.05.9-.7.24-1.5.26-2.25.07.2-.16.45-.14.65-.1.57.1 1.09-.1 1.56-.33.5-.24 1.03-.38 1.53-.61.49-.22.93-.52 1.36-.8.6-.41 1.23-.78 1.82-1.23.67-.35 1.1-.98 1.64-1.49.26-.24.52-.48.75-.74.06-.06.14-.12.24-.08z"/><path d="M45.41 49.52c-.44.43-1 .69-1.5 1.05-.65.48-1.32.96-2.09 1.2-.5.16-1 .38-1.48.59-.64.28-1.27.09-1.9.19l-.08-.15c.13-.13.3-.08.43-.07.46.03.88-.14 1.3-.27 1.1-.32 2.05-.95 3.1-1.35.22-.07.43-.22.55-.43.24-.28.55-.44.83-.65.77-.55 1.45-1.2 2.16-1.83.13-.1.22-.29.43-.26.1.24-.07.37-.2.5-.5.53-1.05.97-1.55 1.48z" fill="#efb83e"/><path d="M44.65 36.64c-.28.23-.62.26-.96.22-.21-.02-.32.06-.38.27a8.55 8.55 0 00-.24 3.08c.15 1.4.75 2.64 1.08 3.97.07.27.05.51-.15.69-.23.2-.48.09-.7-.05a.88.88 0 01-.15-.1c-.9-.85-1.84-1.66-2.68-2.56a5.35 5.35 0 01-1.34-2.77c-.1-.58.2-1.06.49-1.51.42-.66.82-1.32 1.34-1.91.17-.2.18-.43 0-.62-.4-.43-.55-.93-.47-1.52.07-.01.12.04.14.1.14.45.39.84.65 1.23.23.36.18.78-.1 1.12-.53.64-1 1.32-1.42 2.04-.4.68-.28 1.33 0 2.02a5.73 5.73 0 001.94 2.46c.33.25.64.54 1 .74.4.21.6.1.55-.34-.08-.66-.2-1.32-.33-1.97-.06-.25-.1-.49-.11-.74-.03-.92-.01-1.84 0-2.75 0-.83.44-1.25 1.25-1.27.3 0 .54-.11.75-.3.06-.06.13-.1.22-.08.04.04.06.1.06.15-.04.25-.28.28-.44.4z" fill="#fcd459"/><path class="st147" d="M42.68 47.02a6.1 6.1 0 002.75-2.23c.1-.15.17-.34.36-.42 1.23-.54 1.87-1.55 2.25-2.78.07-.19.08-.42.33-.5.17.27.02.52-.05.77-.25.79-.71 1.47-1.16 2.15a19.12 19.12 0 01-2.28 2.92 5.19 5.19 0 01-1.95 1.33 3.2 3.2 0 00-.69.32c-.58.39-1.25.6-1.9.83-.22.07-.48.18-.7-.05.15-.25.44-.22.67-.32.68-.28 1.37-.52 1.77-1.2.05-.09.11-.17.12-.27.02-.31.22-.46.48-.55z"/><path d="M44.88 36.18a.83.83 0 01-.77.39c-.71-.03-1.28.35-1.2 1.18.07.65-.04 1.3-.03 1.95.02 1.1.29 2.15.45 3.22.04.27.16.6-.08.78-.26.2-.55-.02-.78-.2-.96-.7-1.94-1.4-2.51-2.5a6.45 6.45 0 01-.6-1.61c-.07-.36.1-.7.26-1 .4-.8.91-1.5 1.49-2.18.22-.26.32-.69.11-.96-.32-.43-.57-.9-.73-1.42-.09-.14-.22-.26-.23-.45-.17-.56 0-1.11 0-1.67h.07c.07.19.2.33.24.53.07.99.27 1.93.85 2.77.34.5.4 1.09-.18 1.6a5.6 5.6 0 00-1.35 1.89c-.19.4-.25.8-.13 1.24a4.69 4.69 0 002.44 3.06c.45.24.7.11.67-.39a6.83 6.83 0 00-.26-1.7.87.87 0 01-.03-.26c0-1.06-.01-2.11.06-3.17.03-.37.17-.6.5-.77a3.72 3.72 0 011.74-.33z" fill="#fcd358"/><path d="M35.83 38.51c-.38.01-.64-.32-.54-.7.23-.98.93-1.56 1.77-2.01a1.8 1.8 0 011-.23c.38.03.57.3.47.67-.24.96-.93 1.52-1.75 1.98-.3.17-.6.28-.95.3z" fill="#fddb63"/><path class="st180" d="M34.12 46.03c-.11-.2-.24-.4-.34-.62-.09-.2.06-.33.18-.46.5-.55 1.18-.74 1.88-.88a5.3 5.3 0 013.7.76c.68.38 1.24.9 1.78 1.46.3.31.47.67.45 1.1-.14.07-.27.03-.4-.05-.6-1.6-1.94-2.32-3.42-2.82a3.4 3.4 0 00-1.35-.12c-.58.04-1.15.08-1.66.43-.48.31-.57.48-.47 1.05.02.08.02.15-.02.22-.13.08-.22-.02-.33-.07z"/><path d="M34.12 46.03c.11 0 .21.03.3.08.2-.04.27.12.36.23.36.44.71.88 1.15 1.25 1 .87 2.16 1.23 3.46 1.13.82-.07 1.52-.44 1.88-1.26.03-.06.07-.1.13-.14.13 0 .26 0 .37.08.1.44-.32.64-.45.98-.3.4-.75.52-1.18.68a4.2 4.2 0 01-2.9-.16c-.59-.2-1.07-.6-1.57-.96-.31-.23-.6-.5-.86-.79-.12-.17-.2-.37-.41-.45-.04-.04-.08-.07-.05-.14.02-.22-.13-.36-.23-.53z" fill="#fcd960"/><path class="st180" d="M45.94 43.76c-.52.08-.74-.31-.96-.66a7 7 0 01-.88-2.23 5.87 5.87 0 01-.1-2.38c.08-.4.22-.79.29-1.2.03-.2.14-.44.44-.42l.03.04c-.21.66-.4 1.32-.48 2-.08.62.02 1.22.13 1.8.15.8.47 1.56.99 2.22.3.4.64.45 1.08.18.6-.37.9-.96 1.15-1.58.05-.15.05-.34.27-.36.13.1.1.24.09.38l-.03.1a10.25 10.25 0 01-.74 1.42c-.18.13-.33.3-.5.45-.22.18-.47.33-.78.24z"/><path d="M34.8 47.1c.29.23.58.45.86.7 1 .87 2.16 1.38 3.47 1.37.65 0 1.33-.22 1.9-.62l.29-.17c.46-.06.54-.48.67-.8.14-.33.3-.57.7-.56-.23.17-.33.37-.42.66-.14.45-.53.75-.95 1-.53.32-1.1.5-1.67.69-.16.22-.43.22-.64.21a4.71 4.71 0 01-1.5-.26c-.1-.04-.21-.04-.2-.18a8.75 8.75 0 01-3.06-2.48c-.22-.28-.56-.48-.66-.85.32.18.47.54.76.75l.07.08c.17.12.28.28.38.45z" fill="#fbd65c"/><path d="M48.37 41.1c-.23.29-.25.65-.38.97a4.53 4.53 0 01-1.6 2.1c-.18.12-.37.23-.6.2l.38-.46c.36-.3.79-.5 1.06-.9.3-.43.56-.86.68-1.37.18-.82.39-1.63.22-2.47-.04-.25.01-.5-.05-.74-.1-.74-.32-1.44-.54-2.14-.17-.51-.42-.64-.96-.5-.48.13-.96.28-1.35.63-.12.1-.24.23-.43.22h-.15c.06-.2.3-.2.38-.38.09-.26.32-.39.54-.5.55-.3 1.13-.48 1.77-.35.3.06.47.28.56.55.29.8.43 1.65.58 2.49.14.8-.09 1.57 0 2.36-.01.1-.02.22-.11.3z" fill="#fbd65d"/><path class="st184" d="M33.8 42.1c-.51-.01-.97-.44-.97-.92 0-.57.6-1.11 1.18-1.14.46-.02.92.48.93.9.02.55-.6 1.24-1.15 1.15z"/><path d="M44.8 36.64a3.6 3.6 0 011.7-.93c.65-.14.96-.07 1.12.5.2.72.5 1.41.52 2.17.05.07.04.15.02.23-.22.01-.24-.16-.25-.3-.06-.68-.38-1.28-.58-1.9-.1-.3-.28-.42-.6-.4-.58.07-1.1.24-1.53.65-.12.12-.24.32-.47.2l.07-.22z" fill="#fcd860"/><path class="st184" d="M40.26 34.22c0 .39-.14.54-.5.5-.3-.02-.5-.18-.49-.5 0-.3.3-.67.55-.68.23 0 .44.33.44.68z"/><path class="st186" d="M47.23 43c0 .06 0 .15-.03.18-.3.3-.61.6-1.03.73a.23.23 0 01-.23-.15c.4-.07.73-.24.98-.56.08-.1.16-.2.3-.2z"/><path d="M25.18 40.58c-.21-.23-.43-.45-.53-.76-.03-.3.05-.38.3-.3.14.04.3.1.3.3.07.47.46.71.72 1.03a24.53 24.53 0 004.73 4.42c.31.24.71.33 1.08.44.73.22 1.35.62 1.98 1.04.36.23.57.63.97.8.64.7 1.43 1.18 2.27 1.59.76.4 1.58.42 2.41.4.8-.02 1.54-.34 2.33-.37.34-.02.6-.29.9-.45.32-.18.61-.41.99-.45.14.12.02.22-.06.27-.32.18-.54.48-.87.65-.28.05-.45.27-.65.45-.38.06-.73.17-1.07.36-.2.1-.42.09-.63.06-.53-.08-1.08-.11-1.62-.13-1.18-.04-2.2-.58-3.23-1.08-.43-.21-.67-.67-1-1.02a7.7 7.7 0 00-2.15-1.5c-.65-.34-1.32-.63-2.02-.85-.38-.13-.6-.48-.91-.71-.16-.12-.28-.3-.45-.4-1.29-1.06-2.42-2.29-3.56-3.49l-.23-.3z" fill="#fbd154"/><path class="st188" d="M25.26 39.82c-.1-.07-.19-.16-.3-.21-.2-.1-.33-.04-.3.21-.14-.15-.32-.3-.16-.53.26-.11.5-.09.73.1.25.2.58.25.78.5.08.15.27.2.3.38-.2-.01-.31-.16-.47-.26-.17-.12-.36-.22-.58-.19z"/><path class="st189" d="M43.67 48.3a7.9 7.9 0 00-1 .51c-.38.22-.73.53-1.23.5-.54-.03-1.02.27-1.55.29-.8.01-1.61.16-2.39-.16-.18-.07-.39-.11-.5-.3h.3c.77.26 1.54.47 2.35.23.35.06.66-.05.98-.16 1.04-.35 1.97-.92 2.96-1.38.76-.35 1.29-1.03 1.84-1.64.8-.89 1.44-1.9 2.08-2.9.43-.67.81-1.36.86-2.18v-.3c.16-.6.12-1.23.16-1.84.01-.13-.04-.25.06-.35.22.01.24.17.22.32-.07.65 0 1.3-.04 1.96 0 .2-.07.4-.1.61-.2.27-.23.59-.34.88-.21.56-.5 1.1-.8 1.61-.52.86-1.1 1.7-1.75 2.46A20.2 20.2 0 0144 48.2c-.1.08-.2.17-.34.1z"/><path d="M42.68 40.5v.23c.16.5.1 1-.02 1.5-.08.32-.36.41-.74.27a3.34 3.34 0 01-1.51-1.28 3.2 3.2 0 01-.69-2.25c.03-.24.13-.44.24-.63.42-.76.82-1.55 1.7-1.9.11-.06.17-.14.15-.27a2.95 2.95 0 00-.49-1.38 3.55 3.55 0 01-.68-1.9c-.02-.22-.1-.43-.15-.65-.03-.18-.21-.32-.16-.53l.23.23.15.38c.33.57.4 1.24.69 1.82.08.17.17.34.3.47.26.27.45.57.58.91.1.3.31.42.64.42.53-.02 1.05-.1 1.57-.1.24 0 .44-.11.62-.26h.07c.07-.05.12-.05.17.02-.21.47-.64.62-1.1.65-.52.02-1 .17-1.5.34-.13.04-.24.1-.2.27.2.85 0 1.7.06 2.56.02.36-.05.73.07 1.08z" fill="#fbd054"/><path d="M30.86 46.71c-.35-.25-.74-.45-1.06-.75h.3c.09-.04.15 0 .21.04.85.44 1.67.94 2.44 1.5.72.53 1.35 1.18 1.94 1.85.18.2.42.36.56.6.04.1.09.21.03.33-.1.08-.2.04-.26-.05-.25-.34-.59-.58-.85-.9a7.69 7.69 0 00-2.03-1.73 7.77 7.77 0 01-1.28-.89z" fill="#f6c346"/><path class="st174" d="M27.9 44.06c.37.1.49.51.84.6.05.01.1.04.13.07l.2.2.11.1c.1.1.2.2.33.27l.31.22c.09.07.2.11.23.24l-.02.05c-.12 0-.25 0-.36-.07a7.96 7.96 0 01-1.76-1.68zM30.26 46.03l-.15-.07-.08-.15c.2-.1.3.03.4.15-.02.11-.08.13-.17.07z"/><path class="st192" d="M30.86 46.71l1.3.84a9.74 9.74 0 012.22 2c.09.11.24.17.33.3.06.08.2.14.1.27-.17 0-.25-.12-.34-.22-.36-.38-.75-.73-1.12-1.1-.75-.75-1.6-1.36-2.49-1.93v-.16z"/><path class="st193" d="M48.6 41.56c-.04-.2.07-.4.07-.6.14-.4.13-.82.12-1.23a12.85 12.85 0 00-.73-4.21c-.18-.5-.39-.65-.93-.6-.4.03-.75.18-1.14.24l-.05-.04c.06-.19.3-.2.38-.38.07-.25.32-.25.5-.3.44-.14.91-.05 1.32-.3.15-.1.25.05.32.18.1.19.16.4.22.6.2.69.42 1.37.63 2.06.27.88.42 1.79.17 2.7-.32.65-.47 1.35-.8 1.99-.06 0-.1-.03-.09-.1z"/><path class="st194" d="M49.43 39.74a.44.44 0 01-.04-.4c.18-.47.14-.95.03-1.44-.27-1.19-.67-2.35-1.04-3.51-.04-.12-.1-.31-.23-.17-.32.34-.74.18-1.1.27-.26.07-.5.15-.73.25l-.15-.07c-.04-.12.04-.19.1-.26a.55.55 0 01.1-.07c.28-.14.59-.24.87-.37.22-.1.41-.23.58-.4.3-.31.64-.24.81.15.09.2.17.4.21.6.14.78.53 1.46.77 2.2.2.63.38 1.25.2 1.92-.06.26.05.53.02.8l-.13.77c-.03.14-.05.28-.2.36-.1 0-.13-.09-.16-.17 0-.16.02-.31.09-.46z"/><path d="M46.32 34.44l-.15.23c-.06 0-.12.01-.15.07-.06.08-.16.1-.23.16-.57.34-1.17.51-1.85.46a2.33 2.33 0 01-1.7-.84c-.3-.37-.7-.7-.77-1.22.29.25.37.68.76.84.61.49 1.27.89 2.1.83.6-.05 1.19-.15 1.69-.53.1-.08.2-.1.3 0z" fill="#fac94c"/><path class="st193" d="M45.1 35.58c-.12.28-.4.34-.65.36-.57.05-1.15.06-1.73.1-.18 0-.35-.04-.4-.22-.18-.7-.82-1.13-1.08-1.79a5.3 5.3 0 01-.27-.93c-.05-.28-.24-.5-.26-.78.35.36.42.85.58 1.3.2.59.57 1.04 1.02 1.45.13.12.27.2.38.35.08.11.2.22.34.22.7.01 1.4.24 2.08-.06zM45.34 35.58h-.16c.16-.32.42-.46.76-.46.02.25-.2.24-.33.34-.09.04-.17.1-.27.12z"/><path class="st194" d="M45.79 34.9c.04-.1.12-.16.23-.16-.01.16-.12.16-.23.16z"/><path d="M50.49 34.29l.07-.08c.13 1.27.1 2.55.28 3.82.12.86.02 1.75.03 2.62-.16.26-.18.55-.23.84-.12.15-.1.35-.14.53-.07.3-.13.6-.43.78-.1-.02-.1-.1-.1-.18 0-.04.01-.08.03-.11.06-.13.1-.28.09-.43.1-.47.2-.94.26-1.42.26-.4.24-.86.26-1.32.02-.79-.08-1.58-.12-2.37 0-.16.03-.32 0-.48v-.08c0-.35-.04-.7-.08-1.06v-.15c-.09-.13.03-.2.08-.3v-.61z" fill="#f1bc41"/><path class="st197" d="M50.03 42.77c.23-.24.37-.52.38-.85 0-.2.05-.35.23-.43 0 .08-.01.17.07.22l-.07.38c-.21.45-.36.93-.55 1.4-.1.27-.16.62-.53.72.05-.52.21-1 .47-1.44zM50.64 41.49c0-.3-.03-.6.23-.84l-.23.84z"/><path d="M49.58 44.21c.4-.37.48-.9.68-1.37.11-.26.12-.56.38-.75.03.41-.29.7-.36 1.08-.1.54-.5.94-.68 1.45-.05.14-.11.27-.1.43-.4.7-.91 1.33-1.38 2l-.13.12c-.63.6-1.28 1.2-1.85 1.86-.2.22-.46.36-.73.49.16-.36.47-.58.75-.83.37-.35.82-.62 1-1.14.01-.33.27-.55.47-.73.73-.66 1.12-1.54 1.65-2.33.08-.11.14-.24.3-.28z" fill="#eeb73e"/><path class="st199" d="M49.58 44.21c-.27.46-.65.85-.83 1.37-.08.24-.24.46-.45.64-.46.37-.76.89-1.15 1.33-.58.52-1.16 1.05-1.76 1.57-.5.44-1.05.83-1.65 1.16-.45.1-.86.32-1.25.56-.28.18-.61.18-.9.33-.02.01-.08-.04-.12-.06.02-.1.09-.16.16-.21.75-.29 1.44-.67 2.11-1.09.7-.43 1.32-.98 1.94-1.5 1.14-.95 2.04-2.1 2.86-3.31.54-.63.85-1.38 1.2-2.12.05-.13.08-.32.3-.33v.22c-.1.5-.3.97-.46 1.44z"/><path d="M34.8 50.12c-.18-.4-.55-.62-.83-.94-.52-.63-1.24-1.06-1.82-1.63.58.24 1.04.64 1.47 1.06.51.5.97 1.04 1.44 1.57.06.06.12.1.2.1.38.19.64.55 1.06.7.81.28 1.61.59 2.47.16.1-.05.22-.04.34-.02.25.06.5-.03.73-.1.44-.14.9-.16 1.34-.34a.28.28 0 01.25.02c.1.15-.03.22-.1.31-.43.26-.9.37-1.37.5-.3.08-.58.18-.86.28-1.1.37-2.1.19-3.02-.5-.05-.05-.1-.07-.16-.1-.36-.14-.53-.5-.83-.69-.12-.1-.2-.25-.3-.38z" fill="#f4c244"/><path class="st192" d="M35.94 51.18c.12 0 .22.03.3.11.41.41.95.49 1.47.58.33.06.68.05 1-.06.58-.22 1.2-.33 1.78-.59.25-.1.55-.17.83-.26.1-.07.2-.1.3 0a.26.26 0 01-.15.15c-.34.18-.7.35-1.03.54-.11.06-.22.06-.33.07-.11 0-.23-.03-.32.06-.56.52-1.22.48-1.88.3-.57-.14-1.17-.19-1.65-.58-.12-.1-.24-.18-.32-.32zM34.8 50.12c.14.1.29.2.3.38-.22-.02-.26-.2-.3-.38z"/><path d="M48.6 31.18c0 1.04.23 2.03.64 2.99.24.57.5 1.12.83 1.64.13.21.23.44.13.71-.08.2.04.4.14.57.05.06.07.13.06.21-.05.2.05.38.03.56l-.03.18c-.1.2.08.5-.2.66-.17-.15-.11-.35-.11-.53 0-.59-.1-1.16-.23-1.73-.07-.34-.28-.59-.43-.88-.22-.44-.38-.92-.59-1.38-.25-.52-.32-1.12-.7-1.6-.06-.14-.07-.3-.17-.5-.06.28-.14.5-.25.72-.07.14-.13.3-.34.28.3-.67.47-1.38.44-2.1 0-.4-.03-.78.1-1.16l.1-.2c.09-.1.19-.18.33-.15.16.03.18.17.19.29.02.47.09.95.05 1.42z" fill="#f7c748"/><path class="st202" d="M47.38 33.08c.32-.2.35-.55.45-.87.03-.11.04-.23.16-.33.16.2.15.45.22.67-.26.15-.32.44-.44.68-.31.61-.91.88-1.45 1.21h-.3v-.07c.48-.4 1.02-.75 1.36-1.3z"/><path d="M48.6 31.18c-.16-.41-.1-.85-.16-1.28-.01-.12.07-.28-.07-.35-.16-.08-.23.1-.34.18l-.12.09c0-.16-.01-.31.08-.46.2-.07.23-.32.4-.43.2-.12.36-.05.33.15-.07.6-.02 1.18 0 1.77 0 .14-.02.25-.13.33z" fill="#f6c545"/><path d="M50.34 37.32v-.23h.07c.11 0 .1.07.12.15.03.37.09.74.08 1.12-.02.73.04 1.47-.22 2.19-.2.78-.49 1.53-.8 2.27a.47.47 0 01-.16.2.17.17 0 01-.17-.02c.03-.43.1-.87.29-1.25a6.3 6.3 0 00.5-1.84c.08-.5.3-.96.26-1.47 0-.14-.07-.3.03-.44v-.15c.1-.18-.03-.35 0-.53z" fill="#f3c247"/><path class="st205" d="M50.34 40.58c-.1-.28.12-.51.12-.78.02-.9.2-1.81-.05-2.7.01-.21-.04-.42.08-.61.17.43.12.9.16 1.34.06.68.06 1.37.04 2.05 0 .27.01.59-.28.77-.04 0-.07-.03-.07-.07zM50.41 35.35c.1.35.25.7.08 1.06-.2-.33 0-.72-.15-1.06h.07zM50.49 34.9l-.08.3c-.09-.06-.07-.15-.07-.23l.15-.07z"/><path class="st193" d="M28.97 44.37c.29.05.42.3.6.49.45.43 1.03.6 1.58.82 1.1.42 2.13.98 3.05 1.7.24.18.42.43.62.65.36.42.7.84 1.28 1.01.46.14.9.37 1.36.55.75.31 1.55.21 2.33.3l.44.05c.3.05.59.07.87-.11.29-.18.62-.29.98-.24v.06c-.2.23-.53.24-.78.4-.51.24-1.05.24-1.6.27a9.07 9.07 0 01-3.69-.67c-.29-.11-.57-.24-.75-.5a8.59 8.59 0 00-2.83-2.56.56.56 0 00-.37-.17 2.54 2.54 0 01-.76-.4.78.78 0 00-.43-.22.52.52 0 01-.1-.03.59.59 0 00-.32-.1.8.8 0 01-.43-.15c-.06-.08-.11-.15-.2-.2 0-.02 0-.03-.02-.04-.07-.3-.4-.36-.54-.58-.08-.12-.2-.22-.29-.33z"/><path d="M30.03 45.43c.13.1.29.14.46.15.08.08.21.07.3.15h.07c.16.07.32.12.46.23.25.12.48.3.76.38.12.06.25.08.37.15.57.3 1.08.69 1.58 1.09.47.38.88.85 1.2 1.38.2.32.5.49.84.61.76.28 1.54.48 2.34.64.17.04.32 0 .48-.01.81-.02 1.65.14 2.43-.23.07-.05.15-.05.22-.01 0 .26-.23.28-.39.38-.37.09-.73.2-1.1.26-.83-.14-1.69-.03-2.52-.22-.62-.14-1.22-.3-1.8-.54-.24-.09-.33-.34-.51-.5-.66-.58-1.16-1.32-1.86-1.88-.57-.45-1.23-.73-1.85-1.09-.55-.3-1.14-.53-1.7-.8-.12-.05-.25-.08-.31-.22-.14-.09-.24-.22-.38-.3a541.17 541.17 0 00-.3-.3l-.08-.08c.01-.13-.1-.2-.15-.3.41.16.6.59.98.8.08.03.14.1.23.1.07.07.17.08.23.16z" fill="#f9cd4f"/><path class="st188" d="M25.18 40.58c.12.06.22.15.23.3-.12-.07-.22-.15-.23-.3z"/><path d="M48.6 38.6c-.03.63.05 1.27-.08 1.89-.02.13-.01.25-.15.32 0-.56.04-1.1.08-1.66.03-.48-.08-.98-.19-1.47-.1-.54-.26-1.07-.43-1.6-.16-.53-.52-.71-1.07-.62-.65.12-1.24.35-1.73.8v-.15c.17-.43.57-.58.93-.78.18-.1.38-.12.57-.19.82-.3 1.35-.06 1.62.77.12.37.24.76.31 1.16-.01.27.05.53.1.79.02.03.02.07.03.1-.03.2-.04.4 0 .6v.05z" fill="#fbd45a"/><path class="st208" d="M45.94 35.43c-.34.17-.64.4-.9.68l-.16.07c-.56.23-1.21.1-1.75.45-.23.15-.36.29-.38.56-.07 1.1-.07 2.2-.07 3.31-.13-.16-.15-.36-.15-.56v-2.2c0-.3.02-.6-.11-.88-.1-.2 0-.3.2-.36.56-.17 1.11-.34 1.72-.33.42 0 .72-.3 1-.6.04-.1.11-.14.22-.14.13-.05.26-.11.38 0z"/><path class="st208" d="M40.49 32.24c.27.38.25.85.35 1.28.12.47.3.93.6 1.28.4.45.33 1.02.53 1.51.04.1-.06.15-.15.18-.96.3-1.35 1.13-1.8 1.9-.14.25-.22.5-.22.8-.02.92.35 1.65.96 2.32.33.36.68.66 1.12.86.48.23.66.1.74-.4.06-.42.06-.83.06-1.24.24.2.11.5.17.75.07.33.15.66.13 1-.02.54-.27.69-.75.44a4.77 4.77 0 01-2.63-3.46c-.07-.3.03-.6.15-.88.34-.78.82-1.47 1.43-2.07.45-.44.52-.96.14-1.5a4.97 4.97 0 01-.83-2.77z"/><path class="st209" d="M36.31 37.93c-.28 0-.42-.18-.38-.47.08-.53 1.03-1.36 1.56-1.35.25 0 .45.1.41.41-.07.57-1.02 1.41-1.59 1.4z"/><path d="M41.4 47.32c-.22.77-.75 1.2-1.51 1.38-1.6.38-2.95-.11-4.16-1.16-.5-.42-.82-1-1.3-1.43-.09-.36-.3-.73.04-1.06.35-.34.78-.58 1.25-.67a5.33 5.33 0 012.17 0c.74.17 1.43.53 2.04 1a8 8 0 011.04.97c.27.29.4.6.43.97z" fill="#fddb64"/><path class="st145" d="M34.8 47.1a.88.88 0 01-.38-.46c.24.06.39.2.38.45z"/><path d="M44.73 36.87c.37-.14.6-.49.93-.67.45-.25.95-.27 1.44-.3.1 0 .18.14.22.25.24.69.62 1.34.67 2.09 0 .14.03.27.15.37.1.74.1 1.48-.05 2.22-.02.13-.05.27-.18.35-.1.05-.12.14-.16.24a3.1 3.1 0 01-1.18 1.76c-.46.31-.88.27-1.22-.17-.73-.92-1.03-2-1.16-3.14-.1-.91.13-1.76.32-2.62.03-.15.23-.21.22-.38z" fill="#fcda63"/><path class="st186" d="M47.91 41.18c.24-.84.24-1.7.23-2.57v-.23c.13.7.2 1.4.11 2.1-.04.31-.13.62-.18.92-.02.1-.06.2-.16.24v-.46zM47.91 41.64c0 .57-.3.99-.68 1.36l.68-1.36z"/><path d="M33.85 41.71c-.38 0-.64-.23-.64-.58 0-.38.35-.71.74-.7.35 0 .63.28.63.61 0 .37-.33.67-.73.67z" fill="#fddd67"/><path class="st213" d="M48.6 41.56l.07.08c.12.14.05.3-.02.42-.21.4-.38.82-.47 1.27-.07.3-.26.54-.4.81a12.03 12.03 0 01-2.15 3.08c-.63.65-1.39 1.1-2.06 1.69-.22.18-.52.3-.84.27l-.05-.04.99-.83c.42-.22.74-.57 1.06-.9.56-.56 1.14-1.12 1.59-1.78.57-.84 1.17-1.65 1.6-2.58.18-.38.38-.75.44-1.17a.4.4 0 01.23-.32zM42.08 49.6c.08-.32.3-.44.6-.46-.07.32-.32.42-.6.45z"/><path class="st188" d="M45.94 35.43h-.38c.1-.14.32-.13.38-.3.37-.16.75-.3 1.15-.3.8 0 .87.07 1.1.7.28.83.4 1.68.6 2.52l.03.15c-.05.68.09 1.35.08 2.03 0 .27-.08.5-.23.73.03-.69-.07-1.38.06-2.06.02-.11-.04-.22-.14-.3-.1-.18-.02-.4-.07-.6v-.07a8.16 8.16 0 00-.15-.84c-.18-.46-.2-.97-.44-1.41-.26-.5-.6-.67-1.13-.52-.3.07-.57.17-.86.27z"/><path d="M42.23 39.36c.04.55-.05 1.1.05 1.65.04.22 0 .54-.25.67-.24.11-.48.02-.7-.14-.86-.62-1.36-1.45-1.2-2.51.11-.75.56-1.4 1.24-1.8.38-.23.66-.07.78.36.16.59.04 1.18.08 1.77z" fill="#fbcd51"/><path d="M39.12 51.18c-.36-.04-.64.25-1 .26-.27 0-.53.05-.78-.03-.77-.24-1.6-.39-2.08-1.13l-.08-.3c.16-.06.26.06.38.13.38.52 1 .4 1.52.5a8.4 8.4 0 002.63.05c.2-.02.42-.08.62.05.05.2-.1.22-.23.26-.32.1-.66.12-.98.21z" fill="#f7c647"/><path class="st202" d="M35.49 50.12c-.14.02-.2-.1-.3-.15-.69-.7-1.32-1.44-2.07-2.06a11.18 11.18 0 00-2.24-1.49c-.22-.1-.45-.21-.62-.39.06 0 .12-.01.15-.07.14-.07.25.01.34.08.55.4 1.24.52 1.77.94.1.07.2.13.27.2.6.55 1.22 1.05 1.75 1.67.28.32.5.7.84.97.08.07.15.17.1.3z"/><path class="st194" d="M32.76 47.24c-.72-.53-1.6-.8-2.35-1.28l-.38-.15-.23-.23c.15-.16.22.04.32.08 1.04.35 2 .86 2.91 1.44a5.3 5.3 0 011.47 1.34c.33.45.8.79 1.14 1.24.05.08.19.11.3.15 1.11.4 2.26.65 3.46.6.22-.02.42.06.63.07-.04.24-.25.2-.38.2a14.29 14.29 0 01-3.73-.53.9.9 0 01-.47-.3c-.63-.78-1.35-1.46-2.04-2.17-.2-.2-.44-.3-.65-.46z"/><path class="st172" d="M29.12 45.05c.2.02.29.16.38.3-.2-.02-.28-.16-.38-.3zM28.82 44.74c.14.01.22.09.23.23a.47.47 0 01-.23-.23z"/><path d="M42.08 49.6c.2-.16.45-.25.6-.46.5-.09.92-.3 1.3-.64.12-.12.25-.24.4-.34a8.74 8.74 0 002.53-2.65c.53-.84 1.12-1.7 1.3-2.73.08-.4.44-.7.46-1.14.2-.65.33-1.33.76-1.9v.46c-.03.88-.4 1.66-.65 2.49-.23.78-.64 1.47-1.03 2.17a9.78 9.78 0 01-1.28 1.72c-.97 1.11-2.12 2.01-3.36 2.8-.47.3-1 .52-1.56.6h-.23c.21-.21.53-.2.76-.39z" fill="#f9ce52"/><path d="M41.55 49.97c.37-.15.74-.29 1.1-.46.75-.36 1.41-.86 2.05-1.38.99-.79 1.87-1.67 2.58-2.72a10.8 10.8 0 001.35-2.61c.23-.7.42-1.41.67-2.1.06-.17-.02-.36.13-.5 0 .06.01.12.07.15.12.12.1.26.06.4a13.48 13.48 0 01-3.63 6.74c-1.02 1-2.1 1.92-3.45 2.46-.14.03-.28.07-.4.16-.1.05-.2.09-.3.11-.2.02-.4.2-.61.06l.38-.3z" fill="#f7ca50"/><path class="st218" d="M46.32 34.44c.24-.2.45-.4.74-.55.4-.2.6-.62.76-1.02.08-.21.17-.33.4-.32.4.45.46 1.05.68 1.59.18.6.43 1.17.71 1.73.28.55.43 1.12.45 1.73v1.17c0 .16-.02.32-.15.45-.06.04-.12.04-.18 0-.17-.6.14-1.18.02-1.78a7.93 7.93 0 00-.53-1.67c-.27-.61-.4-1.26-.62-1.87-.07-.18-.12-.37-.33-.43-.23-.08-.33.1-.44.25-.2.28-.56.33-.84.48-.2.11-.45.16-.67.24z"/><path d="M49.73 39.21h.15c.16.01.12.13.12.22-.02.2-.01.4-.02.6-.16.79-.36 1.57-.62 2.34-.2.55-.47 1.07-.68 1.62-.17.44-.46.83-.68 1.25a.74.74 0 01-.06.08c-.52.67-1.03 1.35-1.68 1.92-.11.1-.2.27-.4.23 0-.1.06-.16.12-.23.52-.52.96-1.1 1.4-1.71.46-.66.9-1.33 1.2-2.07.27-.65.47-1.32.7-1.98.11-.37.23-.74.22-1.13.14-.37.15-.76.23-1.14z" fill="#f6c84d"/><path d="M50.34 40.58l.07.07c.05.53-.17 1.01-.23 1.52-.06.12-.08.26-.15.38-.2.27-.33.58-.46.9a5.12 5.12 0 01-.98 1.6.2.2 0 01-.06-.16c.04-.21.14-.41.25-.59a10 10 0 00.65-1.3c.31-.6.37-1.32.76-1.9.11-.16 0-.38.15-.52z" fill="#f1bf44"/><path class="st199" d="M50.03 42.55c0-.15.03-.28.15-.38 0 .15-.03.28-.15.38z"/><path d="M48.6 44.9v.15a15.35 15.35 0 01-2.3 2.81c-.61.57-1.22 1.15-1.9 1.61-.71.5-1.4 1.08-2.29 1.3-.17.03-.33.12-.49.19h-.3l.15-.23c.04-.13.14-.17.25-.2.94-.36 1.8-.86 2.6-1.43.16-.11.29-.25.43-.37a.62.62 0 01.2-.11c.35-.13.59-.42.86-.65.95-.82 1.68-1.84 2.45-2.81.09-.12.14-.28.33-.26z" fill="#f3c045"/><path d="M44.8 48.76c-.34.49-.87.74-1.35 1.03-.36.22-.74.4-1.11.6-.27.16-.58.23-.87.34-.54.13-1.07.28-1.6.39-.25.05-.49.23-.75.06.17-.22.42-.2.65-.22.2-.03.43-.03.56-.23.16-.25.42-.23.66-.25.12 0 .25 0 .37-.05.88-.3 1.77-.62 2.52-1.22.2-.15.43-.24.62-.42.07-.07.2-.12.3-.03z" fill="#f5c447"/><path d="M49.88 40.05v-.84c.1-1.04.24-2.08-.27-3.07-.26-.51-.44-1.07-.66-1.6-.06-.13-.05-.27-.05-.4.27.42.38.92.6 1.36.16.3.38.55.47.9.18.75.24 1.51.21 2.28.1.12.1.25.06.39-.07.22-.09.46-.14.69-.03.12-.03.28-.22.29z" fill="#f7c749"/><path d="M49.88 40.05c.26-.42.25-.9.3-1.37.2-.2-.03-.48.16-.68 0 .49.06.96-.1 1.46-.11.38-.23.79-.21 1.2.01.3-.15.55-.28.8-.26.49-.22 1.06-.47 1.54.02.14 0 .25-.18.21-.06-.3.09-.55.18-.81.23-.42.2-.9.37-1.34.12-.32.16-.67.23-1.01z" fill="#f5c549"/><path class="st164" d="M50.34 37.32c.11.18.11.35 0 .53.07-.18-.17-.35 0-.53z"/><path d="M49.12 43.23l.16-.23h.15c-.06.35-.12.67-.36.97-.2.27-.32.61-.48.93-.32.4-.68.77-.96 1.19-.65.98-1.55 1.72-2.4 2.5-.08.08-.17.1-.27.1-.04-.11.03-.17.1-.23.52-.45.95-1 1.48-1.45.57-.49.95-1.13 1.37-1.73.32-.5.66-.97.86-1.53.06-.2.08-.45.35-.52z" fill="#f2c147"/><path class="st171" d="M31.32 45.96a.84.84 0 01-.46-.23c.2 0 .36.05.46.23zM32.45 46.49c-.14 0-.28-.03-.37-.15.14 0 .28.03.38.15zM30.79 45.73c-.13 0-.25-.01-.3-.15.12 0 .24.01.3.15zM30.03 45.43a.23.23 0 01-.23-.15c.11 0 .22 0 .23.15z"/><path class="st218" d="M41.02 50.58a1.3 1.3 0 00-.69.15c-.53-.05-1.05.14-1.59.1-.68-.06-1.37.03-2.04-.18-.1-.03-.2-.09-.3-.06-.46.14-.67-.18-.91-.47-.77-.92-1.5-1.87-2.48-2.6-.1-.08-.17-.18-.25-.28.4.09.7.3.93.65.1.15.25.3.4.4.47.38.88.82 1.23 1.29.36.49.85.6 1.36.7.94.17 1.9.3 2.86.36a.7.7 0 00.5-.14c.38-.05.73-.23 1.13-.22l.6-.16c.04.2-.12.22-.24.27-.17.07-.35.1-.51.19z"/><path class="st189" d="M48.37 37.1c.12.26.21.53.15.83a1.76 1.76 0 01-.15-.84zM48.52 38c.15.19.04.4.07.6-.16-.18-.15-.38-.07-.6z"/><path d="M36.9 44.59a5.45 5.45 0 013.79 1.98c.35.48.32.83-.08 1.28-.56.63-1.32.66-2.07.67-.88 0-1.62-.44-2.3-.92a4.22 4.22 0 01-1.38-1.61c-.14-.3.05-.52.21-.71.49-.57 1.18-.62 1.83-.7z" fill="#fddd68"/><path d="M47.83 39.5c.03.96-.25 2-.85 2.94-.38.6-1.3.63-1.67.03a5.7 5.7 0 01-.85-2.38c-.08-.68.01-1.32.05-1.97.06-.99 1.03-1.88 2.03-1.94.34-.02.54.19.65.42.38.8.69 1.86.64 2.9z" fill="#fcdc66"/><path d="M41.92 39.62c.01.33.02.64-.08.95-.11.36-.36.46-.64.22-.8-.68-1-1.77-.17-2.6.3-.31.62-.23.75.18.13.4.17.83.14 1.25z" fill="#facb4e"/><path class="st229" d="M41.02 50.58c.11-.2.35-.19.53-.29.08-.05.18-.06.22-.17l.3-.07c.14-.04.27-.08.39-.15 1.3-.59 2.36-1.5 3.4-2.43a9.76 9.76 0 001.74-1.88.92.92 0 01.31-.31 4 4 0 01-.83 1.3c-.69.72-1.41 1.4-2.12 2.1l-.16.08c-.35.05-.55.36-.84.52-.6.35-1.14.79-1.85.95-.37.08-.69.35-1.1.35z"/><path class="st218" d="M42.46 49.9c-.1.12-.19.27-.38.15.07-.18.23-.15.38-.15z"/><path class="st229" d="M49.12 43.23c-.36.58-.52 1.28-.97 1.81-.08.09-.13.18-.24.24l1.09-2.2c.1-.22.08-.5.28-.68-.01.28-.18.54-.16.83z"/><path class="st230" d="M38.68 48.1a4 4 0 01-2.75-1.34c-.23-.27-.45-.53-.35-.88.11-.38.43-.57.8-.68 1.1-.32 2.04.08 2.92.68.26.17.5.37.68.64.42.66.26 1.16-.5 1.42-.25.09-.52.14-.8.15z"/><path class="st209" d="M47.62 39.25c-.05.8-.08 1.59-.5 2.31-.21.37-.55.58-.87.81-.27.19-.54.05-.72-.2a4.52 4.52 0 01-.83-3.63c.07-.33.2-.64.28-.97.17-.67.7-.95 1.28-1.14.23-.08.43.06.58.26.4.55.58 1.19.69 1.85.04.23.13.46.09.7z"/><path d="M37.53 45.8c.63.08 1.25.33 1.7.94.12.2.1.32-.04.47a.97.97 0 01-.85.32 2.5 2.5 0 01-1.53-.74c-.4-.42-.32-.75.23-.93.14-.05.27-.05.5-.06z" fill="#fde371"/><path class="st230" d="M44.95 39.47c.01-.88.25-1.59.65-2.24.24-.38.63-.43.93-.1.6.63.8 1.4.75 2.25-.01.2-.05.4-.05.6 0 .62-.28 1.14-.67 1.6-.32.37-.64.33-.95-.1a3.85 3.85 0 01-.66-2.01z"/><path d="M45.49 39.35c-.04-.38.05-.75.2-1.12.1-.2.2-.37.43-.37.22 0 .43.12.5.32.3.85.47 1.7-.12 2.5-.24.33-.42.33-.66 0-.3-.39-.38-.84-.35-1.33z" fill="#fde270"/></svg>