<?xml version="1.0" encoding="utf-8"?>
<!-- Generator: Adobe Illustrator 23.0.3, SVG Export Plug-In . SVG Version: 6.00 Build 0)  -->
<svg version="1.1" id="Layer_1" xmlns="http://www.w3.org/2000/svg" xmlns:xlink="http://www.w3.org/1999/xlink" x="0px" y="0px"
	 viewBox="0 0 72 72" style="enable-background:new 0 0 72 72;" xml:space="preserve">
<style type="text/css">
	.st0{fill:#EA4C89;}
	.st1{fill:#FFFFFF;}
</style>
<g id="Twitter">
	<rect class="st0" width="72" height="72"/>
</g>
<g id="Guides">
</g>
<g>
	<path class="st1" d="M51.6,27C50,24.2,47.8,22,45,20.4c-2.8-1.6-5.8-2.4-9-2.4c-3.3,0-6.3,0.8-9,2.4C24.2,22,22,24.2,20.4,27
		c-1.6,2.8-2.4,5.8-2.4,9c0,3.3,0.8,6.3,2.4,9c1.6,2.8,3.8,4.9,6.6,6.6c2.8,1.6,5.8,2.4,9,2.4c3.3,0,6.3-0.8,9-2.4
		c2.8-1.6,4.9-3.8,6.6-6.6c1.6-2.8,2.4-5.8,2.4-9C54,32.7,53.2,29.7,51.6,27z M36,20.6c3.9,0,7.3,1.3,10.1,3.8l-0.3,0.4
		c-0.1,0.2-0.4,0.5-0.9,0.9c-0.5,0.5-1,0.9-1.5,1.3c-0.6,0.4-1.3,0.9-2.3,1.4c-1,0.5-2,1-3,1.4c-1.8-3.3-3.7-6.3-5.8-9
		C33.6,20.8,34.8,20.6,36,20.6z M24,26.5c1.5-1.9,3.3-3.3,5.5-4.4c1.9,2.6,3.8,5.5,5.7,8.9c-4.7,1.3-9.5,1.9-14.2,1.9
		C21.5,30.5,22.5,28.4,24,26.5z M21.7,41.5c-0.7-1.8-1-3.6-1-5.5c0-0.2,0-0.4,0-0.5c5.7,0,10.9-0.7,15.8-2.2c0.5,1,0.9,1.8,1.2,2.6
		c-0.1,0-0.2,0.1-0.3,0.1c-0.1,0-0.2,0.1-0.3,0.1l-0.9,0.3c-0.6,0.2-1.4,0.6-2.3,1.1c-1,0.5-2,1.2-3.1,1.9c-1.1,0.7-2.2,1.7-3.3,2.9
		c-1.1,1.2-2.1,2.5-2.9,3.9C23.3,44.9,22.3,43.3,21.7,41.5z M36,51.4c-3.7,0-6.9-1.2-9.8-3.5l0.4,0.3c0.5-1.2,1.4-2.4,2.4-3.5
		c1.1-1.1,2.1-2,3.1-2.7c1-0.7,2.1-1.3,3.2-1.9c1.2-0.6,1.9-1,2.4-1.1c0.4-0.2,0.8-0.3,1-0.4l0,0h0c1.5,4,2.6,7.9,3.3,11.7
		C40.1,51,38.1,51.4,36,51.4z M48.9,44.3c-1.2,1.8-2.6,3.3-4.3,4.4c-0.6-3.6-1.6-7.3-3-11c3.1-0.5,6.3-0.3,9.6,0.7
		C50.8,40.6,50.1,42.5,48.9,44.3z M51.1,35.8c-0.2,0-0.4-0.1-0.6-0.1c-0.2,0-0.5-0.1-0.9-0.1c-0.3-0.1-0.7-0.1-1.1-0.2
		c-0.4,0-0.9-0.1-1.3-0.1c-0.5,0-1-0.1-1.5-0.1c-0.5,0-1.1,0-1.6,0c-0.5,0-1.1,0-1.7,0c-0.6,0-1.2,0.1-1.7,0.2
		c0-0.1-0.1-0.2-0.2-0.4c-0.1-0.2-0.1-0.3-0.2-0.4c-0.3-0.7-0.6-1.4-1-2.2c1.1-0.4,2.1-0.9,3.1-1.5c1-0.6,1.8-1.1,2.3-1.5
		c0.6-0.4,1.1-0.9,1.7-1.4c0.5-0.5,0.9-0.8,1-1c0.2-0.2,0.3-0.4,0.4-0.6l0,0c2.3,2.8,3.4,6,3.5,9.6L51.1,35.8z"/>
</g>
</svg>
