<svg xmlns="http://www.w3.org/2000/svg" viewBox="0 0 72 72"><path fill="#08d7d7" d="M0 0h72v72H0z"/><path d="M33.61 44.89c0 .32-.08.78-.45 1.13l-1.39 1.19-12.64-11.8V30.8l13.9 12.96c.22.2.59.63.59 1.14zm19.26-13.76v4.29L37.14 50.48c-.26.24-.52.35-.85.35-.33 0-.63-.12-.88-.35l-1.44-1.3 18.9-18.06zM40.9 38.77l-4.36 4.12L22.7 29.85a3.36 3.36 0 010-4.93l4.36-4.12L40.9 33.84a3.35 3.35 0 010 4.93zM38.3 27.41l4.55-4.29a3.8 3.8 0 012.61-1.02c1 0 1.92.37 2.61 1.02l4.7 4.43-7.16 6.75-2.61-2.46-4.7-4.43zm17.47-.68l-10.27-9.87-.21-.2-.22.2-8.97 8.55-8.02-7.61-.01-.01-1.01-.8-.21-.17-.2.18-10.44 9.71-.09.08v9.8l.09.08L35.8 55.14l.21.2.21-.2 19.56-18.47.09-.08V26.8l-.09-.08z" fill-rule="evenodd" clip-rule="evenodd" fill="#fff"/></svg>