<svg width="72" height="72" viewBox="0 0 72 72" fill="none" xmlns="http://www.w3.org/2000/svg">
<path d="M72 0H0V72H72V0Z" fill="#111016"/>
<g clip-path="url(#clip0)">
<path d="M51.8643 39.2787H51.8353L51.9464 39.2158C52.557 38.9134 53.0724 38.4486 53.4364 37.8726C53.8003 37.2966 53.9986 36.6315 54.0096 35.9503C54.0206 35.269 53.8438 34.5979 53.4986 34.0104C53.1534 33.4229 52.6532 32.9419 52.0527 32.6199C52.636 32.2861 53.1177 31.8003 53.4464 31.2141C53.7751 30.628 53.9385 29.9637 53.9191 29.292C53.8998 28.6203 53.6984 27.9664 53.3365 27.4002C52.9746 26.834 52.4658 26.3767 51.8643 26.077L38.5757 18.6886C37.7699 18.2633 36.8726 18.041 35.9615 18.041C35.0504 18.041 34.153 18.2633 33.3472 18.6886L20.0538 26.0722C19.4459 26.3764 18.9331 26.8414 18.5711 27.4168C18.2092 27.9922 18.012 28.6559 18.001 29.3355C17.99 30.0152 18.1657 30.6849 18.5089 31.2716C18.8521 31.8584 19.3497 32.3398 19.9475 32.6634C19.3858 32.9926 18.9189 33.4615 18.592 34.0246C18.2652 34.5877 18.0896 35.2258 18.0823 35.8768C18.0924 36.5654 18.2887 37.2384 18.6502 37.8245C19.0118 38.4107 19.5252 38.8881 20.136 39.2062H20.165L20.0538 39.2642C19.4363 39.5734 18.917 40.0484 18.5541 40.636C18.1912 41.2235 17.999 41.9005 17.999 42.5911C17.999 43.2818 18.1912 43.9587 18.5541 44.5463C18.917 45.1339 19.4363 45.6089 20.0538 45.9181L33.3472 53.3162C34.153 53.7415 35.0504 53.9638 35.9615 53.9638C36.8726 53.9638 37.7699 53.7415 38.5757 53.3162L51.8643 45.9326C52.4818 45.6234 53.0011 45.1484 53.364 44.5608C53.7269 43.9732 53.9191 43.2963 53.9191 42.6056C53.9191 41.915 53.7269 41.238 53.364 40.6505C53.0011 40.0629 52.4818 39.5879 51.8643 39.2787V39.2787ZM51.1636 44.6666L37.8702 52.0502C37.2801 52.3549 36.6256 52.5139 35.9615 52.5139C35.2973 52.5139 34.6429 52.3549 34.0527 52.0502L20.7593 44.6666C20.369 44.4825 20.039 44.1912 19.808 43.8268C19.5769 43.4623 19.4542 43.0396 19.4542 42.6081C19.4542 42.1765 19.5769 41.7538 19.808 41.3894C20.039 41.0249 20.369 40.7336 20.7593 40.5495L23.1464 39.2207L20.8366 37.9353C20.4463 37.7512 20.1164 37.46 19.8853 37.0955C19.6542 36.731 19.5315 36.3083 19.5315 35.8768C19.5315 35.4452 19.6542 35.0226 19.8853 34.6581C20.1164 34.2936 20.4463 34.0023 20.8366 33.8183L22.9242 32.6585L20.7593 31.4553C20.369 31.2712 20.039 30.98 19.808 30.6155C19.5769 30.251 19.4542 29.8283 19.4542 29.3968C19.4542 28.9652 19.5769 28.5426 19.808 28.1781C20.039 27.8136 20.369 27.5223 20.7593 27.3383L34.0672 19.9546C34.6574 19.65 35.3118 19.491 35.976 19.491C36.6401 19.491 37.2946 19.65 37.8847 19.9546L51.1636 27.3383C51.5539 27.5223 51.8839 27.8136 52.115 28.1781C52.346 28.5426 52.4687 28.9652 52.4687 29.3968C52.4687 29.8283 52.346 30.251 52.115 30.6155C51.8839 30.98 51.5539 31.2712 51.1636 31.4553L49.0761 32.6199L51.2409 33.8231C51.6313 34.0072 51.9612 34.2984 52.1923 34.6629C52.4234 35.0274 52.5461 35.4501 52.5461 35.8816C52.5461 36.3132 52.4234 36.7358 52.1923 37.1003C51.9612 37.4648 51.6313 37.7561 51.2409 37.9401L48.8538 39.2642L51.1636 40.5495C51.5539 40.7336 51.8839 41.0249 52.115 41.3894C52.346 41.7538 52.4687 42.1765 52.4687 42.6081C52.4687 43.0396 52.346 43.4623 52.115 43.8268C51.8839 44.1912 51.5539 44.4825 51.1636 44.6666V44.6666Z" fill="#111016"/>
<path d="M34.1302 45.319L26.5484 41.1101L23.8521 42.6081L35.6523 49.1654C35.8521 49.2281 36.0663 49.2281 36.266 49.1654L48.0808 42.6081L45.4665 41.1584L37.9331 45.319C37.3449 45.6212 36.693 45.7789 36.0316 45.7789C35.3703 45.7789 34.7184 45.6212 34.1302 45.319Z" fill="#111016"/>
<path d="M34.0671 38.8437L26.3355 34.5527L23.9194 35.8767L35.7342 42.4341C35.934 42.4968 36.1481 42.4968 36.3479 42.4341L48.1482 35.8767L45.6644 34.5044L37.8555 38.8534C37.2677 39.1495 36.6184 39.3029 35.9602 39.3012C35.302 39.2996 34.6534 39.1428 34.0671 38.8437Z" fill="#111016"/>
<path d="M36.2128 22.4384C36.013 22.3757 35.7989 22.3757 35.5991 22.4384L23.7988 28.9957L35.5991 35.553C35.7989 35.6157 36.013 35.6157 36.2128 35.553L48.0131 28.9957L36.2128 22.4384Z" fill="#111016"/>
<path d="M51.1632 40.5493L48.8534 39.2639L45.4709 41.1533L48.0851 42.603L36.2655 49.1652C36.0658 49.2279 35.8516 49.2279 35.6518 49.1652L23.8516 42.6078L26.5479 41.1099L23.1654 39.2205L20.7783 40.5493C20.3879 40.7334 20.058 41.0247 19.8269 41.3891C19.5958 41.7536 19.4731 42.1763 19.4731 42.6078C19.4731 43.0394 19.5958 43.4621 19.8269 43.8265C20.058 44.191 20.3879 44.4823 20.7783 44.6664L34.0669 52.05C34.657 52.3547 35.3115 52.5137 35.9756 52.5137C36.6397 52.5137 37.2942 52.3547 37.8843 52.05L51.1632 44.6664C51.5536 44.4823 51.8835 44.191 52.1146 43.8265C52.3457 43.4621 52.4684 43.0394 52.4684 42.6078C52.4684 42.1763 52.3457 41.7536 52.1146 41.3891C51.8835 41.0247 51.5536 40.7334 51.1632 40.5493V40.5493Z" fill="#C7AA51"/>
<path d="M26.5484 41.1101L34.1301 45.3189C34.7202 45.6236 35.3747 45.7826 36.0388 45.7826C36.703 45.7826 37.3574 45.6236 37.9476 45.3189L45.452 41.1536L48.8345 39.2642L51.241 37.9353C51.6313 37.7512 51.9612 37.46 52.1923 37.0955C52.4234 36.731 52.5461 36.3083 52.5461 35.8768C52.5461 35.4452 52.4234 35.0226 52.1923 34.6581C51.9612 34.2936 51.6313 34.0023 51.241 33.8183L49.0761 32.6199L45.6646 34.5044L48.1339 35.8768L36.3481 42.4341C36.1483 42.4968 35.9342 42.4968 35.7344 42.4341L23.9196 35.8768L26.3357 34.5528L22.9532 32.6634L20.8657 33.8231C20.4754 34.0072 20.1454 34.2984 19.9143 34.6629C19.6832 35.0274 19.5605 35.4501 19.5605 35.8816C19.5605 36.3132 19.6832 36.7358 19.9143 37.1003C20.1454 37.4648 20.4754 37.7561 20.8657 37.9401L23.1755 39.2255L26.5484 41.1101Z" fill="white"/>
<path d="M26.3356 34.5528L34.0672 38.8486C34.658 39.151 35.3122 39.3087 35.9759 39.3087C36.6396 39.3087 37.2938 39.151 37.8846 38.8486L45.6645 34.5044L49.047 32.615L51.1345 31.4553C51.5249 31.2712 51.8548 30.98 52.0859 30.6155C52.317 30.251 52.4397 29.8283 52.4397 29.3968C52.4397 28.9652 52.317 28.5426 52.0859 28.1781C51.8548 27.8136 51.5249 27.5223 51.1345 27.3383L37.8701 19.9546C37.28 19.65 36.6255 19.491 35.9614 19.491C35.2972 19.491 34.6428 19.65 34.0527 19.9546L20.7592 27.3383C20.3689 27.5223 20.039 27.8136 19.8079 28.1781C19.5768 28.5426 19.4541 28.9652 19.4541 29.3968C19.4541 29.8283 19.5768 30.251 19.8079 30.6155C20.039 30.98 20.3689 31.2712 20.7592 31.4553L22.9241 32.6585L26.3356 34.5528ZM36.2272 35.5579C36.0274 35.6206 35.8132 35.6206 35.6135 35.5579L23.7987 28.9957L35.599 22.4384C35.7987 22.3757 36.0129 22.3757 36.2127 22.4384L48.0129 28.9957L36.2272 35.5579Z" fill="#C7AA51"/>
</g>
<defs>
<clipPath id="clip0">
<rect width="36" height="35.9179" fill="white" transform="translate(18 18.041)"/>
</clipPath>
</defs>
</svg>
