<svg width="72" height="72" viewBox="0 0 72 72" fill="none" xmlns="http://www.w3.org/2000/svg">
<path d="M72 0H0V72H72V0Z" fill="#3B60FF"/>
<path fill-rule="evenodd" clip-rule="evenodd" d="M41.419 18.0151C47.1875 18.457 52.5391 24.1639 52.5391 28.8066V48.437C52.5391 51.5105 50.2042 54 47.1328 54C44.0621 54 41.419 51.5093 41.419 48.437V37.4438C41.419 37.4438 41.346 32.9683 40.5765 31.3735C39.728 29.7245 38.0915 28.957 36.5329 29.0129C34.4499 28.973 32.1674 30.1906 31.0293 30.8924V33.5567C31.0293 36.7471 28.4403 39.3334 25.2451 39.3334C22.0506 39.3334 19.4609 36.7468 19.4609 33.5567V23.7766C19.4609 20.5863 22.0499 18 25.2451 18C27.5263 18 29.4991 19.319 30.4407 21.235C31.8616 20.0425 35.3665 17.7953 41.419 18.015V18.0151ZM25.2425 54C22.0495 54 19.4609 51.4115 19.4609 48.2184C19.4609 45.0254 22.0495 42.4368 25.2425 42.4368C28.4356 42.4368 31.0241 45.0254 31.0241 48.2184C31.0241 51.4115 28.4356 54 25.2425 54Z" fill="white"/>
</svg>
