<svg width="72" height="72" viewBox="0 0 72 72" fill="none" xmlns="http://www.w3.org/2000/svg">
<path d="M72 0H0V72H72V0Z" fill="#582BE8"/>
<g clip-path="url(#clip0)">
<path d="M30.375 53.0889V42.334H41.6249V46.7327C41.622 48.4195 40.9498 50.0362 39.756 51.2279C38.5622 52.4196 36.9442 53.0889 35.2575 53.0889H30.375Z" fill="#88CFB0"/>
<path d="M35.2346 53.9999H29.4971V41.4224H42.502V46.7324C42.4991 48.6589 41.7325 50.5057 40.3701 51.868C39.0079 53.2303 37.1611 53.997 35.2346 53.9999ZM31.3084 52.1774H35.2346C36.6798 52.1774 38.0658 51.6041 39.0887 50.5833C40.1116 49.5625 40.6878 48.1775 40.6908 46.7324V43.2449H31.3084V52.1774Z" fill="#2F2F3A"/>
<path d="M41.8955 42.0306V30.623H53.1455V35.663C53.147 36.4987 52.9837 37.3264 52.665 38.099C52.3461 38.8714 51.8782 39.5734 51.2878 40.1649C50.6974 40.7564 49.9962 41.2255 49.2243 41.5456C48.4524 41.8657 47.625 42.0306 46.7893 42.0306H41.8955Z" fill="#F2C94C"/>
<path d="M46.7321 42.9419H40.9834V29.7119H53.9996V35.6632C53.9996 37.5916 53.2343 39.4414 51.8717 40.806C50.5091 42.1707 48.6606 42.9389 46.7321 42.9419ZM42.8059 41.1194H46.7321C48.1773 41.1164 49.5622 40.5402 50.583 39.5173C51.6038 38.4945 52.1772 37.1084 52.1772 35.6632V31.5006H42.8059V41.1194Z" fill="#2F2F3A"/>
<path d="M41.5912 30.623H30.3975V42.0306H41.5912V30.623Z" fill="#BD83CE"/>
<path d="M42.502 42.9419H29.4971V29.7119H42.502V42.9419ZM31.252 41.1194H40.6346V31.5006H31.3084L31.252 41.1194Z" fill="#2F2F3A"/>
<path d="M18.9111 30.3749V25.2674C18.9111 23.5816 19.5808 21.9649 20.7728 20.7728C21.9649 19.5808 23.5816 18.9111 25.2674 18.9111H30.1049V30.3749H18.9111Z" fill="#40BE88"/>
<path d="M31.0162 31.23H18V25.2675C18.003 23.341 18.7696 21.4942 20.1319 20.1319C21.4942 18.7696 23.341 18.003 25.2675 18H31.0162V31.23ZM19.8225 29.4075H29.25V19.8225H25.2675C23.8234 19.8225 22.4384 20.3962 21.4173 21.4173C20.3962 22.4384 19.8225 23.8234 19.8225 25.2675V29.4075Z" fill="#2F2F3A"/>
<path d="M41.8955 30.3749V18.9111H46.733C48.4188 18.9111 50.0355 19.5808 51.2276 20.7728C52.4196 21.9649 53.0893 23.5816 53.0893 25.2674V30.3749H41.8955Z" fill="#FF7474"/>
<path d="M53.9996 31.23H40.9834V18H46.7321C48.6587 18.003 50.5055 18.7696 51.8678 20.1319C53.23 21.4942 53.9966 23.341 53.9996 25.2675V31.23ZM42.8059 29.4075H52.1772V25.2675C52.1772 23.8234 51.6035 22.4384 50.5824 21.4173C49.5612 20.3962 48.1762 19.8225 46.7321 19.8225H42.8059V29.4075Z" fill="#2F2F3A"/>
<path d="M41.5912 18.9111H30.3975V30.3186H41.5912V18.9111Z" fill="#6776F9"/>
<path d="M42.502 31.23H29.4971V18H42.502V31.23ZM31.252 29.4075H40.6346V19.8225H31.3084L31.252 29.4075Z" fill="#2F2F3A"/>
<path d="M18.9111 46.7327V42.334H30.1611V53.0889H25.2674C23.5816 53.0889 21.9649 52.4192 20.7728 51.2273C19.5808 50.0353 18.9111 48.4185 18.9111 46.7327Z" fill="#37C2E2"/>
<path d="M31.0162 53.9999H25.2675C23.341 53.997 21.4942 53.2303 20.1319 51.868C18.7696 50.5057 18.003 48.6589 18 46.7324V41.4224H31.0162V53.9999ZM19.8225 43.2449V46.7324C19.8225 48.1765 20.3962 49.5615 21.4173 50.5826C22.4384 51.6037 23.8234 52.1774 25.2675 52.1774H29.25V43.2449H19.8225Z" fill="#2F2F3A"/>
<path d="M30.1049 30.623H18.9111V42.0306H30.1049V30.623Z" fill="#F2994A"/>
<path d="M31.0162 42.9419H18V29.7119H31.0162V42.9419ZM19.8225 41.1194H29.25V31.5006H19.8225V41.1194Z" fill="#2F2F3A"/>
</g>
<defs>
<clipPath id="clip0">
<rect width="36" height="36" fill="white" transform="translate(18 18)"/>
</clipPath>
</defs>
</svg>
